<svg width="125" height="100" viewBox="0 0 125 100" fill="none" xmlns="http://www.w3.org/2000/svg">
<path d="M84.9493 41.4592C84.9485 41.1692 84.8329 40.8912 84.6277 40.6861C84.4226 40.4809 84.1446 40.3653 83.8545 40.3644H72.1171L72.0717 40.2767L66.328 28.7895V22.8282C66.328 22.5378 66.2127 22.2594 66.0074 22.0541C65.8021 21.8487 65.5236 21.7334 65.2332 21.7334H61.0977C59.7102 21.7351 58.38 22.2871 57.3989 23.2682C56.4178 24.2493 55.8658 25.5795 55.8641 26.967V39.091L54.5646 38.6037C54.0085 38.3955 53.4204 38.2856 52.8266 38.2788H44.5458C43.1591 38.2805 41.8298 38.8321 40.8493 39.8126C39.8688 40.7931 39.3172 42.1225 39.3154 43.5091C39.3197 44.4065 39.5594 45.287 40.0106 46.0626L40.485 46.8813L39.6825 47.3815C39.0373 47.7824 38.4884 48.3207 38.075 48.9581C37.6616 49.5954 37.3939 50.316 37.2909 51.0687C37.1879 51.8213 37.2521 52.5874 37.4791 53.3123C37.7061 54.0373 38.0902 54.7033 38.604 55.2628L39.2082 55.9125L38.604 56.5623C38.0017 57.22 37.5797 58.0222 37.3787 58.8911C37.1778 59.7599 37.2048 60.666 37.4571 61.5214C37.7094 62.3767 38.1785 63.1524 38.8189 63.7731C39.4592 64.3938 40.2491 64.8384 41.1119 65.064L42.184 65.3466L41.7682 66.3732C41.4433 67.164 41.3185 68.0227 41.4048 68.8732C41.4911 69.7237 41.7859 70.5398 42.263 71.2492C42.7401 71.9586 43.3848 72.5394 44.14 72.94C44.8952 73.3407 45.7375 73.5489 46.5924 73.5462H52.8201C53.5507 73.544 54.2726 73.3877 54.9387 73.0877C55.6048 72.7877 56.2002 72.3506 56.686 71.805L56.9784 71.4801H66.8023C68.7388 71.4787 70.5954 70.7087 71.9644 69.3392L73.9624 67.3413H83.8545C84.1446 67.3404 84.4226 67.2248 84.6277 67.0197C84.8329 66.8146 84.9485 66.5366 84.9493 66.2465V41.4592ZM52.8201 71.3989H46.6152C45.8079 71.3989 45.0336 71.0782 44.4627 70.5073C43.8919 69.9364 43.5712 69.1622 43.5712 68.3549C43.5712 67.5476 43.8919 66.7733 44.4627 66.2025C45.0336 65.6316 45.8079 65.3109 46.6152 65.3109H52.8201C53.6274 65.3109 54.4017 65.6316 54.9725 66.2025C55.5434 66.7733 55.8641 67.5476 55.8641 68.3549C55.8641 69.1622 55.5434 69.9364 54.9725 70.5073C54.4017 71.0782 53.6274 71.3989 52.8201 71.3989ZM52.8201 63.1213H42.4796C42.0717 63.1346 41.6653 63.0658 41.2846 62.9189C40.9038 62.772 40.5565 62.55 40.2632 62.2662C39.97 61.9824 39.7368 61.6425 39.5775 61.2667C39.4183 60.891 39.3362 60.487 39.3362 60.0789C39.3362 59.6708 39.4183 59.2669 39.5775 58.8911C39.7368 58.5154 39.97 58.1755 40.2632 57.8916C40.5565 57.6078 40.9038 57.3858 41.2846 57.2389C41.6653 57.0921 42.0717 57.0232 42.4796 57.0366H52.8201C53.228 57.0232 53.6344 57.0921 54.0152 57.2389C54.3959 57.3858 54.7433 57.6078 55.0365 57.8916C55.3298 58.1755 55.563 58.5154 55.7222 58.8911C55.8815 59.2669 55.9635 59.6708 55.9635 60.0789C55.9635 60.487 55.8815 60.891 55.7222 61.2667C55.563 61.6425 55.3298 61.9824 55.0365 62.2662C54.7433 62.55 54.3959 62.772 54.0152 62.9189C53.6344 63.0658 53.228 63.1346 52.8201 63.1213V63.1213ZM52.8201 54.847H42.4796C42.0717 54.8603 41.6653 54.7915 41.2846 54.6446C40.9038 54.4977 40.5565 54.2757 40.2632 53.9919C39.97 53.7081 39.7368 53.3682 39.5775 52.9924C39.4183 52.6167 39.3362 52.2127 39.3362 51.8046C39.3362 51.3965 39.4183 50.9925 39.5775 50.6168C39.7368 50.241 39.97 49.9011 40.2632 49.6173C40.5565 49.3335 40.9038 49.1115 41.2846 48.9646C41.6653 48.8177 42.0717 48.7489 42.4796 48.7622H52.8201C53.228 48.7489 53.6344 48.8177 54.0152 48.9646C54.3959 49.1115 54.7433 49.3335 55.0365 49.6173C55.3298 49.9011 55.563 50.241 55.7222 50.6168C55.8815 50.9925 55.9635 51.3965 55.9635 51.8046C55.9635 52.2127 55.8815 52.6167 55.7222 52.9924C55.563 53.3682 55.3298 53.7081 55.0365 53.9919C54.7433 54.2757 54.3959 54.4977 54.0152 54.6446C53.6344 54.7915 53.228 54.8603 52.8201 54.847V54.847ZM52.8201 46.5726H44.5458C43.7385 46.5726 42.9642 46.2519 42.3933 45.6811C41.8225 45.1102 41.5018 44.336 41.5018 43.5286C41.5018 42.7213 41.8225 41.9471 42.3933 41.3762C42.9642 40.8054 43.7385 40.4846 44.5458 40.4846H52.8201C53.6274 40.4846 54.4017 40.8054 54.9725 41.3762C55.5434 41.9471 55.8641 42.7213 55.8641 43.5286C55.8641 44.336 55.5434 45.1102 54.9725 45.6811C54.4017 46.2519 53.6274 46.5726 52.8201 46.5726V46.5726ZM82.7597 65.1744H74.6024V61.0422H72.416V65.8242L70.4181 67.8221C69.4597 68.7799 68.1605 69.3185 66.8056 69.3197H58.0569V68.3451C58.0567 67.0507 57.5709 65.8034 56.6958 64.8496L56.0915 64.1998L56.6958 63.5501C57.5625 62.5993 58.043 61.359 58.043 60.0724C58.043 58.7858 57.5625 57.5456 56.6958 56.5947L56.0915 55.945L56.6958 55.2953C57.5625 54.3445 58.043 53.1042 58.043 51.8176C58.043 50.531 57.5625 49.2907 56.6958 48.3399L56.085 47.6902L56.7023 47.0404C57.344 46.3578 57.7816 45.5089 57.9653 44.5902C58.1491 43.6714 58.0716 42.7196 57.7418 41.8426L58.0667 40.5431V26.967C58.0658 26.1611 58.3843 25.3876 58.9523 24.8159C59.5204 24.2442 60.2918 23.9208 61.0977 23.9165H64.1417V29.0266C64.137 29.1996 64.1738 29.3711 64.2489 29.5269L70.4506 41.9303C70.5407 42.1117 70.6797 42.2644 70.8518 42.3712C71.024 42.478 71.2226 42.5345 71.4252 42.5346H82.7565L82.7597 65.1744Z" fill="#E4326C"/>
<path d="M37.4798 94.6409C42.6494 97.3722 48.2564 99.1796 54.0479 99.9817L54.3111 97.8051C49.2267 97.0784 44.2913 95.543 39.6921 93.257L38.4901 92.6592L39.429 91.7009C40.7703 90.3258 41.5176 88.4787 41.5097 86.5577C41.5018 84.6368 40.7393 82.7959 39.3867 81.4319L37.9248 79.97C37.7164 79.7714 37.4395 79.6606 37.1516 79.6606C36.8637 79.6606 36.5869 79.7714 36.3785 79.97L33.4547 82.8938C32.5007 83.8515 31.8354 85.0584 31.5347 86.3763L31.1774 87.9259L29.9559 86.9026C28.7409 85.8825 27.5584 84.7845 26.4473 83.654L25.5734 82.7573L27.5226 81.6268C29.1974 80.6566 30.4193 79.0621 30.9204 77.1926C31.4216 75.3231 31.1612 73.3312 30.1963 71.6534L29.16 69.8601C29.0886 69.7357 28.9933 69.6266 28.8796 69.539C28.766 69.4515 28.6361 69.3873 28.4975 69.3502C28.3589 69.3131 28.2144 69.3037 28.0721 69.3226C27.9299 69.3416 27.7929 69.3885 27.6688 69.4606L24.0953 71.53C22.8438 72.245 21.8355 73.3189 21.2007 74.6129L20.4081 76.2373L19.4887 74.6909C18.5862 73.1893 17.7663 71.6395 17.0327 70.0486L16.5552 69.0025L18.0495 68.5997C19.915 68.0983 21.5061 66.8788 22.4752 65.2079C23.4443 63.5369 23.7126 61.5503 23.2214 59.6821L22.6789 57.6582C22.6032 57.3823 22.4235 57.1465 22.1775 57.0005C21.9314 56.8544 21.6384 56.8095 21.3599 56.8753L21.3014 56.8915L17.3381 57.9441C16.4542 58.1836 15.624 58.5894 14.8918 59.1396L13.6346 60.0849L13.3487 58.5386C13.0791 57.0799 12.8712 55.5336 12.7315 53.945L12.6405 52.8859H15.5838C17.519 52.8833 19.3742 52.1134 20.7427 50.745C22.1111 49.3766 22.881 47.5214 22.8835 45.5862V43.5168C22.8801 43.2287 22.7633 42.9535 22.5583 42.751C22.3534 42.5485 22.0769 42.435 21.7887 42.435H17.663C16.5851 42.4439 15.5229 42.6936 14.554 43.1659L12.8744 43.9846L13.1636 42.1394C13.43 40.4306 13.7288 38.9394 14.0797 37.5912L14.3266 36.6394L17.52 37.4938C18.1333 37.6595 18.7657 37.7436 19.401 37.7439C21.0108 37.7361 22.5733 37.1987 23.8473 36.2147C25.1214 35.2307 26.0362 33.8547 26.4506 32.2992L26.9834 30.3012C27.0578 30.0212 27.0182 29.7231 26.8733 29.4723C26.7284 29.2214 26.4899 29.0382 26.2102 28.9628L22.2111 27.8907C21.3338 27.6558 20.4199 27.5896 19.5179 27.6958L17.637 27.9102L18.5531 26.2567C19.1508 25.1749 19.8525 24.0346 20.6972 22.7676L21.2072 22.0042L24.131 23.7065C25.8083 24.6712 27.7998 24.9315 29.6687 24.4304C31.5377 23.9292 33.1316 22.7074 34.1012 21.0328L35.1375 19.2396C35.2101 19.1158 35.2569 18.9786 35.2754 18.8363C35.2938 18.6939 35.2834 18.5494 35.2447 18.4112C35.1681 18.1362 34.9859 17.9027 34.7379 17.7614L31.1644 15.692C30.6104 15.3874 30.0198 15.1549 29.4068 15.0001L27.6038 14.5518L29.0008 13.3238C30.3731 12.1174 31.8124 10.9894 33.3117 9.94516L33.6204 9.73075L37.2751 10.2083C39.1946 10.4544 41.1334 9.92958 42.6667 8.74887C44.1999 7.56816 45.2027 5.82782 45.4552 3.90915L45.7249 1.84301C45.7617 1.55577 45.6833 1.26561 45.5067 1.03607C45.3302 0.806526 45.0698 0.656294 44.7827 0.618262L40.6797 0.0822347C39.7332 -0.0453271 38.7709 0.0148378 37.8476 0.259292C36.9244 0.503747 36.0584 0.9277 35.299 1.50693C34.5397 2.08617 33.9019 2.80933 33.4221 3.63511C32.9424 4.4609 32.63 5.37312 32.5028 6.31966L32.2819 7.95373L31.9311 8.20063C29.5493 9.87649 27.3148 11.7523 25.2518 13.8078L24.1343 14.9189L23.6372 13.4245C23.0851 11.7522 21.9384 10.3407 20.4146 9.45786L16.841 7.38847C16.5894 7.24382 16.2907 7.205 16.0105 7.28054C15.7302 7.35608 15.4915 7.53979 15.3467 7.7913L14.3103 9.58131C13.3452 11.2587 13.0843 13.2503 13.5848 15.1198C14.0853 16.9892 15.3065 18.584 16.9807 19.5547L19.2873 20.8996L18.7188 21.7638C17.5995 23.4655 16.583 25.2327 15.6748 27.0558L14.9828 28.4463L14.031 27.2183C13.069 25.9758 11.7293 25.0797 10.2138 24.6648L6.21793 23.609C5.93596 23.5341 5.63582 23.5738 5.38303 23.7195C5.13523 23.861 4.95316 24.0944 4.87623 24.3692L4.34346 26.3801C3.84805 28.2421 4.10717 30.2243 5.06455 31.8964C6.02193 33.5685 7.60027 34.7954 9.45684 35.3107L12.189 36.0449L11.9486 36.9772C11.4445 38.9527 11.0583 40.9563 10.792 42.9775L10.5874 44.5401L9.28791 43.6597C8.09225 42.8568 6.68357 42.4302 5.24333 42.435H1.0948C0.804439 42.435 0.525973 42.5503 0.320659 42.7556C0.115344 42.961 0 43.2394 0 43.5298V45.5992C0.00258028 47.535 0.772931 49.3907 2.14204 50.7592C3.51115 52.1277 5.3672 52.8972 7.30298 52.8989H10.4607L10.5354 53.7955C10.7193 56.0472 11.0536 58.284 11.536 60.491L11.9551 62.398L10.191 61.5761C8.67465 60.8844 6.96597 60.7375 5.35379 61.1602L1.35469 62.2258C1.0778 62.3013 0.841636 62.4825 0.697028 62.7304C0.55242 62.9783 0.510937 63.2731 0.58151 63.5513L1.11754 65.5524C1.62139 67.4122 2.83823 68.9982 4.50405 69.9664C6.16987 70.9346 8.15028 71.207 10.0156 70.7243L14.4338 69.5418L14.7587 70.3052C15.5247 72.0322 16.3858 73.7154 17.3381 75.3471L18.147 76.7376L16.5422 76.8123C15.4101 76.8659 14.3063 77.1841 13.3195 77.7414L9.74597 79.8075C9.51046 79.9426 9.33352 80.1603 9.24947 80.4184C9.16543 80.6765 9.18029 80.9567 9.29116 81.2045L9.34314 81.2792L9.38212 81.3831L10.3567 83.0952C11.3215 84.7703 12.9119 85.9938 14.7783 86.497C16.6447 87.0002 18.6346 86.7418 20.3106 85.7786L23.6015 83.8781L24.131 84.4401C25.3952 85.7839 26.7313 87.0581 28.1334 88.2573L29.553 89.4723L27.7435 89.9401C26.5725 90.2451 25.5011 90.8497 24.6346 91.6944L21.7108 94.6182C21.609 94.7196 21.5283 94.8401 21.4732 94.9728C21.4181 95.1054 21.3897 95.2477 21.3897 95.3914C21.3897 95.535 21.4181 95.6773 21.4732 95.8099C21.5283 95.9426 21.609 96.0631 21.7108 96.1645L23.1727 97.6264C24.5429 98.9933 26.3994 99.7609 28.3348 99.7609C30.2702 99.7609 32.1266 98.9933 33.4969 97.6264L36.8105 94.3128L37.4798 94.6409ZM34.6859 6.64777C34.8664 5.30858 35.5684 4.09481 36.6391 3.27046C37.7098 2.44612 39.0627 2.07788 40.4036 2.24584L43.4313 2.63893L43.2981 3.61353C43.1106 4.95082 42.4043 6.1606 41.332 6.98129C40.2596 7.80198 38.9073 8.16764 37.5675 7.99921L34.556 7.61587L34.6859 6.64777ZM23.2052 19.3468C23.582 18.8757 23.9621 18.4339 24.287 18.0473L24.3714 17.9596L24.4397 17.9044C25.2399 17.3018 26.1997 16.9478 27.1996 16.8866C28.1995 16.8253 29.1953 17.0595 30.0631 17.56L32.6977 19.0836L32.2137 19.9283C31.536 21.1013 30.4209 21.9576 29.1128 22.3096C27.8047 22.6616 26.4104 22.4805 25.2356 21.806L22.5035 20.2239L23.2052 19.3468ZM18.0593 17.6737C16.9261 17.0175 16.0878 15.9515 15.7173 14.6955C15.3468 13.4395 15.4723 12.0892 16.0679 10.923V9.4871L19.3165 11.3616C20.486 12.0409 21.3392 13.1553 21.6897 14.4615C22.0403 15.7677 21.8599 17.1596 21.1877 18.3332L20.6842 19.1876L18.0593 17.6737ZM15.3889 33.6279C15.6875 32.5099 16.3563 31.5262 17.2861 30.8373V30.8373L17.3673 30.7626L17.7734 30.5254C18.3545 30.1876 18.9968 29.9684 19.6631 29.8803C20.3294 29.7922 21.0066 29.837 21.6556 30.0121L24.5793 30.8015L24.3292 31.7404C24.0388 32.8276 23.3984 33.789 22.5071 34.476C21.6158 35.163 20.5231 35.5374 19.3977 35.5413C18.9591 35.5421 18.5222 35.4853 18.0983 35.3724H18.0658L15.142 34.5862L15.3889 33.6279ZM10.3502 50.6996H7.30948C5.95385 50.6978 4.65424 50.1586 3.69567 49.2C2.73709 48.2414 2.19781 46.9418 2.19609 45.5862V44.6116H5.24009C6.59541 44.6133 7.89469 45.1527 8.85275 46.1114C9.8108 47.07 10.3494 48.3696 10.3502 49.725V50.6996ZM10.0708 33.2088C9.42225 33.0354 8.8142 32.7358 8.28142 32.3273C7.74864 31.9188 7.30159 31.4093 6.9658 30.8279C6.63001 30.2466 6.41208 29.6047 6.32445 28.9391C6.23681 28.2735 6.28121 27.5971 6.45508 26.9486L6.70848 26.0065L9.63227 26.7927C10.8233 27.1154 11.8584 27.8559 12.5485 28.8789C13.2386 29.9018 13.5377 31.1389 13.391 32.3641L13.3715 32.4941L13.339 32.5818C13.2708 32.7702 13.1993 32.9554 13.1246 33.1503L12.7997 33.9592L10.0708 33.2088ZM9.49258 68.6192C9.05715 68.7364 8.60831 68.7964 8.15738 68.7978C7.03332 68.7959 5.94126 68.4234 5.05032 67.738C4.15939 67.0526 3.51929 66.0926 3.22917 65.0067L2.97577 64.0678L5.89956 63.2719C7.21032 62.9251 8.60503 63.1111 9.77915 63.7892C10.9533 64.4672 11.8114 65.5823 12.1662 66.8909L12.4196 67.833L9.49258 68.6192ZM12.5398 49.7315C12.5398 49.0588 12.6724 48.3928 12.9299 47.7714C13.1874 47.15 13.5648 46.5855 14.0405 46.11C14.5163 45.6345 15.0811 45.2575 15.7027 45.0004C16.3242 44.7433 16.9903 44.6112 17.663 44.6116H20.7069V45.5862C20.7052 46.9435 20.1646 48.2446 19.2039 49.2034C18.2432 50.1623 16.9411 50.7004 15.5838 50.6996H12.5398V49.7315ZM15.4181 66.1047C15.1128 65.2568 14.8204 64.4219 14.5605 63.5448L14.4565 63.1907L14.6092 62.8658C14.6214 62.8404 14.6323 62.8144 14.6417 62.7878C14.6881 62.6758 14.7424 62.5673 14.8041 62.463C15.4822 61.2897 16.5979 60.4333 17.9066 60.0817L20.8304 59.2923L21.0805 60.2344C21.4259 61.5378 21.2424 62.9248 20.5701 64.0935C19.8978 65.2623 18.7911 66.1183 17.4908 66.475L15.7138 66.9429L15.4181 66.1047ZM19.2483 83.8814C18.0771 84.5583 16.6854 84.7439 15.3777 84.3975C14.07 84.0511 12.9527 83.2009 12.2702 82.0329L11.7147 81.1947L14.4143 79.6354C15.5846 78.9616 16.9735 78.7772 18.279 79.1221C19.5846 79.4671 20.7012 80.3135 21.3859 81.4773L21.8797 82.361L19.2483 83.8814ZM24.0596 81.094L23.5365 80.4443C23.4456 80.3273 23.3578 80.2201 23.2669 80.1194L23.0622 79.866L22.9518 79.7133L22.9063 79.5834C22.5064 78.4582 22.5129 77.2285 22.9247 76.1076C23.3365 74.9868 24.1276 74.0453 25.1609 73.4467L27.7988 71.9263L28.2861 72.7677C28.9579 73.9388 29.1403 75.3279 28.7936 76.6328C28.4468 77.9377 27.5989 79.0529 26.4343 79.7361L24.0596 81.094ZM31.957 96.0768C31.0187 97.0154 29.7521 97.5523 28.4251 97.5742C27.098 97.596 25.8145 97.101 24.8457 96.1938L23.7704 95.6545L26.1939 93.2342C27.1625 92.3012 28.4551 91.78 29.7999 91.78C31.1448 91.78 32.4373 92.3012 33.4059 93.2342L34.1271 93.923L31.957 96.0768ZM35.4851 90.9569L35.5696 90.8172L35.4721 90.9504C35.0205 90.6775 34.556 90.3917 34.1044 90.0895L33.8185 89.8979L33.7146 89.573C33.4374 88.6871 33.4074 87.7423 33.6278 86.8406C33.8482 85.9389 34.3107 85.1145 34.9653 84.4564L37.1192 82.3025L37.8079 82.9912C38.6767 83.8598 39.2037 85.0122 39.2926 86.2375C39.3815 87.4628 39.0263 88.6791 38.2919 89.664L38.3212 89.7127L36.4727 91.5644L35.4851 90.9569Z" fill="#E4326C"/>
<path d="M87.3141 94.3051L90.6277 97.6187C91.9985 98.9858 93.8555 99.7534 95.7914 99.7534C97.7274 99.7534 99.5844 98.9858 100.955 97.6187L102.417 96.1568C102.621 95.9512 102.735 95.6733 102.735 95.3837C102.735 95.094 102.621 94.8161 102.417 94.6105L99.4933 91.6867C98.6251 90.8425 97.5528 90.238 96.3811 89.9324L94.5716 89.4646L95.9912 88.2496C97.3936 87.0497 98.7307 85.7754 99.9968 84.4324L100.526 83.8704L103.814 85.7709C105.49 86.7341 107.48 86.9925 109.346 86.4893C111.213 85.9861 112.803 84.7626 113.768 83.0875L114.742 81.3754L114.781 81.2715L114.837 81.1968C114.94 80.9672 114.961 80.7089 114.895 80.4658C114.815 80.1907 114.631 79.9577 114.382 79.8161L110.808 77.7499C109.821 77.1921 108.716 76.8739 107.582 76.8208L105.978 76.7461L106.787 75.3557C107.734 73.7285 108.59 72.0496 109.35 70.3268L109.675 69.5633L114.093 70.7458C115.958 71.2286 117.939 70.9564 119.606 69.9882C121.272 69.02 122.489 67.4339 122.994 65.574L123.569 63.5501C123.644 63.2701 123.604 62.972 123.459 62.7211C123.314 62.4702 123.076 62.287 122.796 62.2116L118.803 61.1461C117.19 60.7231 115.48 60.87 113.963 61.5619L112.199 62.3838L112.615 60.4768C113.1 58.2702 113.435 56.0332 113.618 53.7813L113.69 52.8847H116.851C118.786 52.8821 120.641 52.1122 122.01 50.7438C123.378 49.3754 124.148 47.5202 124.151 45.585V43.5156C124.151 43.2252 124.035 42.9468 123.83 42.7415C123.625 42.5361 123.346 42.4208 123.056 42.4208H118.898C117.455 42.4202 116.045 42.8513 114.85 43.6585L113.55 44.5389L113.346 42.9763C113.084 40.955 112.701 38.9513 112.199 36.976L111.962 36.0437L114.69 35.3095C116.548 34.7949 118.127 33.5683 119.085 31.8961C120.043 30.224 120.302 28.2413 119.807 26.3789L119.271 24.381C119.233 24.2445 119.168 24.1169 119.081 24.0054C118.993 23.8939 118.885 23.8007 118.761 23.7313C118.508 23.5853 118.208 23.5456 117.926 23.6208L113.934 24.6766C112.417 25.0915 111.076 25.9876 110.113 27.2301L109.161 28.4581L108.469 27.0676C107.564 25.2432 106.547 23.4759 105.425 21.7756L104.857 20.9114L107.183 19.5665C108.858 18.5964 110.079 17.0016 110.58 15.1319C111.081 13.2622 110.819 11.2703 109.853 9.59311L108.82 7.8031C108.749 7.67814 108.653 7.56868 108.538 7.48112C108.424 7.39355 108.293 7.32962 108.154 7.29306C108.016 7.25458 107.871 7.24424 107.729 7.26266C107.587 7.28107 107.45 7.32787 107.326 7.40026L103.752 9.46966C102.222 10.3457 101.066 11.7523 100.504 13.4233L100.007 14.9177L98.8793 13.8066C96.8131 11.7508 94.5753 9.87496 92.1903 8.19943L91.8394 7.95253L91.625 6.30222C91.3666 4.39069 90.3599 2.65995 88.826 1.49036C87.2921 0.320767 85.3566 -0.191982 83.4449 0.0647945L79.3451 0.600822C79.0598 0.641184 78.8019 0.792403 78.6273 1.02168C78.4528 1.25096 78.3757 1.5398 78.4127 1.82557L78.6824 3.89171C78.9341 5.81011 79.9362 7.55044 81.4689 8.73123C83.0017 9.91201 84.9401 10.4369 86.8592 10.1909L90.5107 9.71331L90.8356 9.92772C92.3344 10.9728 93.7736 12.1007 95.1466 13.3063L96.5435 14.5343L94.7372 14.9826C94.1252 15.1369 93.5355 15.3695 92.983 15.6746L89.3932 17.744C89.2686 17.8157 89.1594 17.9112 89.0719 18.0252C88.9843 18.1392 88.9201 18.2693 88.883 18.4082C88.8459 18.547 88.8365 18.6918 88.8555 18.8343C88.8745 18.9768 88.9214 19.1141 88.9936 19.2384L90.0267 21.0316C90.9962 22.7062 92.5902 23.928 94.4591 24.4292C96.3281 24.9304 98.3195 24.67 99.9968 23.7053L102.921 22.003L103.427 22.7664C104.275 24.0334 104.977 25.1737 105.575 26.2555L106.488 27.909L104.61 27.6946C103.708 27.5884 102.794 27.6546 101.917 27.8895L97.9209 28.9616C97.6406 29.0363 97.4013 29.2192 97.2557 29.4702C97.1102 29.7211 97.0701 30.0196 97.1445 30.3L97.6805 32.298C97.9267 33.2252 98.3536 34.0948 98.9365 34.8567C99.5195 35.6187 100.247 36.2581 101.078 36.7383C101.908 37.2184 102.825 37.5299 103.777 37.6549C104.728 37.7799 105.694 37.7159 106.621 37.4666L109.814 36.6122L110.058 37.564C110.409 38.9252 110.708 40.4164 110.977 42.1122L111.266 43.9574L109.6 43.1517C108.631 42.6794 107.569 42.4297 106.491 42.4208H102.352C102.062 42.4208 101.783 42.5361 101.578 42.7415C101.373 42.9468 101.257 43.2252 101.257 43.5156V45.585C101.26 47.5208 102.03 49.3765 103.399 50.745C104.768 52.1135 106.624 52.883 108.56 52.8847H111.484L111.393 53.9438C111.257 55.5324 111.049 57.0787 110.779 58.5374L110.493 60.0837L109.236 59.1384C108.503 58.5881 107.671 58.1824 106.787 57.9429L102.826 56.8806L102.771 56.8643C102.492 56.7985 102.199 56.8433 101.952 56.9893C101.706 57.1353 101.525 57.3711 101.449 57.6472L100.906 59.6712C100.417 61.5393 100.686 63.5251 101.655 65.1956C102.624 66.8661 104.214 68.0858 106.078 68.5887L107.573 68.9916L107.111 70.0474C106.385 71.6382 105.574 73.189 104.681 74.693L103.752 76.2198L102.96 74.5955C102.323 73.3028 101.315 72.2294 100.065 71.5125L96.4915 69.4431C96.3672 69.3709 96.2299 69.324 96.0875 69.305C95.945 69.286 95.8002 69.2954 95.6613 69.3325C95.5225 69.3696 95.3923 69.4338 95.2784 69.5214C95.1644 69.6089 95.0688 69.7181 94.9971 69.8427L93.9608 71.6717C92.9933 73.3489 92.7314 75.3417 93.2328 77.2119C93.7341 79.0822 94.9577 80.6768 96.6345 81.6451L98.5836 82.7756L97.7098 83.6722C96.5955 84.8134 95.4245 85.8976 94.2012 86.9209L92.983 87.9442L92.6256 86.3946C92.3237 85.0764 91.6573 83.8696 90.7024 82.9121L87.7786 79.9883C87.5702 79.7897 87.2933 79.6789 87.0054 79.6789C86.7175 79.6789 86.4407 79.7897 86.2323 79.9883L84.7671 81.4502C83.4161 82.815 82.6547 84.6556 82.6468 86.576C82.6389 88.4965 83.3851 90.3433 84.7249 91.7192L85.667 92.6775L84.4617 93.2753C79.8628 95.562 74.9273 97.0975 69.8428 97.8234L70.1027 100C75.8941 99.1976 81.501 97.3902 86.6708 94.6592L87.3141 94.3051ZM89.6044 7.61467L86.5734 7.99802C86.3654 8.02394 86.156 8.03696 85.9464 8.037C84.7066 8.034 83.5094 7.58494 82.5735 6.77192C81.6376 5.95889 81.0255 4.83621 80.8492 3.60908L80.716 2.63448L83.7438 2.24139C85.0865 2.07062 86.4423 2.43748 87.5158 3.26203C88.5892 4.08657 89.2932 5.30195 89.4744 6.64333L89.6044 7.61467ZM101.641 20.2292L98.9085 21.8113C97.7337 22.4858 96.3394 22.6669 95.0313 22.3149C93.7232 21.9629 92.608 21.1066 91.9304 19.9336L91.4431 19.0889L94.081 17.5653C94.9483 17.0651 95.9436 16.8311 96.9429 16.8923C97.9422 16.9535 98.9014 17.3073 99.7012 17.9097L99.7727 17.9649L99.8539 18.0689C100.179 18.4489 100.562 18.8908 100.936 19.3683L101.641 20.2292ZM103.457 19.1864L102.947 18.332C102.276 17.1578 102.096 15.7659 102.447 14.4599C102.798 13.1539 103.652 12.0398 104.821 11.3604L108.07 9.4859V10.9218C108.664 12.0877 108.789 13.4372 108.419 14.6924C108.048 15.9477 107.211 17.0131 106.078 17.6693L103.457 19.1864ZM109.005 34.5688L106.082 35.355H106.049C105.625 35.4679 105.188 35.5246 104.75 35.5239C103.624 35.521 102.531 35.147 101.639 34.4599C100.748 33.7727 100.108 32.8107 99.8181 31.723L99.568 30.7841L102.492 29.9947C103.143 29.8177 103.823 29.7719 104.493 29.86C105.162 29.9481 105.807 30.1684 106.39 30.508L106.796 30.7451L106.877 30.8198C107.805 31.51 108.473 32.4933 108.771 33.6104L109.005 34.5688ZM113.791 49.7238C113.792 48.3681 114.332 47.0685 115.29 46.11C116.249 45.1514 117.548 44.6121 118.904 44.6104H121.945V45.585C121.944 46.9403 121.405 48.2399 120.447 49.1986C119.489 50.1573 118.19 50.6967 116.835 50.6984H113.791V49.7238ZM111.338 33.9418L111.013 33.1329C110.938 32.938 110.867 32.7528 110.799 32.5644L110.766 32.4767L110.747 32.3467C110.604 31.1259 110.904 29.8945 111.591 28.8754C112.278 27.8563 113.307 27.1171 114.492 26.7915L117.432 26.0053L117.683 26.9474C117.856 27.5957 117.901 28.2718 117.814 28.9373C117.726 29.6028 117.508 30.2445 117.173 30.8258C116.838 31.4072 116.391 31.9167 115.858 32.3254C115.326 32.734 114.718 33.0338 114.07 33.2076L111.338 33.9418ZM111.708 67.8253L111.962 66.8832C112.316 65.5746 113.175 64.4595 114.349 63.7815C115.523 63.1034 116.918 62.9174 118.228 63.2642L121.152 64.0601L120.902 64.999C120.73 65.6485 120.431 66.2576 120.022 66.7912C119.614 67.3248 119.104 67.7723 118.522 68.108C117.94 68.4438 117.297 68.6611 116.63 68.7475C115.964 68.8339 115.287 68.7877 114.639 68.6115L111.708 67.8253ZM111.601 50.6984H108.56C107.205 50.6967 105.905 50.1574 104.946 49.1988C103.988 48.2402 103.449 46.9406 103.447 45.585V44.6104H106.491C107.846 44.6121 109.145 45.1515 110.104 46.1102C111.062 47.0688 111.6 48.3684 111.601 49.7238V50.6984ZM108.424 66.9417L106.65 66.4739C105.342 66.12 104.228 65.2619 103.552 64.0877C102.876 62.9135 102.693 61.5191 103.044 60.2104L103.297 59.2683L106.221 60.0578C107.531 60.4092 108.648 61.2656 109.327 62.439C109.387 62.544 109.44 62.6525 109.486 62.7639L109.519 62.8419L109.675 63.1667L109.6 63.5501C109.34 64.4272 109.044 65.2621 108.742 66.11L108.424 66.9417ZM102.277 82.3598L102.768 81.4761C103.453 80.3123 104.569 79.4659 105.875 79.1209C107.18 78.776 108.569 78.9604 109.74 79.6342L112.429 81.187L111.874 82.0252C111.193 83.1943 110.076 84.0455 108.769 84.3921C107.461 84.7387 106.069 84.5522 104.899 83.8737L102.277 82.3598ZM97.7292 79.7349C96.5565 79.0544 95.7016 77.9365 95.352 76.6265C95.0024 75.3165 95.1867 73.9213 95.8645 72.747L96.3518 71.9056L98.9865 73.426C100.02 74.0241 100.812 74.9653 101.224 76.0863C101.637 77.2072 101.644 78.4371 101.244 79.5627L101.199 79.6926L101.085 79.8453L100.88 80.0987C100.793 80.2059 100.702 80.3131 100.611 80.4236L100.091 81.0896L97.7292 79.7349ZM90.0137 93.9088L90.7349 93.22C91.7035 92.287 92.996 91.7658 94.3409 91.7658C95.6858 91.7658 96.9783 92.287 97.9469 93.22L100.367 95.6403L99.2919 96.1796C98.3231 97.0868 97.0396 97.5818 95.7125 97.56C94.3855 97.5381 93.1189 97.0012 92.1805 96.0626L90.0137 93.9088ZM87.6649 91.56L85.8197 89.7082L85.8457 89.6595C85.1126 88.6741 84.7582 87.4581 84.847 86.2332C84.9359 85.0082 85.4621 83.856 86.3297 82.9868L87.0184 82.2981L89.1723 84.4519C89.8295 85.1084 90.2944 85.9323 90.5166 86.8343C90.7388 87.7363 90.7098 88.6819 90.4328 89.5686L90.3321 89.8934L90.0462 90.0851C89.5914 90.3872 89.1268 90.6731 88.6752 90.946L88.581 90.8128L88.6655 90.9525L87.6649 91.56Z" fill="#E4326C"/>
</svg>
