<svg width="112" height="111" viewBox="0 0 112 111" fill="none" xmlns="http://www.w3.org/2000/svg">
<path d="M110.997 13.0191C110.94 12.8452 110.841 12.6883 110.708 12.5624C110.576 12.4365 110.414 12.3457 110.237 12.2981L99.766 9.50677L93.8723 0.456757C93.7649 0.314839 93.626 0.19974 93.4667 0.120491C93.3073 0.0412426 93.1318 0 92.9538 0C92.7758 0 92.6003 0.0412426 92.4409 0.120491C92.2816 0.19974 92.1427 0.314839 92.0353 0.456757L86.1297 9.50677L75.6586 12.2981C75.4815 12.3447 75.3191 12.4352 75.1862 12.5612C75.0534 12.6872 74.9545 12.8447 74.8987 13.0191C74.8427 13.1935 74.8309 13.3791 74.8643 13.5593C74.8977 13.7394 74.9753 13.9085 75.0901 14.0512L81.9053 22.4281V22.5448L81.3429 33.2073C81.3325 33.3908 81.3685 33.574 81.4475 33.7399C81.5266 33.9059 81.6461 34.0493 81.7951 34.1568C81.9442 34.2644 82.1179 34.3328 82.3003 34.3556C82.4826 34.3784 82.6678 34.3549 82.8387 34.2873L92.9508 30.419L103.066 34.2873C103.236 34.3538 103.42 34.376 103.601 34.3519C103.782 34.3279 103.954 34.2583 104.101 34.1497C104.249 34.0429 104.368 33.9007 104.447 33.7361C104.526 33.5714 104.562 33.3896 104.553 33.2073L103.984 22.4371L104.056 22.3473L110.803 14.0602C110.92 13.9171 111 13.7467 111.034 13.5646C111.068 13.3826 111.055 13.1949 110.997 13.0191V13.0191ZM102.022 21.378C101.847 21.5911 101.759 21.8627 101.776 22.1379L102.285 31.6396L93.3457 28.2231C93.0929 28.1288 92.8147 28.1288 92.5619 28.2231L83.6345 31.6396L84.1342 22.1379C84.1493 21.8657 84.0617 21.5977 83.8888 21.387L77.8754 13.9884L87.108 11.5262C87.3695 11.4573 87.5964 11.2943 87.7452 11.0685L92.9538 3.07453L98.1654 11.0685C98.3121 11.2956 98.5383 11.4599 98.7997 11.5292L108.035 13.9914L102.022 21.378Z" fill="#E4326C"/>
<path d="M73.5643 26.9757C73.5089 26.801 73.4102 26.6433 73.2773 26.5172C73.1444 26.3911 72.9817 26.3008 72.8044 26.2547L62.3333 23.4634L56.4485 14.4104C56.3411 14.2685 56.2023 14.1534 56.043 14.0741C55.8836 13.9949 55.7081 13.9536 55.5301 13.9536C55.3521 13.9536 55.1766 13.9949 55.0172 14.0741C54.8578 14.1534 54.719 14.2685 54.6116 14.4104L48.7119 23.4634L38.2408 26.2547C38.0641 26.3019 37.9021 26.3927 37.7695 26.5186C37.6369 26.6446 37.538 26.8018 37.4817 26.9758C37.4255 27.1499 37.4138 27.3352 37.4476 27.515C37.4814 27.6947 37.5597 27.8631 37.6754 28.0048L44.4906 36.3817V36.4954L43.9281 47.1549C43.9172 47.3387 43.9528 47.5222 44.0316 47.6886C44.1105 47.8549 44.2299 47.9987 44.379 48.1067C44.5281 48.2146 44.7021 48.2833 44.8847 48.3062C45.0673 48.3291 45.2528 48.3057 45.424 48.238L55.5391 44.3696L65.6511 48.238C65.8223 48.3014 66.0063 48.3221 66.1873 48.2981C66.3682 48.2741 66.5406 48.2062 66.6893 48.1003C66.8376 47.9933 66.9566 47.8505 67.035 47.6853C67.1135 47.52 67.1489 47.3376 67.138 47.1549L66.5696 36.3847L66.6444 36.2949L73.3878 27.9988C73.5003 27.8566 73.5754 27.6884 73.6062 27.5097C73.6371 27.331 73.6226 27.1474 73.5643 26.9757V26.9757ZM64.5891 35.3346C64.4166 35.5444 64.3291 35.8113 64.3437 36.0825L64.8464 45.5963L55.913 42.1827C55.6605 42.0871 55.3817 42.0871 55.1292 42.1827L46.1988 45.5992L46.6985 36.0855C46.7128 35.8148 46.6265 35.5484 46.4561 35.3376L40.4487 27.936L49.6842 25.4738C49.9454 25.4023 50.1711 25.2372 50.3185 25.0101L55.5301 17.0162L60.7387 25.0101C60.8866 25.238 61.1136 25.4032 61.3759 25.4738L70.6084 27.936L64.5891 35.3346Z" fill="#E4326C"/>
<path d="M36.1438 40.9291C36.0879 40.7547 35.989 40.5972 35.8562 40.4712C35.7234 40.3452 35.5609 40.2547 35.3839 40.208L24.9128 37.4168L19.022 28.3667C18.9227 28.2136 18.7866 28.0878 18.6262 28.0007C18.4658 27.9136 18.2861 27.8679 18.1036 27.8679C17.921 27.8679 17.7414 27.9136 17.581 28.0007C17.4206 28.0878 17.2845 28.2136 17.1851 28.3667L11.2854 37.4168L0.814324 40.208C0.63734 40.2554 0.475011 40.3462 0.342128 40.4723C0.209245 40.5985 0.110032 40.7558 0.0535277 40.9301C-0.0029767 41.1044 -0.014976 41.29 0.0186232 41.4701C0.0522224 41.6502 0.130352 41.819 0.245894 41.9612L7.06107 50.3381V50.4547L6.50461 61.1203C6.49344 61.3041 6.5289 61.4876 6.60771 61.654C6.68652 61.8204 6.80611 61.9641 6.95536 62.0719C7.10462 62.1797 7.2787 62.248 7.46142 62.2704C7.64414 62.2929 7.82958 62.2687 8.00048 62.2003L18.1036 58.338L28.2157 62.2063C28.3865 62.2705 28.5705 62.2917 28.7515 62.2683C28.9325 62.2448 29.105 62.1773 29.2538 62.0717C29.4018 61.9643 29.5204 61.8214 29.5988 61.6562C29.6772 61.4911 29.7129 61.3088 29.7026 61.1263L29.1371 50.356L29.2089 50.2663L35.9523 41.9732C36.0706 41.8299 36.1503 41.6588 36.1839 41.476C36.2174 41.2933 36.2036 41.105 36.1438 40.9291V40.9291ZM27.1685 49.288C26.9982 49.5001 26.911 49.7671 26.9232 50.0389L27.4258 59.5496L18.4955 56.1331C18.243 56.0375 17.9642 56.0375 17.7117 56.1331L8.78132 59.5496L9.28094 50.0389C9.29572 49.7672 9.20939 49.4997 9.03861 49.288L3.02522 41.8834L12.2577 39.4212C12.519 39.3517 12.7451 39.1875 12.892 38.9605L18.1036 30.9666L23.3032 38.9665C23.4521 39.1929 23.6788 39.3568 23.9405 39.4272L33.176 41.8834L27.1685 49.288Z" fill="#E4326C"/>
<path d="M28.0358 70.4094H7.99113C7.70329 70.4133 7.42842 70.5298 7.22542 70.7339C7.02243 70.9381 6.90745 71.2136 6.90513 71.5014V108.805H1.10415C0.823253 108.82 0.558702 108.942 0.365065 109.146C0.171428 109.35 0.0634766 109.621 0.0634766 109.902C0.0634766 110.183 0.171428 110.454 0.365065 110.658C0.558702 110.862 0.823253 110.984 1.10415 110.998H109.953C110.101 111.006 110.25 110.984 110.39 110.932C110.53 110.88 110.658 110.801 110.766 110.698C110.874 110.596 110.96 110.472 111.019 110.335C111.077 110.198 111.108 110.051 111.108 109.902C111.108 109.753 111.077 109.605 111.019 109.469C110.96 109.332 110.874 109.208 110.766 109.106C110.658 109.003 110.53 108.923 110.39 108.872C110.25 108.82 110.101 108.798 109.953 108.805H103.984V43.5855C103.983 43.2946 103.867 43.0157 103.662 42.81C103.456 42.6043 103.177 42.4883 102.886 42.4875H82.8414C82.5508 42.4883 82.2723 42.6044 82.067 42.8102C81.8617 43.016 81.7465 43.2948 81.7465 43.5855V108.805H66.5574V57.5509C66.5574 57.2605 66.442 56.982 66.2367 56.7767C66.0313 56.5713 65.7528 56.456 65.4624 56.456H45.4417C45.1513 56.456 44.8728 56.5713 44.6674 56.7767C44.4621 56.982 44.3467 57.2605 44.3467 57.5509V108.805H29.1308V71.5014C29.1292 71.2118 29.0132 70.9345 28.8081 70.73C28.603 70.5254 28.3254 70.4102 28.0358 70.4094V70.4094ZM26.9378 108.805H9.09808V72.6054H26.9378V108.805ZM83.9484 44.6925H101.791V108.805H83.9484V44.6925ZM46.5247 58.637H64.3645V108.805H46.5247V58.637Z" fill="#E4326C"/>
</svg>
