<svg width="109" height="114" viewBox="0 0 109 114" fill="none" xmlns="http://www.w3.org/2000/svg">
<path d="M78.0326 27.9048C71.5202 21.8771 62.9758 18.5242 54.102 18.5144C53.3832 18.5144 52.6602 18.5144 51.9415 18.5821C34.8561 19.5925 21.1784 32.6614 20.1299 48.9857C19.5961 57.1245 22.2496 65.1517 27.5289 71.3689C32.7248 77.4147 36.2337 84.7242 37.7015 92.5597L37.8241 93.1981L37.3083 93.5956C36.0342 94.5706 35.1993 96.0116 34.9868 97.6018C34.7744 99.1921 35.2018 100.802 36.1752 102.077C36.2711 102.207 36.3742 102.331 36.4838 102.449L37.1223 103.159L36.5008 103.853C35.7111 104.725 35.1918 105.807 35.0057 106.968C34.8197 108.13 34.9751 109.32 35.4529 110.395C35.9307 111.47 36.7105 112.383 37.6974 113.023C38.6843 113.663 39.8358 114.002 41.0121 114H67.2258C68.4023 114.003 69.5543 113.664 70.5419 113.025C71.5296 112.385 72.3103 111.473 72.7894 110.398C73.2685 109.324 73.4252 108.133 73.2407 106.971C73.0561 105.809 72.5382 104.726 71.7497 103.853L71.1113 103.147L71.7497 102.436C72.8258 101.246 73.3856 99.6771 73.3063 98.0744C73.2271 96.4716 72.5152 94.9658 71.3269 93.8873C71.2382 93.8027 71.1409 93.7224 71.0437 93.6463L70.5363 93.2235L70.6674 92.5851C72.3498 84.5679 75.9702 77.0848 81.2121 70.7896C85.7248 65.2086 88.1846 58.2474 88.1798 51.0701C88.1682 46.7193 87.2613 42.4174 85.5156 38.4321C83.7699 34.4468 81.2227 30.8634 78.0326 27.9048V27.9048ZM67.2089 111.357H41.0247C40.1131 111.357 39.2388 110.995 38.5941 110.351C37.9495 109.706 37.5874 108.832 37.5874 107.92C37.5874 107.008 37.9495 106.134 38.5941 105.489C39.2388 104.845 40.1131 104.483 41.0247 104.483H67.2089C68.1205 104.483 68.9948 104.845 69.6394 105.489C70.2841 106.134 70.6462 107.008 70.6462 107.92C70.6462 108.832 70.2841 109.706 69.6394 110.351C68.9948 110.995 68.1205 111.357 67.2089 111.357ZM70.6462 98.3986C70.6451 99.3099 70.2826 100.184 69.6382 100.828C68.9938 101.472 68.1202 101.835 67.2089 101.836H41.0247C40.1131 101.836 39.2388 101.474 38.5941 100.829C37.9495 100.185 37.5874 99.3102 37.5874 98.3986C37.5874 97.4869 37.9495 96.6126 38.5941 95.968C39.2388 95.3234 40.1131 94.9612 41.0247 94.9612H67.2089C68.1202 94.9623 68.9938 95.3248 69.6382 95.9692C70.2826 96.6136 70.6451 97.4873 70.6462 98.3986V98.3986ZM59.9367 64.0163V92.3145H48.3012V64.0163H59.9367ZM48.3857 61.3696L54.1189 50.1315L59.8521 61.3696H48.3857ZM79.0981 69.183C73.7581 75.6529 70.0232 83.2935 68.1982 91.4815L68.0122 92.3272H62.5834V61.2216C62.5826 61.0131 62.5333 60.8076 62.4397 60.6212C62.4397 60.6212 55.345 46.7153 55.2985 46.618C55.1825 46.4054 55.0113 46.228 54.803 46.1044C54.5947 45.9808 54.3569 45.9155 54.1147 45.9155C53.8725 45.9155 53.6347 45.9808 53.4264 46.1044C53.2181 46.228 53.0469 46.4054 52.9308 46.618L45.7982 60.6086C45.7025 60.7942 45.6532 61.0001 45.6544 61.2089V92.3018H40.3609L40.1918 91.4562C38.5864 83.401 34.9264 75.8975 29.5668 69.6734C24.7205 63.974 22.2836 56.6117 22.7724 49.1464C23.7364 34.1538 36.3401 22.1463 52.0937 21.2161C56.4826 20.9478 60.8804 21.5707 65.0222 23.0472C69.1639 24.5237 72.964 26.8233 76.1934 29.8074C79.1222 32.5203 81.4613 35.8069 83.0652 39.4627C84.669 43.1185 85.5034 47.0653 85.5162 51.0575C85.5205 57.6568 83.2543 64.0568 79.0981 69.183V69.183Z" fill="#E4326C"/>
<path d="M106.487 50.2329H98.6309C98.1678 50.2329 97.7237 50.4169 97.3962 50.7444C97.0687 51.0718 96.8848 51.516 96.8848 51.9791C96.8848 52.4422 97.0687 52.8863 97.3962 53.2138C97.7237 53.5413 98.1678 53.7253 98.6309 53.7253H106.487C106.95 53.7253 107.394 53.5413 107.721 53.2138C108.049 52.8863 108.233 52.4422 108.233 51.9791C108.233 51.516 108.049 51.0718 107.721 50.7444C107.394 50.4169 106.95 50.2329 106.487 50.2329V50.2329Z" fill="#E4326C"/>
<path d="M9.60183 50.2329H1.74617C1.28306 50.2329 0.838912 50.4169 0.511441 50.7444C0.183971 51.0718 0 51.516 0 51.9791C0 52.4422 0.183971 52.8863 0.511441 53.2138C0.838912 53.5413 1.28306 53.7253 1.74617 53.7253H9.60183C9.83114 53.7253 10.0582 53.6801 10.2701 53.5923C10.4819 53.5046 10.6744 53.376 10.8366 53.2138C10.9987 53.0517 11.1273 52.8592 11.2151 52.6473C11.3028 52.4355 11.348 52.2084 11.348 51.9791C11.348 51.7498 11.3028 51.5227 11.2151 51.3109C11.1273 51.099 10.9987 50.9065 10.8366 50.7444C10.6744 50.5822 10.4819 50.4536 10.2701 50.3658C10.0582 50.2781 9.83114 50.2329 9.60183 50.2329V50.2329Z" fill="#E4326C"/>
<path d="M55.8644 9.60183V1.74617C55.8644 1.28306 55.6804 0.838914 55.353 0.511443C55.0255 0.183972 54.5814 0 54.1182 0C53.6551 0 53.211 0.183972 52.8835 0.511443C52.556 0.838914 52.3721 1.28306 52.3721 1.74617V9.60183C52.3721 10.0649 52.556 10.5091 52.8835 10.8366C53.211 11.164 53.6551 11.348 54.1182 11.348C54.5814 11.348 55.0255 11.164 55.353 10.8366C55.6804 10.5091 55.8644 10.0649 55.8644 9.60183Z" fill="#E4326C"/>
<path d="M88.0741 77.7278C87.7433 77.4032 87.2971 77.2233 86.8336 77.2276C86.3702 77.232 85.9274 77.4203 85.6028 77.7511C85.2782 78.0819 85.0983 78.5281 85.1026 78.9915C85.107 79.455 85.2953 79.8977 85.6261 80.2223L90.8604 85.3594C91.1824 85.6705 91.6133 85.8435 92.0611 85.8414V85.8414C92.4048 85.8377 92.7398 85.7329 93.0243 85.54C93.3089 85.3472 93.5303 85.0748 93.6611 84.757C93.7918 84.4391 93.8261 84.0897 93.7596 83.7525C93.6932 83.4153 93.5289 83.1051 93.2872 82.8606L88.0741 77.7278Z" fill="#E4326C"/>
<path d="M19.9858 23.7317L14.7557 18.5946C14.4206 18.2779 13.978 18.0997 13.5169 18.0957C13.2877 18.0969 13.0609 18.1435 12.8498 18.2328C12.6386 18.322 12.4472 18.4522 12.2866 18.6158C11.9644 18.9469 11.7866 19.3923 11.7921 19.8543C11.7977 20.3163 11.9861 20.7573 12.3162 21.0807L17.5504 26.222C17.8853 26.5419 18.3322 26.7179 18.7953 26.7124C19.2584 26.7068 19.7009 26.5202 20.0281 26.1924C20.3437 25.8673 20.5202 25.432 20.5202 24.9789C20.5202 24.5258 20.3437 24.0906 20.0281 23.7655L19.9858 23.7317Z" fill="#E4326C"/>
<path d="M90.8688 26.2813L95.8663 20.9159C96.1682 20.5746 96.3247 20.1287 96.3024 19.6735C96.28 19.2183 96.0806 18.7899 95.7467 18.4798C95.4128 18.1696 94.9709 18.0023 94.5153 18.0135C94.0597 18.0247 93.6266 18.2136 93.3084 18.5398V18.5398L88.3066 23.9094C87.9933 24.2455 87.8255 24.6919 87.8397 25.1512C87.854 25.6105 88.0491 26.0456 88.3827 26.3616V26.3616C88.7231 26.6806 89.1762 26.8514 89.6424 26.8363C90.1086 26.8213 90.5498 26.6216 90.8688 26.2813V26.2813Z" fill="#E4326C"/>
<path d="M17.3768 85.3552L22.6068 80.2223C22.9376 79.8983 23.1261 79.4561 23.1308 78.993C23.1356 78.53 22.9562 78.084 22.6322 77.7532V77.7532C22.3114 77.4282 21.8763 77.2414 21.4197 77.2327C20.9632 77.2241 20.5213 77.3941 20.1884 77.7067L14.9245 82.8733C14.5937 83.1974 14.4052 83.6396 14.4005 84.1026C14.3957 84.5657 14.5751 85.0117 14.8991 85.3425C15.2285 85.668 15.6723 85.8516 16.1354 85.854C16.5984 85.8564 17.0441 85.6773 17.3768 85.3552V85.3552Z" fill="#E4326C"/>
</svg>
