<svg width="134" height="122" viewBox="0 0 134 122" fill="none" xmlns="http://www.w3.org/2000/svg">
<path d="M15.0737 63.0564L15.1183 63.2794C15.1694 63.5388 15.3094 63.7722 15.5142 63.9394C15.719 64.1067 15.9757 64.1972 16.24 64.1954C16.315 64.1959 16.3899 64.1878 16.463 64.1714C16.6094 64.1427 16.7486 64.0853 16.8728 64.0026C16.9969 63.9199 17.1035 63.8135 17.1864 63.6895C17.2693 63.5655 17.3268 63.4264 17.3558 63.28C17.3847 63.1337 17.3844 62.9831 17.355 62.8369L17.3104 62.6139C17.2441 62.3262 17.0684 62.0757 16.8205 61.9154C16.5726 61.7551 16.272 61.6976 15.9825 61.7552C15.693 61.8127 15.4372 61.9808 15.2695 62.2237C15.1017 62.4666 15.0352 62.7653 15.084 63.0564H15.0737Z" fill="#E4326C"/>
<path d="M15.0289 57.046C14.7337 57.1048 14.4739 57.2784 14.3067 57.5287C14.1394 57.7789 14.0784 58.0853 14.1369 58.3805L14.1815 58.6035C14.233 58.8605 14.3718 59.0918 14.5744 59.2581C14.777 59.4244 15.0309 59.5156 15.293 59.516C15.3689 59.516 15.4447 59.5091 15.5194 59.4954C15.6655 59.4663 15.8044 59.4087 15.9281 59.3258C16.0519 59.243 16.1581 59.1365 16.2406 59.0126C16.3231 58.8886 16.3804 58.7496 16.4091 58.6034C16.4378 58.4573 16.4374 58.3069 16.4079 58.1609L16.3668 57.938C16.3377 57.7915 16.2799 57.6521 16.1969 57.528C16.1139 57.4038 16.0072 57.2972 15.8829 57.2144C15.7586 57.1315 15.6192 57.074 15.4726 57.0451C15.3261 57.0162 15.1753 57.0165 15.0289 57.046V57.046Z" fill="#E4326C"/>
<path d="M14.0929 52.3703C13.9466 52.399 13.8073 52.4564 13.6832 52.5391C13.559 52.6218 13.4525 52.7282 13.3696 52.8522C13.2867 52.9762 13.2291 53.1153 13.2002 53.2617C13.1713 53.408 13.1715 53.5586 13.201 53.7048L13.2456 53.9278C13.2965 54.1851 13.4351 54.4168 13.6378 54.5832C13.8406 54.7496 14.0948 54.8405 14.3571 54.8403C14.4319 54.8403 14.5065 54.8334 14.5801 54.8197C14.8755 54.7601 15.1353 54.5858 15.3025 54.335C15.4696 54.0843 15.5306 53.7775 15.472 53.4818L15.4274 53.2588C15.3983 53.1128 15.3407 52.9739 15.2578 52.8501C15.175 52.7264 15.0685 52.6202 14.9446 52.5377C14.8206 52.4551 14.6816 52.3979 14.5354 52.3691C14.3893 52.3404 14.2389 52.3408 14.0929 52.3703V52.3703Z" fill="#E4326C"/>
<path d="M83.2145 30.8302L83.1391 31.0429C83.0914 31.1788 83.0728 31.3231 83.0844 31.4666C83.096 31.6101 83.1376 31.7495 83.2065 31.8759C83.2753 32.0023 83.3699 32.1129 83.4842 32.2005C83.5985 32.288 83.7298 32.3506 83.8698 32.3843C83.9732 32.4213 84.0824 32.4399 84.1922 32.4392C84.449 32.4284 84.6968 32.3415 84.9039 32.1893C85.111 32.0372 85.2682 31.8268 85.3552 31.585C85.4105 31.4431 85.4367 31.2916 85.4322 31.1394C85.4278 30.9873 85.3928 30.8375 85.3293 30.6992C85.2658 30.5608 85.1752 30.4366 85.0627 30.3339C84.9503 30.2313 84.8183 30.1523 84.6748 30.1017C84.5312 30.0511 84.3789 30.0299 84.2269 30.0393C84.075 30.0487 83.9265 30.0886 83.7903 30.1565C83.654 30.2245 83.5329 30.3192 83.434 30.4349C83.3351 30.5507 83.2604 30.6851 83.2145 30.8302V30.8302Z" fill="#E4326C"/>
<path d="M85.4645 27.8903C85.5681 27.9268 85.6771 27.9454 85.787 27.9451C86.0445 27.9339 86.2929 27.8464 86.5006 27.6937C86.7082 27.541 86.8658 27.33 86.9533 27.0875C87.053 26.8032 87.0356 26.4909 86.905 26.2194C86.8403 26.085 86.7498 25.9646 86.6386 25.8652C86.5274 25.7657 86.3977 25.6892 86.2569 25.6398C85.9726 25.5402 85.6604 25.5576 85.3889 25.6882C85.1174 25.8188 84.9089 26.0519 84.8093 26.3362L84.7338 26.5489C84.6861 26.6848 84.6675 26.8291 84.6791 26.9726C84.6907 27.116 84.7323 27.2555 84.8012 27.3819C84.87 27.5083 84.9647 27.6189 85.0789 27.7064C85.1932 27.794 85.3245 27.8566 85.4645 27.8903V27.8903Z" fill="#E4326C"/>
<path d="M80.0168 39.818L79.9447 40.0307C79.8971 40.1665 79.8785 40.3108 79.8901 40.4543C79.9017 40.5978 79.9433 40.7373 80.0121 40.8637C80.081 40.9901 80.1756 41.1006 80.2899 41.1882C80.4041 41.2758 80.5355 41.3384 80.6754 41.372C80.7789 41.4091 80.888 41.4277 80.9979 41.4269C81.2547 41.4162 81.5024 41.3292 81.7096 41.1771C81.9167 41.0249 82.0738 40.8145 82.1609 40.5727C82.2609 40.2884 82.244 39.976 82.1137 39.7041C81.9834 39.4323 81.7505 39.2234 81.4662 39.1233C81.1818 39.0232 80.8694 39.0402 80.5976 39.1705C80.3258 39.3008 80.1169 39.5337 80.0168 39.818V39.818Z" fill="#E4326C"/>
<path d="M81.6159 35.3241L81.5404 35.5368C81.4928 35.6726 81.4742 35.8169 81.4858 35.9604C81.4974 36.1039 81.539 36.2434 81.6078 36.3698C81.6767 36.4962 81.7713 36.6067 81.8856 36.6943C81.9998 36.7819 82.1312 36.8445 82.2711 36.8781C82.3746 36.9149 82.4838 36.9335 82.5936 36.933C82.8507 36.9221 83.0988 36.835 83.3065 36.683C83.5141 36.5309 83.6719 36.3206 83.76 36.0788C83.8095 35.938 83.8309 35.7889 83.8228 35.6398C83.8147 35.4908 83.7773 35.3448 83.7128 35.2102C83.6483 35.0757 83.5579 34.9551 83.4468 34.8554C83.3357 34.7558 83.2061 34.679 83.0653 34.6294C82.9245 34.5799 82.7754 34.5585 82.6263 34.5666C82.4773 34.5747 82.3313 34.6121 82.1967 34.6766C82.0621 34.7411 81.9416 34.8315 81.8419 34.9426C81.7423 35.0537 81.6655 35.1833 81.6159 35.3241V35.3241Z" fill="#E4326C"/>
<path d="M112.981 72.2228L112.961 72.4492C112.946 72.5984 112.961 72.7491 113.005 72.8925C113.049 73.0359 113.121 73.1691 113.216 73.2846C113.312 73.4001 113.43 73.4954 113.562 73.5652C113.695 73.635 113.84 73.6777 113.99 73.6911H114.103C114.385 73.6898 114.657 73.5839 114.865 73.3937C115.074 73.2036 115.204 72.9428 115.232 72.6619L115.252 72.4355C115.267 72.2863 115.252 72.1356 115.208 71.9922C115.164 71.8488 115.092 71.7156 114.996 71.6001C114.901 71.4846 114.783 71.3893 114.65 71.3195C114.518 71.2498 114.372 71.207 114.223 71.1936C113.923 71.1696 113.625 71.2637 113.393 71.4559C113.161 71.6481 113.013 71.9233 112.981 72.2228V72.2228Z" fill="#E4326C"/>
<path d="M114.545 68.8368C114.844 68.8142 115.124 68.6862 115.337 68.4756C115.549 68.265 115.68 67.9857 115.705 67.6876C115.732 67.3878 115.638 67.0898 115.445 66.8588C115.252 66.6279 114.976 66.483 114.676 66.456C114.377 66.433 114.081 66.5277 113.851 66.72C113.621 66.9123 113.475 67.1869 113.444 67.4852V67.7082C113.432 67.8506 113.449 67.9941 113.495 68.1295C113.542 68.2648 113.615 68.3891 113.712 68.4943C113.809 68.5995 113.927 68.6834 114.058 68.7406C114.189 68.7978 114.33 68.8271 114.473 68.8265L114.545 68.8368Z" fill="#E4326C"/>
<path d="M101.355 27.4992C101.531 27.7434 101.798 27.9076 102.095 27.9555C102.393 28.0035 102.697 27.9312 102.941 27.7547C103.186 27.5782 103.35 27.3119 103.398 27.0144C103.446 26.7168 103.373 26.4124 103.197 26.1681L103.063 25.9863C102.982 25.8523 102.874 25.7364 102.746 25.6461C102.618 25.5558 102.473 25.493 102.319 25.4616C102.166 25.4301 102.008 25.4308 101.854 25.4635C101.701 25.4963 101.556 25.5603 101.429 25.6517C101.302 25.7431 101.195 25.8599 101.115 25.9946C101.035 26.1293 100.984 26.2791 100.965 26.4346C100.945 26.5901 100.959 26.7479 101.003 26.898C101.048 27.0481 101.123 27.1874 101.224 27.3071L101.355 27.4992Z" fill="#E4326C"/>
<path d="M100.151 23.8765C100.395 23.6999 100.558 23.4338 100.606 23.1366C100.653 22.8394 100.581 22.5355 100.405 22.2916L100.271 22.1064C100.091 21.8726 99.8265 21.7183 99.5344 21.676C99.2422 21.6337 98.9451 21.7069 98.706 21.88C98.4669 22.0531 98.3046 22.3125 98.2535 22.6032C98.2024 22.894 98.2665 23.1932 98.4322 23.4374L98.5626 23.6227C98.6681 23.7686 98.8069 23.8873 98.9673 23.969C99.1278 24.0507 99.3053 24.0931 99.4854 24.0926C99.7246 24.0932 99.9577 24.0175 100.151 23.8765Z" fill="#E4326C"/>
<path d="M104.147 31.3687C104.327 31.6025 104.591 31.7568 104.884 31.7991C105.176 31.8414 105.473 31.7682 105.712 31.5951C105.951 31.422 106.113 31.1626 106.164 30.8719C106.216 30.5812 106.151 30.2819 105.986 30.0377L105.855 29.8524C105.679 29.6082 105.412 29.444 105.115 29.3961C104.817 29.3481 104.513 29.4204 104.269 29.5969C104.024 29.7734 103.86 30.0397 103.812 30.3372C103.764 30.6348 103.837 30.9392 104.013 31.1835L104.147 31.3687Z" fill="#E4326C"/>
<path d="M60.6273 92.2227C60.752 92.2758 60.8863 92.3027 61.0218 92.3016C61.2659 92.2934 61.5029 92.2171 61.706 92.0813C61.909 91.9455 62.0701 91.7557 62.171 91.5332C62.292 91.2571 62.2984 90.9442 62.1887 90.6633C62.079 90.3825 61.8622 90.1568 61.5861 90.0358C61.31 89.9148 60.9971 89.9084 60.7163 90.0181C60.4354 90.1278 60.2097 90.3445 60.0887 90.6207L59.9995 90.8299C59.9444 90.9621 59.917 91.1042 59.9191 91.2474C59.9211 91.3906 59.9525 91.5319 60.0114 91.6625C60.0702 91.793 60.1552 91.9101 60.2612 92.0065C60.3671 92.1029 60.4917 92.1765 60.6273 92.2227Z" fill="#E4326C"/>
<path d="M58.1848 94.9947L58.0921 95.204C58.0324 95.3407 58.0001 95.4879 57.9973 95.6371C57.9944 95.7862 58.021 95.9345 58.0755 96.0734C58.1299 96.2123 58.2113 96.3391 58.3148 96.4466C58.4183 96.5541 58.542 96.6401 58.6788 96.6997C58.8227 96.7622 58.9781 96.7938 59.135 96.7923C59.3544 96.7893 59.5683 96.7229 59.7509 96.6012C59.9334 96.4794 60.077 96.3076 60.1642 96.1062L60.2534 95.897C60.3206 95.7594 60.3593 95.6096 60.3672 95.4566C60.375 95.3037 60.3518 95.1507 60.299 95.0069C60.2462 94.8632 60.1649 94.7316 60.0599 94.6201C59.9549 94.5085 59.8284 94.4194 59.6881 94.3581C59.5478 94.2967 59.3965 94.2644 59.2433 94.263C59.0902 94.2616 58.9383 94.2912 58.7969 94.3501C58.6555 94.4089 58.5275 94.4957 58.4205 94.6054C58.3135 94.715 58.2299 94.8451 58.1745 94.9879L58.1848 94.9947Z" fill="#E4326C"/>
<path d="M40.1129 100.061C40.3458 100.062 40.5733 99.9906 40.7643 99.8574C40.9554 99.7242 41.1009 99.5354 41.181 99.3167C41.2612 99.0979 41.2721 98.8599 41.2124 98.6347C41.1526 98.4096 41.0251 98.2082 40.847 98.058L40.6721 97.914C40.5621 97.8212 40.4339 97.7526 40.2957 97.7125C40.1575 97.6723 40.0125 97.6616 39.87 97.681C39.7274 97.7004 39.5905 97.7495 39.4681 97.8251C39.3457 97.9006 39.2404 98.001 39.1592 98.1198C38.9765 98.3746 38.8975 98.6893 38.9382 99.0002C38.979 99.3111 39.1365 99.5948 39.3788 99.7939C39.5843 99.9669 39.8443 100.062 40.1129 100.061V100.061Z" fill="#E4326C"/>
<path d="M35.5095 95.0496C35.3269 95.3038 35.248 95.618 35.2888 95.9283C35.3296 96.2386 35.487 96.5218 35.729 96.7202C35.8383 96.8363 35.9708 96.9281 36.1178 96.9896C36.2649 97.0511 36.4233 97.0809 36.5827 97.0771C36.742 97.0734 36.8988 97.0361 37.0428 96.9677C37.1868 96.8994 37.3148 96.8015 37.4185 96.6804C37.5221 96.5593 37.5992 96.4177 37.6445 96.2649C37.6898 96.112 37.7025 95.9514 37.6816 95.7933C37.6607 95.6353 37.6068 95.4834 37.5234 95.3476C37.4399 95.2118 37.3288 95.095 37.1973 95.005L37.0258 94.8575C36.9155 94.7659 36.7876 94.698 36.65 94.658C36.5125 94.6179 36.3681 94.6065 36.2259 94.6245C36.0838 94.6425 35.9468 94.6895 35.8236 94.7627C35.7003 94.8358 35.5934 94.9334 35.5095 95.0496V95.0496Z" fill="#E4326C"/>
<path d="M24.8168 31.9314L24.6144 32.0344C24.3572 32.1749 24.1644 32.4094 24.0761 32.6889C23.9879 32.9683 24.0111 33.271 24.1409 33.5338C24.2707 33.7965 24.4971 33.9988 24.7727 34.0985C25.0482 34.1982 25.3517 34.1875 25.6195 34.0687L25.8253 33.9692C25.9591 33.903 26.0786 33.811 26.1769 33.6986C26.2751 33.5863 26.3503 33.4556 26.3981 33.3142C26.4459 33.1727 26.4653 33.0233 26.4553 32.8743C26.4454 32.7254 26.4061 32.5798 26.3399 32.446C26.2737 32.3122 26.1818 32.1928 26.0694 32.0945C25.957 31.9962 25.8264 31.9211 25.6849 31.8733C25.3993 31.7768 25.087 31.7977 24.8168 31.9314V31.9314Z" fill="#E4326C"/>
<path d="M29.0635 29.8043L28.8611 29.9073C28.5918 30.0437 28.3877 30.2816 28.2938 30.5685C28.1999 30.8555 28.2238 31.168 28.3602 31.4373C28.4967 31.7066 28.7346 31.9106 29.0215 32.0046C29.3085 32.0985 29.6209 32.0746 29.8903 31.9381L30.0927 31.8352C30.226 31.7676 30.3447 31.6745 30.4421 31.561C30.5394 31.4475 30.6135 31.316 30.66 31.1739C30.7065 31.0319 30.7245 30.882 30.7131 30.733C30.7017 30.5839 30.6611 30.4385 30.5935 30.3052C30.5259 30.1718 30.4328 30.0531 30.3193 29.9558C30.2058 29.8584 30.0743 29.7844 29.9322 29.7379C29.7902 29.6914 29.6403 29.6733 29.4913 29.6847C29.3422 29.6961 29.1969 29.7368 29.0635 29.8043V29.8043Z" fill="#E4326C"/>
<path d="M32.724 29.2486C32.827 29.4347 32.9797 29.5884 33.1651 29.6926C33.3505 29.7968 33.5612 29.8474 33.7737 29.8386C33.9722 29.8404 34.1684 29.7958 34.3466 29.7083C34.6159 29.5718 34.82 29.3339 34.9139 29.047C35.0079 28.76 34.984 28.4476 34.8475 28.1782C34.711 27.9089 34.4731 27.7049 34.1862 27.6109C33.8993 27.517 33.5868 27.5409 33.3175 27.6774L33.1151 27.7769C32.9878 27.8429 32.8757 27.9347 32.786 28.0465C32.6963 28.1583 32.6309 28.2877 32.5941 28.4262C32.5573 28.5648 32.5498 28.7095 32.5722 28.8511C32.5945 28.9927 32.6463 29.1281 32.724 29.2486V29.2486Z" fill="#E4326C"/>
<path d="M41.3545 40.4013C41.0865 40.2658 40.776 40.241 40.4899 40.3321C40.2037 40.4232 39.9648 40.623 39.8245 40.8885L39.7216 41.0909C39.6402 41.2244 39.5873 41.3732 39.5661 41.5281C39.545 41.6831 39.556 41.8407 39.5986 41.9911C39.6412 42.1415 39.7143 42.2815 39.8136 42.4024C39.9128 42.5232 40.0359 42.6223 40.1751 42.6933C40.3144 42.7644 40.4668 42.8059 40.6229 42.8153C40.7789 42.8247 40.9353 42.8018 41.082 42.748C41.2288 42.6941 41.3629 42.6106 41.4759 42.5025C41.5889 42.3945 41.6784 42.2643 41.7387 42.12L41.8451 41.9176C41.9788 41.6511 42.0023 41.3427 41.9105 41.059C41.8187 40.7753 41.619 40.5391 41.3545 40.4013V40.4013Z" fill="#E4326C"/>
<path d="M28.8237 64.8609C28.9849 64.9436 29.1639 64.9859 29.3451 64.9844C29.5548 64.9831 29.76 64.9237 29.938 64.8129C30.1161 64.7021 30.2599 64.5442 30.3537 64.3566L30.4566 64.1576C30.538 64.0241 30.5909 63.8753 30.612 63.7204C30.6332 63.5655 30.6222 63.4079 30.5796 63.2574C30.537 63.107 30.4638 62.967 30.3646 62.8461C30.2654 62.7253 30.1423 62.6262 30.003 62.5552C29.8638 62.4841 29.7113 62.4426 29.5553 62.4332C29.3992 62.4238 29.2429 62.4467 29.0961 62.5006C28.9493 62.5544 28.8152 62.6379 28.7022 62.746C28.5892 62.854 28.4998 62.9842 28.4394 63.1285L28.3331 63.3309C28.2648 63.4635 28.2232 63.6084 28.2109 63.7571C28.1986 63.9058 28.2157 64.0555 28.2613 64.1976C28.3068 64.3397 28.3799 64.4714 28.4764 64.5852C28.5729 64.699 28.6909 64.7927 28.8237 64.8609Z" fill="#E4326C"/>
<path d="M34.5145 53.7392C34.3815 53.6713 34.2364 53.6304 34.0875 53.6189C33.9386 53.6073 33.7889 53.6253 33.647 53.6719C33.5051 53.7184 33.3738 53.7926 33.2607 53.8901C33.1476 53.9876 33.0549 54.1066 32.988 54.2401L32.885 54.4425C32.8204 54.571 32.7835 54.7117 32.7766 54.8555C32.7697 54.9992 32.793 55.1428 32.8451 55.2769C32.8971 55.4111 32.9767 55.5329 33.0787 55.6343C33.1808 55.7358 33.3029 55.8148 33.4374 55.8661C33.5755 55.9363 33.7284 55.9728 33.8833 55.9725C34.1179 55.9662 34.3464 55.8973 34.5455 55.7731C34.7445 55.6489 34.9067 55.4737 35.0154 55.2658C35.0828 55.1327 35.1234 54.9876 35.1347 54.8388C35.146 54.69 35.1279 54.5405 35.0814 54.3987C35.0348 54.2569 34.9608 54.1257 34.8636 54.0125C34.7663 53.8994 34.6477 53.8065 34.5145 53.7392V53.7392Z" fill="#E4326C"/>
<path d="M30.7169 58.6824L30.6106 58.8848C30.533 59.0183 30.4836 59.1662 30.4651 59.3195C30.4467 59.4728 30.4597 59.6282 30.5034 59.7762C30.5471 59.9243 30.6205 60.0619 30.7191 60.1806C30.8178 60.2994 30.9396 60.3968 31.0772 60.4668C31.2147 60.5369 31.3651 60.5782 31.5192 60.5881C31.6732 60.5981 31.8277 60.5766 31.9731 60.5248C32.1186 60.4731 32.2519 60.3922 32.3651 60.2872C32.4782 60.1822 32.5687 60.0552 32.6311 59.914L32.7341 59.7116C32.8154 59.5781 32.8683 59.4292 32.8895 59.2743C32.9107 59.1194 32.8996 58.9618 32.857 58.8114C32.8145 58.6609 32.7413 58.5209 32.6421 58.4001C32.5429 58.2792 32.4198 58.1802 32.2805 58.1091C32.1412 58.0381 31.9888 57.9966 31.8328 57.9872C31.6767 57.9778 31.5204 58.0007 31.3736 58.0545C31.2268 58.1083 31.0927 58.1919 30.9797 58.2999C30.8667 58.408 30.7772 58.5382 30.7169 58.6824Z" fill="#E4326C"/>
<path d="M38.4522 47.2039C38.6609 47.204 38.8656 47.1463 39.0436 47.0374C39.2216 46.9284 39.366 46.7723 39.4608 46.5864L39.5672 46.384C39.6845 46.1185 39.6957 45.818 39.5984 45.5445C39.5011 45.2709 39.3026 45.045 39.0439 44.9132C38.7852 44.7815 38.4858 44.7538 38.2073 44.8359C37.9288 44.9181 37.6924 45.1038 37.5466 45.3549L37.4437 45.5573C37.3749 45.6898 37.333 45.8347 37.3204 45.9835C37.3079 46.1323 37.3249 46.2822 37.3705 46.4244C37.4161 46.5666 37.4894 46.6984 37.5861 46.8122C37.6829 46.926 37.8012 47.0195 37.9342 47.0873C38.0951 47.1671 38.2727 47.2071 38.4522 47.2039V47.2039Z" fill="#E4326C"/>
<path d="M35.7152 51.4202C35.8533 51.4904 36.0062 51.5268 36.1611 51.5266C36.3955 51.5196 36.6238 51.4504 36.8227 51.3263C37.0216 51.2021 37.184 51.0274 37.2932 50.8199C37.3608 50.6868 37.4015 50.5416 37.413 50.3928C37.4245 50.2439 37.4065 50.0943 37.3602 49.9524C37.3138 49.8104 37.24 49.679 37.1428 49.5657C37.0457 49.4523 36.9272 49.3592 36.7941 49.2916C36.6609 49.224 36.5158 49.1833 36.367 49.1718C36.2181 49.1603 36.0685 49.1783 35.9265 49.2246C35.7846 49.271 35.6532 49.3448 35.5399 49.442C35.4265 49.5391 35.3333 49.6576 35.2658 49.7907L35.1629 49.9931C35.0976 50.1219 35.0602 50.2629 35.053 50.407C35.0458 50.5511 35.069 50.6951 35.1211 50.8297C35.1732 50.9643 35.253 51.0864 35.3554 51.1881C35.4577 51.2899 35.5803 51.3689 35.7152 51.4202Z" fill="#E4326C"/>
<path d="M43.6328 35.9554C43.3652 35.8181 43.054 35.7922 42.7674 35.8835C42.4807 35.9748 42.2418 36.1758 42.1028 36.4426L41.9999 36.645C41.9185 36.7785 41.8656 36.9273 41.8444 37.0822C41.8233 37.2371 41.8343 37.3947 41.8769 37.5452C41.9195 37.6956 41.9927 37.8356 42.0919 37.9565C42.1911 38.0773 42.3142 38.1764 42.4534 38.2474C42.5927 38.3185 42.7451 38.36 42.9012 38.3694C43.0573 38.3788 43.2136 38.3559 43.3604 38.302C43.5071 38.2482 43.6412 38.1647 43.7542 38.0566C43.8672 37.9486 43.9567 37.8184 44.017 37.6741L44.1234 37.4717C44.2571 37.2052 44.2806 36.8968 44.1888 36.6131C44.097 36.3294 43.8973 36.0931 43.6328 35.9554V35.9554Z" fill="#E4326C"/>
<path d="M39.859 74.8986C39.5965 74.9773 39.3714 75.1483 39.2251 75.38C39.0788 75.6117 39.0213 75.8885 39.0631 76.1593C39.1049 76.4302 39.2432 76.6767 39.4525 76.8536C39.6618 77.0304 39.928 77.1256 40.202 77.1215C40.3182 77.124 40.434 77.1078 40.5451 77.0735L40.7646 77.0083C40.901 76.9661 41.027 76.896 41.1348 76.8024C41.2426 76.7089 41.3298 76.5939 41.3907 76.4649C41.4517 76.3358 41.4852 76.1955 41.489 76.0528C41.4928 75.9102 41.467 75.7683 41.413 75.6361C41.3007 75.3353 41.0756 75.09 40.7855 74.9523C40.4954 74.8146 40.1631 74.7953 39.859 74.8986V74.8986Z" fill="#E4326C"/>
<path d="M43.6843 74.9465C43.7539 75.1808 43.8975 75.3862 44.0935 75.5321C44.2895 75.6781 44.5274 75.7566 44.7718 75.7562C44.8879 75.7567 45.0034 75.7405 45.1148 75.7081L45.3344 75.6429C45.4707 75.6007 45.5968 75.5306 45.7046 75.4371C45.8124 75.3435 45.8995 75.2285 45.9605 75.0995C46.0215 74.9705 46.055 74.8301 46.0588 74.6875C46.0626 74.5448 46.0367 74.4029 45.9828 74.2707C45.8679 73.9794 45.6469 73.7424 45.3643 73.6074C45.0817 73.4725 44.7584 73.4496 44.4596 73.5435C44.3165 73.5845 44.1829 73.6534 44.0664 73.7462C43.9499 73.839 43.8529 73.9538 43.7809 74.0841C43.7088 74.2145 43.6632 74.3577 43.6467 74.5057C43.6301 74.6537 43.6429 74.8035 43.6843 74.9465V74.9465Z" fill="#E4326C"/>
<path d="M96.6648 54.6928C96.4248 54.7962 96.2278 54.9792 96.107 55.211C95.9862 55.4428 95.9491 55.7091 96.0019 55.9651C96.0547 56.221 96.1942 56.451 96.3969 56.616C96.5995 56.7811 96.8529 56.8712 97.1142 56.8711C97.2689 56.8726 97.4221 56.841 97.5636 56.7785L97.7729 56.6893C97.9049 56.6319 98.0234 56.5475 98.1208 56.4415C98.2181 56.3354 98.2921 56.2101 98.338 56.0737C98.384 55.9373 98.4007 55.7927 98.3873 55.6494C98.3739 55.5061 98.3305 55.3672 98.26 55.2417C98.1133 54.9649 97.8669 54.7543 97.5707 54.6524C97.2746 54.5505 96.9508 54.5649 96.6648 54.6928Z" fill="#E4326C"/>
<path d="M92.3532 38.1817C92.4944 38.2408 92.6461 38.2712 92.7992 38.2709C93.0602 38.2702 93.3131 38.1795 93.5151 38.0141C93.7171 37.8488 93.856 37.6189 93.9084 37.3631C93.9608 37.1074 93.9234 36.8414 93.8026 36.61C93.6818 36.3785 93.4849 36.1958 93.2451 36.0925L93.0359 36.0033C92.7588 35.885 92.4462 35.8817 92.1666 35.9939C91.8871 36.1062 91.6636 36.3249 91.5453 36.602C91.427 36.879 91.4237 37.1917 91.5359 37.4712C91.6482 37.7507 91.8669 37.9742 92.1439 38.0925L92.3532 38.1817Z" fill="#E4326C"/>
<path d="M97.6327 37.9724L97.4234 37.8832C97.292 37.8291 97.1507 37.8028 97.0085 37.8059C96.8664 37.8091 96.7264 37.8417 96.5975 37.9016C96.4686 37.9616 96.3535 38.0476 96.2595 38.1542C96.1654 38.2609 96.0945 38.3859 96.0512 38.5213C95.9517 38.8168 95.9671 39.139 96.0942 39.4237C96.2213 39.7084 96.4509 39.9349 96.7373 40.0582C96.8743 40.1172 97.0215 40.1487 97.1706 40.1508C97.3197 40.1529 97.4678 40.1256 97.6064 40.0705C97.745 40.0154 97.8713 39.9336 97.9783 39.8296C98.0852 39.7257 98.1706 39.6017 98.2296 39.4647C98.2885 39.3275 98.3198 39.1801 98.3217 39.0308C98.3236 38.8816 98.296 38.7334 98.2406 38.5948C98.1851 38.4562 98.1029 38.3299 97.9986 38.2231C97.8943 38.1163 97.7699 38.0311 97.6327 37.9724V37.9724Z" fill="#E4326C"/>
<path d="M88.4149 36.3946C88.6763 36.3947 88.9296 36.3046 89.1323 36.1395C89.3349 35.9744 89.4744 35.7445 89.5272 35.4885C89.58 35.2326 89.5429 34.9662 89.4221 34.7344C89.3014 34.5027 89.1044 34.3196 88.8643 34.2162L88.655 34.127C88.5238 34.0728 88.3828 34.0464 88.2408 34.0493C88.0988 34.0522 87.959 34.0845 87.8301 34.1441C87.7012 34.2037 87.586 34.2894 87.4919 34.3957C87.3977 34.5019 87.3265 34.6266 87.2828 34.7617C87.1832 35.0577 87.1984 35.3803 87.3255 35.6656C87.4526 35.9509 87.6823 36.1781 87.9689 36.302C88.1101 36.3616 88.2616 36.3931 88.4149 36.3946V36.3946Z" fill="#E4326C"/>
<path d="M76.0647 28.7272C75.9333 28.6731 75.792 28.6467 75.6499 28.6499C75.5077 28.6531 75.3678 28.6857 75.2388 28.7456C75.1099 28.8056 74.9948 28.8916 74.9008 28.9982C74.8068 29.1049 74.7359 29.2299 74.6925 29.3653C74.5914 29.6608 74.6059 29.9836 74.7333 30.2687C74.8606 30.5539 75.0912 30.7802 75.3786 30.9022C75.5201 30.9647 75.6734 30.9962 75.828 30.9948C76.0891 30.9941 76.3419 30.9034 76.544 30.7381C76.746 30.5727 76.8849 30.3428 76.9373 30.087C76.9896 29.8313 76.9523 29.5653 76.8314 29.3339C76.7106 29.1024 76.5138 28.9197 76.274 28.8164L76.0647 28.7272Z" fill="#E4326C"/>
<path d="M70.9877 29.0222C71.131 29.0828 71.285 29.1142 71.4405 29.1149C71.7019 29.1149 71.9553 29.0248 72.1579 28.8597C72.3605 28.6947 72.5 28.4648 72.5528 28.2088C72.6056 27.9528 72.5685 27.6865 72.4478 27.4547C72.327 27.2229 72.13 27.0399 71.8899 26.9365L71.6807 26.8473C71.5485 26.7902 71.4059 26.7615 71.2619 26.763C71.118 26.7645 70.976 26.7962 70.845 26.856C70.7141 26.9158 70.5971 27.0024 70.5018 27.1102C70.4064 27.218 70.3347 27.3447 70.2913 27.4819C70.1923 27.7792 70.209 28.1029 70.3381 28.3884C70.4672 28.6738 70.6991 28.9002 70.9877 29.0222V29.0222Z" fill="#E4326C"/>
<path d="M71.7217 43.3516C67.131 43.3516 62.6434 44.7129 58.8264 47.2633C55.0094 49.8138 52.0344 53.4388 50.2776 57.68C48.5208 61.9213 48.0611 66.5882 48.9567 71.0907C49.8523 75.5932 52.063 79.729 55.3091 82.9751C58.5552 86.2212 62.691 88.4318 67.1934 89.3274C71.6959 90.223 76.3629 89.7633 80.6041 88.0066C84.8453 86.2498 88.4704 83.2748 91.0208 79.4578C93.5713 75.6407 94.9326 71.1532 94.9326 66.5625C94.9262 60.4085 92.4787 54.5084 88.1272 50.1569C83.7757 45.8054 77.8756 43.3579 71.7217 43.3516V43.3516ZM85.4026 83.2931C81.5457 86.4594 76.71 88.19 71.7199 88.19C66.7299 88.19 61.8942 86.4594 58.0373 83.2931L57.7389 83.0496L58.0202 82.782C58.0509 82.7517 58.0842 82.7242 58.1196 82.6996C60.3186 79.7768 64.2088 76.9672 66.7954 76.4458C67.4084 76.3397 67.9779 76.0594 68.4359 75.6385C68.8939 75.2175 69.2212 74.6737 69.3786 74.0719C69.4975 73.2771 69.5514 72.474 69.5398 71.6705C69.5432 71.5461 69.5173 71.4226 69.4643 71.31C69.4113 71.1974 69.3326 71.0988 69.2345 71.0221C67.6628 69.7311 66.476 68.0329 65.804 66.1131C65.7556 65.9751 65.6701 65.8531 65.557 65.7605C65.4438 65.6679 65.3073 65.6083 65.1625 65.5882H65.0184L64.9327 65.4716C64.7347 65.1739 64.6036 64.8368 64.5484 64.4836C64.4789 64.1221 64.4894 63.7497 64.5793 63.3927L64.6239 63.2554L64.7508 63.1903C64.8892 63.1124 65.0046 62.9994 65.0853 62.8627C65.166 62.7259 65.2092 62.5703 65.2105 62.4115C65.2105 59.8524 65.2105 57.6397 66.0098 56.1131C66.5416 55.1148 67.7251 53.7906 71.756 53.7838C75.7285 53.7838 76.9018 55.1148 77.4266 56.1097C78.2362 57.626 78.2328 59.8592 78.2294 62.4424C78.2312 62.5908 78.2737 62.7358 78.3524 62.8617C78.431 62.9875 78.5427 63.0893 78.6753 63.156L78.8125 63.2211L78.8537 63.3687C78.9439 63.7151 78.9545 64.0775 78.8846 64.4287C78.8312 64.7877 78.7001 65.1307 78.5004 65.4338L78.4146 65.5539H78.2705C78.1256 65.5736 77.9889 65.6331 77.8757 65.7258C77.7625 65.8184 77.6771 65.9406 77.629 66.0788C76.9567 67.9984 75.77 69.6965 74.1985 70.9878C74.1017 71.0649 74.0239 71.1631 73.971 71.2749C73.918 71.3867 73.8914 71.5091 73.8932 71.6328C73.8846 72.4363 73.9397 73.2393 74.0578 74.0342C74.2142 74.6357 74.5402 75.1796 74.997 75.6011C75.4537 76.0226 76.022 76.3039 76.6342 76.4115C79.2242 76.9329 83.1144 79.7425 85.3134 82.6722C85.3482 82.6964 85.3814 82.7227 85.4129 82.7511L85.6907 83.0187L85.4026 83.2931ZM87.087 81.7597L86.8091 82.041L86.569 81.7254C84.1264 78.487 79.9035 75.4818 76.9635 74.8883C76.6457 74.8404 76.3487 74.701 76.1087 74.4872C75.8687 74.2734 75.6961 73.9944 75.6119 73.6842C75.5411 73.1797 75.5078 72.6706 75.5124 72.1611V71.9998L75.6325 71.8935C77.0825 70.5941 78.213 68.9775 78.936 67.1697L78.9841 67.053L79.0973 66.9947C79.7594 66.6517 80.2705 65.794 80.4695 64.6963C80.6685 63.5985 80.4523 62.6002 79.9275 62.0651L79.8314 61.9621V61.8249C79.8314 59.2898 79.7594 57.0496 78.8434 55.3309C77.7045 53.204 75.3683 52.168 71.6942 52.1611C68.075 52.1611 65.7628 53.2074 64.6273 55.3344C63.7148 57.0496 63.6394 59.2898 63.6394 61.8249V61.9553L63.5433 62.0548C63.0219 62.5934 62.8229 63.5848 63.0047 64.71C63.1865 65.8352 63.7148 66.6414 64.3769 66.9844L64.4901 67.0427L64.5381 67.1594C65.2535 68.9729 66.3782 70.5967 67.8246 71.9038L67.9447 72.0101V72.1714C67.9448 72.6807 67.9116 73.1895 67.8452 73.6945C67.7591 74.0074 67.5833 74.2881 67.3394 74.5021C67.0955 74.7161 66.7943 74.854 66.473 74.8986C63.5261 75.4921 59.3066 78.4938 56.8675 81.7322L56.6274 82.0513L56.3495 81.77C53.3501 78.7383 51.3146 74.8871 50.4994 70.701C49.6841 66.515 50.1256 62.1813 51.7681 58.2457C53.4106 54.31 56.1808 50.9482 59.7299 48.5836C63.2791 46.219 67.4484 44.9573 71.7131 44.9573C75.9778 44.9573 80.1471 46.219 83.6962 48.5836C87.2453 50.9482 90.0155 54.31 91.6581 58.2457C93.3006 62.1813 93.7421 66.515 92.9268 70.701C92.1116 74.8871 90.0761 78.7383 87.0767 81.77L87.087 81.7597Z" fill="#E4326C"/>
<path d="M68.7891 19.6398C68.7959 15.476 67.2571 11.4578 64.4708 8.36358C61.6845 5.26939 57.8489 3.31947 53.7071 2.89154C49.5653 2.46361 45.412 3.58813 42.0519 6.04727C38.6918 8.50641 36.364 12.1251 35.5194 16.2024C34.6748 20.2797 35.3735 24.5254 37.4803 28.117C39.587 31.7085 42.9517 34.3904 46.9227 35.643C50.8937 36.8956 55.1883 36.6298 58.9745 34.8971C62.7607 33.1644 65.7691 30.0881 67.4168 26.2642C68.3232 24.1734 68.7902 21.9186 68.7891 19.6398V19.6398ZM61.3174 31.6192C58.6559 33.7148 55.3669 34.8543 51.9795 34.8543C48.592 34.8543 45.3031 33.7148 42.6416 31.6192L42.3706 31.4065L42.5833 31.1355C44.1339 29.1527 46.796 27.2556 48.5112 26.9091C48.9926 26.83 49.4407 26.6133 49.8017 26.2852C50.1626 25.9571 50.421 25.5317 50.5455 25.0601C50.6386 24.4725 50.6799 23.8779 50.669 23.283C50.6721 23.1587 50.6461 23.0353 50.5931 22.9227C50.5401 22.8102 50.4616 22.7115 50.3637 22.6347C49.2761 21.7387 48.455 20.5617 47.9898 19.2316C47.9478 19.1116 47.8776 19.0034 47.7851 18.9162C47.6925 18.8291 47.5804 18.7654 47.4581 18.7307L47.314 18.6896L47.2454 18.5558C47.1763 18.4097 47.1267 18.2551 47.0979 18.0961C47.0689 17.9262 47.062 17.7532 47.0773 17.5815L47.0979 17.4306L47.2179 17.3448C47.3235 17.264 47.4092 17.1602 47.4687 17.0414C47.5281 16.9225 47.5597 16.7916 47.561 16.6587C47.561 14.8577 47.561 13.3071 48.1064 12.2711C48.4872 11.5541 49.2762 10.7308 52.0069 10.7273C54.7376 10.7239 55.4752 11.5541 55.8594 12.2711C56.4117 13.3002 56.4083 14.8783 56.4049 16.6999C56.4027 16.83 56.433 16.9586 56.4928 17.0742C56.5527 17.1898 56.6404 17.2887 56.7479 17.362L56.8749 17.4512L56.8954 17.6055C56.9124 17.7645 56.9066 17.9251 56.8783 18.0824C56.8514 18.2496 56.8018 18.4123 56.7308 18.5661L56.6622 18.7033L56.5181 18.7445C56.3969 18.7796 56.2858 18.843 56.1939 18.9295C56.1021 19.016 56.0321 19.123 55.9898 19.2419C55.5281 20.5674 54.7132 21.7417 53.633 22.6381C53.5328 22.7211 53.4534 22.8264 53.401 22.9455C53.3486 23.0646 53.3247 23.1943 53.3311 23.3242C53.3209 23.9052 53.361 24.486 53.4512 25.0601C53.5711 25.5331 53.8254 25.9614 54.1833 26.2931C54.5412 26.6249 54.9875 26.846 55.4683 26.9297C57.1836 27.2727 59.8354 29.1664 61.3894 31.1458L61.6021 31.4168L61.3174 31.6192ZM65.9829 25.6398C65.2676 27.2713 64.2713 28.7646 63.0395 30.0515L62.7685 30.3362L62.5215 30.0309C60.6827 27.7427 57.8423 25.7805 55.7668 25.3619C55.5837 25.3354 55.4121 25.2565 55.2728 25.1348C55.1334 25.0131 55.0322 24.8537 54.9812 24.6758C54.9363 24.3784 54.9145 24.0779 54.916 23.777V23.6227L55.0327 23.5163C56.0119 22.6025 56.785 21.4903 57.3002 20.2539L57.3448 20.1544L57.4375 20.0961C57.7207 19.8892 57.9583 19.6262 58.1354 19.3234C58.3125 19.0206 58.4252 18.6845 58.4666 18.3362C58.5458 17.996 58.5531 17.6431 58.4882 17.2999C58.4232 16.9567 58.2873 16.6308 58.0893 16.3431L58.0104 16.247V16.1235C58.0104 14.4083 57.952 12.7719 57.2762 11.5061C56.4049 9.9143 54.6622 9.12528 51.9555 9.12528C49.2488 9.12528 47.5644 9.9143 46.7102 11.5266C46.0241 12.7856 45.9795 14.4323 45.9795 16.1476V16.2711L45.9006 16.3637C45.7014 16.6554 45.5652 16.9855 45.5008 17.3328C45.4364 17.6801 45.4452 18.0371 45.5267 18.3808C45.5684 18.7215 45.6794 19.0501 45.8528 19.3462C46.0263 19.6424 46.2585 19.8999 46.5353 20.103L46.6279 20.1613L46.6725 20.2642C47.1878 21.5004 47.9622 22.6117 48.9435 23.5232L49.0601 23.6295V23.7839C49.0603 24.0776 49.0408 24.371 49.0018 24.6621C48.949 24.8408 48.8458 25.0005 48.7047 25.1221C48.5636 25.2438 48.3904 25.3223 48.2059 25.3482C46.1476 25.7667 43.2866 27.7496 41.4478 30.024L41.2008 30.3328L40.9401 30.0515C39.0623 28.0548 37.7593 25.5876 37.169 22.911C36.5788 20.2343 36.7233 17.4479 37.5872 14.8467C38.451 12.2454 40.0022 9.92619 42.0764 8.13444C44.1506 6.34269 46.6707 5.14512 49.3699 4.66852C52.0691 4.19191 54.8469 4.45399 57.4093 5.42703C59.9717 6.40006 62.2233 8.04784 63.9258 10.1959C65.6283 12.344 66.7183 14.9124 67.0804 17.6293C67.4426 20.3463 67.0633 23.1105 65.9829 25.6295V25.6398Z" fill="#E4326C"/>
<path d="M116.515 29.7632C113.19 29.7632 109.94 30.749 107.176 32.5961C104.411 34.4432 102.257 37.0685 100.985 40.14C99.7124 43.2115 99.3795 46.5914 100.028 49.8521C100.677 53.1129 102.278 56.108 104.628 58.4589C106.979 60.8097 109.975 62.4107 113.235 63.0593C116.496 63.7079 119.876 63.375 122.947 62.1027C126.019 60.8305 128.644 58.6759 130.491 55.9116C132.338 53.1473 133.324 49.8974 133.324 46.5727C133.324 42.1146 131.553 37.839 128.401 34.6866C125.248 31.5342 120.973 29.7632 116.515 29.7632V29.7632ZM125.859 58.5556C123.195 60.6491 119.905 61.7872 116.516 61.7872C113.128 61.7872 109.838 60.6491 107.173 58.5556L106.902 58.3463L107.112 58.0753C108.662 56.089 111.324 54.1919 113.043 53.8454C113.523 53.7616 113.969 53.5409 114.327 53.2098C114.685 52.8788 114.939 52.4515 115.06 51.9792C115.153 51.394 115.195 50.8016 115.184 50.2091C115.186 50.0852 115.16 49.9625 115.107 49.8505C115.054 49.7385 114.976 49.6405 114.878 49.5642C113.791 48.6677 112.97 47.4909 112.504 46.1611C112.463 46.042 112.394 45.9344 112.302 45.8474C112.211 45.7603 112.1 45.6961 111.979 45.6602L111.832 45.6191L111.767 45.4853C111.695 45.3377 111.646 45.1806 111.619 45.0187C111.595 44.8504 111.595 44.6794 111.619 44.511V44.3635L111.739 44.2777C111.844 44.1962 111.929 44.0923 111.989 43.9736C112.048 43.8549 112.08 43.7243 112.082 43.5916C112.082 41.7872 112.082 40.2366 112.628 39.1971C113.009 38.4801 113.798 37.6568 116.532 37.6534C119.266 37.65 120 38.4801 120.381 39.2005C120.937 40.2297 120.933 41.8077 120.93 43.6259C120.928 43.7561 120.958 43.8847 121.018 44.0003C121.078 44.1158 121.165 44.2147 121.273 44.288L121.403 44.3806L121.42 44.5384C121.451 44.8657 121.393 45.1952 121.252 45.4921L121.187 45.6293L121.039 45.6705C120.921 45.7086 120.813 45.7741 120.724 45.8617C120.635 45.9493 120.568 46.0566 120.528 46.1748C120.06 47.5042 119.238 48.6807 118.151 49.5779C118.054 49.6551 117.977 49.7533 117.924 49.8651C117.871 49.9768 117.844 50.0992 117.846 50.2228C117.84 50.8152 117.881 51.4072 117.969 51.993C118.091 52.4648 118.346 52.8917 118.703 53.2226C119.061 53.5535 119.506 53.7745 119.986 53.8592C121.702 54.2022 124.367 56.1027 125.918 58.089L126.127 58.3566L125.859 58.5556ZM127.575 56.9878L127.307 57.276L127.06 56.9672C125.221 54.6791 122.377 52.7099 120.299 52.2914C120.116 52.2627 119.945 52.1831 119.805 52.0618C119.666 51.9404 119.563 51.7822 119.509 51.6053C119.467 51.3064 119.446 51.005 119.444 50.7031V50.5453L119.561 50.4389C120.542 49.5274 121.317 48.4161 121.832 47.1799L121.873 47.077L121.969 47.0221C122.25 46.8142 122.485 46.5506 122.659 46.2478C122.833 45.945 122.943 45.6095 122.981 45.2623C123.062 44.9218 123.07 44.5682 123.006 44.2243C122.942 43.8804 122.806 43.5538 122.607 43.2657L122.528 43.1731V43.0496C122.528 41.3343 122.47 39.698 121.798 38.4321C120.94 36.8301 119.204 36.0513 116.487 36.0479C113.77 36.0445 112.096 36.8301 111.242 38.4321C110.556 39.6911 110.515 41.3343 110.511 43.0496V43.1731L110.432 43.2691C110.074 43.8682 109.942 44.5754 110.059 45.2634C110.176 45.9514 110.534 46.5751 111.07 47.0221L111.163 47.0805L111.208 47.1834C111.724 48.4181 112.498 49.5281 113.479 50.4389L113.595 50.5453V50.7031C113.596 50.9968 113.576 51.2902 113.537 51.5813C113.484 51.7602 113.381 51.9201 113.24 52.0418C113.099 52.1636 112.926 52.2419 112.741 52.2674C110.662 52.6859 107.818 54.6688 105.983 56.9466L105.736 57.252L105.465 56.9672C103.423 54.8063 102.058 52.0945 101.54 49.1668C101.022 46.2391 101.373 43.2237 102.549 40.4932C103.726 37.7626 105.676 35.4365 108.16 33.8021C110.644 32.1678 113.552 31.2968 116.525 31.2968C119.498 31.2968 122.406 32.1678 124.89 33.8021C127.374 35.4365 129.324 37.7626 130.501 40.4932C131.677 43.2237 132.028 46.2391 131.51 49.1668C130.992 52.0945 129.627 54.8063 127.585 56.9672L127.575 56.9878Z" fill="#E4326C"/>
<path d="M20.0342 65.2246C16.7096 65.2246 13.4596 66.2105 10.6953 68.0575C7.93097 69.9046 5.77644 72.5299 4.50417 75.6014C3.23189 78.673 2.89901 82.0528 3.54761 85.3135C4.19621 88.5743 5.79716 91.5695 8.14802 93.9203C10.4989 96.2712 13.4941 97.8721 16.7548 98.5207C20.0155 99.1693 23.3954 98.8365 26.4669 97.5642C29.5385 96.2919 32.1638 94.1374 34.0108 91.3731C35.8579 88.6087 36.8437 85.3588 36.8437 82.0342C36.8437 77.576 35.0727 73.3004 31.9203 70.148C28.7679 66.9956 24.4923 65.2246 20.0342 65.2246V65.2246ZM29.3755 94.017C26.7115 96.1097 23.4219 97.2473 20.0342 97.2473C16.6465 97.2473 13.3569 96.1097 10.6929 94.017L10.4219 93.8077L10.6311 93.5367C12.1851 91.5539 14.8438 89.6568 16.5625 89.3103C17.0412 89.2254 17.4855 89.0051 17.843 88.6756C18.2004 88.3461 18.4561 87.9212 18.5796 87.451C18.6707 86.8632 18.712 86.2687 18.7031 85.674C18.7047 85.5495 18.6778 85.4262 18.6242 85.3138C18.5707 85.2014 18.4921 85.1028 18.3944 85.0256C17.3078 84.1287 16.487 82.952 16.0205 81.6225C15.9792 81.5036 15.91 81.3964 15.8187 81.3098C15.7273 81.2232 15.6165 81.1599 15.4956 81.1251L15.3515 81.0839L15.2829 80.9501C15.2138 80.804 15.1642 80.6495 15.1354 80.4904C15.1053 80.3206 15.0995 80.1473 15.1182 79.9759L15.1354 79.8249L15.2555 79.7391C15.3627 79.6561 15.4494 79.5494 15.5089 79.4275C15.5684 79.3055 15.5991 79.1716 15.5985 79.0359C15.5985 77.2349 15.5985 75.6843 16.144 74.6483C16.5282 73.9347 17.3138 73.1114 20.0445 73.1045C22.7752 73.0977 23.5127 73.9347 23.8969 74.6517C24.4733 75.6774 24.4733 77.2555 24.4733 79.0771C24.472 79.207 24.5027 79.3353 24.5625 79.4508C24.6223 79.5662 24.7094 79.6652 24.8163 79.7391L24.9467 79.8283V79.9827C24.9698 80.1408 24.9698 80.3014 24.9467 80.4596C24.9181 80.6283 24.8662 80.7923 24.7923 80.9467L24.7237 81.0805L24.5796 81.1216C24.4593 81.1569 24.3492 81.2205 24.2585 81.307C24.1678 81.3936 24.0991 81.5006 24.0582 81.6191C23.5917 82.9494 22.7694 84.1264 21.6808 85.0221C21.5817 85.106 21.5029 85.2114 21.4506 85.3303C21.3983 85.4492 21.3738 85.5785 21.3789 85.7083C21.3687 86.2904 21.4089 86.8723 21.499 87.4475C21.6205 87.9198 21.8752 88.3472 22.2329 88.6787C22.5905 89.0102 23.036 89.2318 23.5162 89.3172C25.2314 89.6602 27.8935 91.5607 29.4475 93.5436L29.6568 93.8146L29.3755 94.017ZM31.0907 92.4492L30.8197 92.7374L30.5727 92.4286C28.7374 90.1371 25.8935 88.1714 23.8146 87.7529C23.6306 87.7278 23.4579 87.6494 23.3177 87.5276C23.1775 87.4057 23.076 87.2455 23.0256 87.0667C22.9806 86.7704 22.9588 86.4711 22.9604 86.1714V86.0136L23.077 85.9107C24.0583 84.9978 24.8327 83.8854 25.3481 82.6482L25.3892 82.5487L25.4818 82.4904C25.7648 82.2824 26.0021 82.0187 26.1791 81.7154C26.3561 81.4121 26.4691 81.0758 26.511 80.7271C26.5888 80.3874 26.5955 80.0352 26.5306 79.6928C26.4656 79.3504 26.3305 79.0251 26.1336 78.7374L26.0547 78.6448V78.5179C26.0547 76.8026 25.9999 75.1663 25.324 73.9004C24.4664 72.3018 22.734 71.523 20.017 71.5162C17.3 71.5093 15.626 72.3018 14.7718 73.9004C14.0856 75.1594 14.0411 76.806 14.0411 78.5213V78.6448L13.9622 78.7374C13.6016 79.3355 13.4673 80.043 13.5838 80.7316C13.7002 81.4202 14.0596 82.0442 14.5968 82.4904L14.6929 82.5487L14.734 82.6482C15.2509 83.8846 16.0251 84.9967 17.005 85.9107L17.1217 86.0136V86.1714C17.1215 86.4652 17.1009 86.7586 17.0599 87.0496C17.0095 87.2355 16.9044 87.402 16.7582 87.5274C16.612 87.6528 16.4314 87.7314 16.24 87.7529C14.1611 88.1714 11.3172 90.1371 9.48189 92.4286L9.23489 92.734L8.96388 92.4492C6.92166 90.2884 5.55718 87.5766 5.03899 84.6488C4.5208 81.7211 4.8716 78.7057 6.04806 75.9752C7.22451 73.2446 9.17508 70.9185 11.6588 69.2841C14.1426 67.6498 17.0507 66.7788 20.0239 66.7788C22.9971 66.7788 25.9052 67.6498 28.3889 69.2841C30.8727 70.9185 32.8233 73.2446 33.9997 75.9752C35.1762 78.7057 35.527 81.7211 35.0088 84.6488C34.4906 87.5766 33.1261 90.2884 31.0839 92.4492H31.0907Z" fill="#E4326C"/>
<path d="M52.9467 98.1438C50.658 98.1431 48.4205 98.8212 46.5171 100.092C44.6138 101.363 43.1302 103.17 42.2539 105.284C41.3775 107.399 41.1479 109.725 41.594 111.97C42.0401 114.215 43.1419 116.277 44.76 117.896C46.3781 119.514 48.4399 120.617 50.6845 121.064C52.9292 121.51 55.256 121.281 57.3705 120.406C59.4851 119.53 61.2924 118.047 62.564 116.144C63.8357 114.241 64.5144 112.004 64.5144 109.715C64.5098 106.648 63.2898 103.708 61.1215 101.539C58.9532 99.3702 56.0135 98.1492 52.9467 98.1438V98.1438ZM58.7374 117.818C57.0542 119.041 55.0271 119.699 52.9467 119.699C50.8662 119.699 48.8391 119.041 47.1559 117.818L46.8472 117.598L47.0976 117.314C48.1576 116.096 49.6534 115.067 50.6551 114.864C51.025 114.801 51.3688 114.633 51.6452 114.379C51.9215 114.125 52.1186 113.797 52.2125 113.434C52.2829 113.017 52.3151 112.594 52.3086 112.171C52.3119 112.047 52.2861 111.923 52.233 111.811C52.18 111.698 52.1013 111.6 52.0033 111.523C51.3087 110.951 50.7842 110.2 50.487 109.351C50.4213 109.164 50.288 109.007 50.113 108.912L49.969 108.833L49.8866 108.394L50.0033 108.267C50.1474 108.113 50.2271 107.909 50.2263 107.698C50.2263 106.326 50.2263 105.125 50.7992 104.538C51.1868 104.151 51.8935 103.962 52.9604 103.962C54.0273 103.962 54.7031 104.151 55.0907 104.538C55.6705 105.125 55.6671 106.329 55.6636 107.725C55.662 107.929 55.7395 108.126 55.8798 108.274L55.993 108.394L55.9724 108.559C55.9724 108.597 55.9724 108.641 55.9484 108.679L55.9175 108.837L55.7768 108.912C55.6018 109.008 55.4677 109.164 55.3995 109.351C55.1048 110.201 54.5812 110.952 53.8866 111.523C53.787 111.617 53.7085 111.732 53.6565 111.859C53.6045 111.986 53.58 112.123 53.5847 112.26C53.5786 112.645 53.6073 113.03 53.6705 113.41C53.7626 113.777 53.959 114.109 54.236 114.368C54.5129 114.626 54.8586 114.798 55.2314 114.864C56.2331 115.067 57.7322 116.096 58.7957 117.31L59.0427 117.595L58.7374 117.818ZM60.4732 116.202L60.2194 116.501L59.9586 116.209C58.9295 115.077 57.1696 113.643 55.499 113.32L55.2588 113.276L55.2245 113.032C55.2074 112.911 55.1983 112.788 55.1971 112.665V112.511L55.3069 112.408C55.9115 111.82 56.3972 111.121 56.7374 110.35L56.7751 110.264L56.8506 110.209C57.2473 109.877 57.5045 109.408 57.571 108.895C57.6768 108.398 57.5897 107.879 57.3274 107.444L57.2691 107.355V107.238C57.2691 105.715 57.1834 104.377 56.24 103.423C55.5539 102.737 54.4664 102.394 52.9501 102.394C51.4338 102.394 50.4012 102.737 49.7048 103.423C48.7546 104.377 48.6757 105.715 48.6757 107.238V107.344L48.6173 107.43C48.3541 107.872 48.2683 108.396 48.3772 108.898C48.441 109.407 48.6977 109.871 49.0942 110.195L49.1697 110.25L49.2074 110.336C49.5445 111.108 50.028 111.806 50.6311 112.394L50.7477 112.511V112.675C50.7407 112.839 50.6986 112.999 50.6242 113.145L50.5453 113.279L50.3943 113.31C48.854 113.619 47.0667 114.988 45.9793 116.206L45.7185 116.497L45.4647 116.199C44.2053 114.754 43.3883 112.977 43.1115 111.08C42.8346 109.183 43.1094 107.247 43.9032 105.502C44.697 103.757 45.9762 102.278 47.588 101.24C49.1998 100.203 51.0761 99.6511 52.993 99.6511C54.9098 99.6511 56.7862 100.203 58.398 101.24C60.0098 102.278 61.2889 103.757 62.0827 105.502C62.8765 107.247 63.1514 109.183 62.8745 111.08C62.5976 112.977 61.7807 114.754 60.5212 116.199L60.4732 116.202Z" fill="#E4326C"/>
<path d="M91.2626 0C88.974 0 86.7368 0.678636 84.834 1.95009C82.9311 3.22154 81.448 5.02871 80.5722 7.14306C79.6964 9.25741 79.4673 11.584 79.9137 13.8286C80.3602 16.0732 81.4623 18.1349 83.0805 19.7532C84.6988 21.3714 86.7606 22.4735 89.0051 22.92C91.2497 23.3664 93.5763 23.1373 95.6906 22.2615C97.805 21.3857 99.6122 19.9026 100.884 17.9997C102.155 16.0969 102.834 13.8597 102.834 11.5712C102.83 8.50341 101.61 5.56235 99.4406 3.39312C97.2714 1.2239 94.3303 0.00363155 91.2626 0V0ZM97.0533 19.6775C95.3697 20.8992 93.3428 21.5572 91.2626 21.5572C89.1824 21.5572 87.1554 20.8992 85.4718 19.6775L85.1665 19.4579L85.4135 19.1732C86.4736 17.9588 87.9727 16.9296 88.9778 16.7272C89.3489 16.6607 89.6931 16.4888 89.9692 16.2322C90.2454 15.9755 90.4419 15.6448 90.5353 15.2795C90.6027 14.8669 90.6326 14.4489 90.6245 14.0308C90.6278 13.9069 90.6019 13.7839 90.5489 13.6719C90.4958 13.5598 90.4172 13.4618 90.3192 13.3859C89.6257 12.8127 89.1025 12.0605 88.8063 11.2109C88.7391 11.0238 88.6045 10.8685 88.4289 10.7753L88.2849 10.6964L88.2025 10.2573L88.3192 10.1303C88.4627 9.97543 88.5423 9.77202 88.5422 9.56086C88.5422 8.18866 88.5422 6.98797 89.1151 6.40135C89.5027 6.0137 90.2094 5.82503 91.2763 5.8216C92.3432 5.81816 93.0224 6.0137 93.4066 6.40135C93.9898 6.98797 93.9864 8.19208 93.9795 9.58831C93.9792 9.79274 94.0578 9.9894 94.1991 10.1372L94.3226 10.2676L94.2334 10.6998L94.0927 10.7753C93.9163 10.8681 93.7824 11.0254 93.7188 11.2144C93.4216 12.0633 92.8971 12.8144 92.2025 13.3859C92.1056 13.4626 92.0278 13.5608 91.9754 13.6727C91.923 13.7847 91.8974 13.9073 91.9006 14.0308C91.8923 14.4478 91.9222 14.8646 91.9898 15.2761C92.0823 15.6422 92.2784 15.9738 92.5547 16.2312C92.8309 16.4886 93.1756 16.6608 93.5473 16.7272C94.5524 16.9296 96.0481 17.9588 97.1116 19.1732L97.3586 19.4579L97.0533 19.6775ZM98.7926 18.0617L98.5353 18.3567L98.2746 18.0686C97.2625 16.9365 95.4855 15.5025 93.8149 15.1869L93.5816 15.1423L93.5404 14.9056C93.5404 14.8164 93.5164 14.6826 93.5096 14.5283V14.3739L93.6193 14.2641C94.2255 13.6775 94.7114 12.9784 95.0499 12.2058L95.0876 12.12L95.1631 12.0651C95.5434 11.7261 95.7979 11.2684 95.8851 10.7664C95.9723 10.2643 95.8871 9.74758 95.6433 9.30014L95.585 9.21438V9.10803C95.585 7.58831 95.5027 6.25041 94.5559 5.29673C93.8698 4.61062 92.7857 4.26757 91.2694 4.25042C89.7531 4.23326 88.7205 4.59347 88.0207 5.29673C87.0705 6.25041 86.9916 7.58831 86.9916 9.11146V9.21438L86.9332 9.30014C86.6721 9.74345 86.5864 10.2685 86.6931 10.7718C86.7611 11.2795 87.0185 11.7426 87.4135 12.0686L87.489 12.1235L87.5233 12.2092C87.862 12.98 88.3453 13.6787 88.947 14.2675L89.0636 14.3807V14.5454C89.0568 14.7087 89.0159 14.8688 88.9435 15.0154L88.8646 15.1526L88.7103 15.1835C87.1734 15.4922 85.3861 16.8576 84.2952 18.0788L84.0345 18.367L83.7806 18.072C82.5217 16.6268 81.7053 14.8498 81.4288 12.9532C81.1523 11.0567 81.4274 9.12059 82.2214 7.37612C83.0153 5.63166 84.2944 4.15251 85.9061 3.11526C87.5178 2.078 89.394 1.52645 91.3106 1.52645C93.2272 1.52645 95.1034 2.078 96.715 3.11526C98.3267 4.15251 99.6059 5.63166 100.4 7.37612C101.194 9.12059 101.469 11.0567 101.192 12.9532C100.916 14.8498 100.099 16.6268 98.8406 18.072L98.7926 18.0617Z" fill="#E4326C"/>
<path d="M112.412 77.0701C110.122 77.0687 107.883 77.7465 105.979 79.0176C104.074 80.2888 102.59 82.0962 101.713 84.2113C100.836 86.3263 100.606 88.654 101.052 90.8998C101.498 93.1456 102.6 95.2086 104.219 96.8279C105.838 98.4472 107.9 99.55 110.146 99.9967C112.392 100.444 114.72 100.214 116.835 99.3378C118.95 98.4615 120.758 96.9774 122.03 95.0734C123.301 93.1693 123.98 90.9309 123.979 88.6412C123.976 85.5741 122.756 82.6335 120.587 80.4644C118.419 78.2953 115.479 77.0746 112.412 77.0701V77.0701ZM118.202 96.7475C116.519 97.9713 114.492 98.6305 112.412 98.6305C110.331 98.6305 108.304 97.9713 106.621 96.7475L106.315 96.528L106.562 96.2433C107.619 95.0289 109.118 93.9997 110.12 93.7973C110.49 93.7342 110.834 93.5652 111.111 93.3108C111.387 93.0563 111.584 92.7272 111.677 92.3633C111.749 91.9477 111.782 91.5261 111.773 91.1043C111.777 90.9799 111.751 90.8564 111.698 90.7438C111.645 90.6312 111.566 90.5326 111.468 90.456C110.774 89.8825 110.25 89.1305 109.952 88.281C109.886 88.0942 109.753 87.9387 109.578 87.8453L109.434 87.7664L109.352 87.3273L109.468 87.2004C109.612 87.0455 109.691 86.8421 109.691 86.6309C109.691 85.2587 109.691 84.0546 110.264 83.4714C110.652 83.0838 111.358 82.8951 112.425 82.8917C113.492 82.8882 114.168 83.0838 114.556 83.4714C115.135 84.0546 115.132 85.2622 115.129 86.6584C115.127 86.8624 115.204 87.0591 115.345 87.2073L115.461 87.3308L115.4 87.763L115.242 87.8453C115.066 87.9379 114.933 88.0936 114.868 88.281C114.57 89.1305 114.045 89.8825 113.351 90.456C113.252 90.5509 113.174 90.6657 113.122 90.7927C113.07 90.9198 113.046 91.0563 113.05 91.1935C113.044 91.5785 113.074 91.9632 113.139 92.3428C113.23 92.7097 113.426 93.0422 113.702 93.3004C113.979 93.5585 114.324 93.7311 114.696 93.7973C115.698 93.9997 117.197 95.0289 118.261 96.2433L118.508 96.528L118.202 96.7475ZM119.938 95.1318L119.684 95.4268L119.424 95.1386C118.415 94.0066 116.634 92.5726 114.964 92.2501L114.724 92.2021L114.689 91.962C114.672 91.8403 114.663 91.7177 114.662 91.5949V91.4405L114.772 91.3342C115.38 90.743 115.866 90.0377 116.202 89.2587L116.24 89.1764L116.315 89.1215C116.714 88.7893 116.973 88.3188 117.039 87.8042C117.14 87.3088 117.051 86.7938 116.792 86.3599L116.734 86.2742V86.1678C116.734 84.6447 116.648 83.3068 115.705 82.3531C115.019 81.667 113.931 81.3239 112.415 81.3068C110.899 81.2896 109.87 81.6498 109.17 82.3531C108.219 83.3068 108.141 84.6447 108.141 86.1678V86.2707L108.082 86.3565C107.819 86.7991 107.733 87.3249 107.842 87.8282C107.897 88.3305 108.14 88.7936 108.521 89.1249L108.597 89.1798L108.635 89.2656C108.972 90.0372 109.455 90.7362 110.058 91.3239L110.178 91.4405V91.6052C110.171 91.7689 110.129 91.9292 110.055 92.0752L109.976 92.209L109.825 92.2398C108.281 92.552 106.497 93.9174 105.41 95.1318L105.149 95.4234L104.895 95.1283C103.636 93.6833 102.819 91.9063 102.542 90.0096C102.265 88.1128 102.54 86.1765 103.334 84.4317C104.128 82.6869 105.407 81.2075 107.019 80.17C108.63 79.1325 110.507 78.5808 112.424 78.5808C114.34 78.5808 116.217 79.1325 117.829 80.17C119.44 81.2075 120.72 82.6869 121.513 84.4317C122.307 86.1765 122.582 88.1128 122.305 90.0096C122.028 91.9063 121.211 93.6833 119.952 95.1283L119.938 95.1318Z" fill="#E4326C"/>
<path d="M11.5712 28.2297C9.2826 28.2297 7.04543 28.9084 5.14257 30.1798C3.2397 31.4513 1.7566 33.2584 0.880806 35.3728C0.00501356 37.4871 -0.224134 39.8137 0.222342 42.0583C0.668817 44.3029 1.77086 46.3647 3.38912 47.9829C5.00737 49.6012 7.06915 50.7032 9.31373 51.1497C11.5583 51.5962 13.8849 51.367 15.9992 50.4912C18.1136 49.6154 19.9208 48.1323 21.1922 46.2295C22.4637 44.3266 23.1423 42.0894 23.1423 39.8009C23.1387 36.7331 21.9184 33.7921 19.7492 31.6229C17.58 29.4536 14.6389 28.2334 11.5712 28.2297V28.2297ZM17.3619 47.9072C15.679 49.1292 13.6526 49.7873 11.5729 49.7873C9.49313 49.7873 7.46673 49.1292 5.78386 47.9072L5.47512 47.6877L5.72555 47.4029C6.78558 46.1851 8.28128 45.1559 9.283 44.9535C9.65505 44.8884 10.0003 44.7171 10.2773 44.4602C10.5542 44.2034 10.751 43.872 10.8439 43.5058C10.9092 43.0941 10.939 42.6774 10.9331 42.2606C10.9371 42.1364 10.9119 42.013 10.8594 41.9004C10.807 41.7878 10.7288 41.689 10.6312 41.6122C9.93727 41.0401 9.41294 40.2892 9.1149 39.4407C9.04925 39.2529 8.91592 39.0963 8.74097 39.0016L8.59346 38.9261L8.51113 38.4836L8.6312 38.3566C8.77326 38.2008 8.85268 37.998 8.85418 37.7872C8.85418 36.6482 8.85418 35.5916 9.19723 34.9536C9.40649 34.5659 9.88334 34.0513 11.5986 34.0513C14.1749 34.0513 14.3053 35.0222 14.3018 37.8249C14.3015 38.0293 14.3802 38.226 14.5214 38.3738L14.6415 38.5041L14.6072 38.6757C14.6072 38.7031 14.6072 38.7306 14.6072 38.7546L14.5832 38.933L14.4253 39.0153C14.2491 39.1068 14.1151 39.2629 14.0514 39.451C13.7542 40.2999 13.2297 41.051 12.5351 41.6225C12.4362 41.7065 12.3576 41.812 12.3053 41.9308C12.253 42.0497 12.2283 42.1788 12.2332 42.3086C12.2269 42.7177 12.2579 43.1264 12.3259 43.5299C12.4185 43.8955 12.6148 44.2266 12.8911 44.4834C13.1673 44.7402 13.5119 44.9118 13.8833 44.9775C14.885 45.1799 16.3842 46.2091 17.4442 47.4269L17.6912 47.7117L17.3619 47.9072ZM19.1011 46.288L18.8473 46.583L18.5866 46.2949C17.5574 45.1628 15.7941 43.7288 14.1269 43.4132L13.8936 43.3686L13.8525 43.1319C13.8525 43.0427 13.8319 42.9124 13.8216 42.7546V42.6002L13.9348 42.4904C14.5396 41.9028 15.0254 41.2039 15.3653 40.4321L15.403 40.3498L15.4785 40.2949C15.8752 39.963 16.1324 39.4939 16.1989 38.981C16.3055 38.4817 16.2184 37.9606 15.9554 37.523L15.897 37.4338V37.3309C15.897 34.8815 15.5334 32.4904 11.5712 32.4802C9.66378 32.4802 8.43566 33.0565 7.79758 34.2263C7.32417 35.1148 7.27957 36.2091 7.27614 37.3446V37.4475L7.21782 37.5333C6.96517 37.9671 6.87976 38.4783 6.97769 38.9707C7.04373 39.479 7.30143 39.9428 7.6981 40.2674L7.77014 40.3223L7.80787 40.4081C8.14696 41.1786 8.63019 41.8773 9.23154 42.4664L9.35161 42.583L9.33445 42.7477C9.32852 42.9142 9.28514 43.0772 9.20752 43.2245L9.12862 43.3515L8.98111 43.3823C7.44424 43.6945 5.65694 45.0599 4.56946 46.2777L4.30874 46.5693L4.05145 46.2708C2.79255 44.8256 1.97613 43.0487 1.69965 41.1521C1.42317 39.2555 1.69831 37.3194 2.49222 35.575C3.28614 33.8305 4.5653 32.3514 6.17699 31.3141C7.78868 30.2769 9.66482 29.7253 11.5814 29.7253C13.4981 29.7253 15.3742 30.2769 16.9859 31.3141C18.5976 32.3514 19.8767 33.8305 20.6707 35.575C21.4646 37.3194 21.7397 39.2555 21.4632 41.1521C21.1868 43.0487 20.3703 44.8256 19.1114 46.2708L19.1011 46.288Z" fill="#E4326C"/>
</svg>
