<svg width="128" height="128" viewBox="0 0 128 128" fill="none" xmlns="http://www.w3.org/2000/svg">
<path d="M65.0705 15.4953V1.91317C65.0705 1.35167 64.6153 0.896484 64.0538 0.896484C63.4923 0.896484 63.0371 1.35167 63.0371 1.91317V15.4953C63.0371 16.0568 63.4923 16.512 64.0538 16.512C64.6153 16.512 65.0705 16.0568 65.0705 15.4953Z" fill="#E4326C" stroke="#E4326C" stroke-width="0.5"/>
<path d="M65.0705 125.983V112.401C65.0705 111.84 64.6153 111.385 64.0538 111.385C63.4923 111.385 63.0371 111.84 63.0371 112.401V125.983C63.0371 126.545 63.4923 127 64.0538 127C64.6153 127 65.0705 126.545 65.0705 125.983Z" fill="#E4326C" stroke="#E4326C" stroke-width="0.5"/>
<path d="M40.7059 21.479L33.9148 9.71657C33.6341 9.2303 33.0123 9.06369 32.526 9.34444C32.0397 9.62519 31.8731 10.247 32.1539 10.7333L38.9449 22.4957C39.2257 22.982 39.8475 23.1486 40.3337 22.8679C40.82 22.5871 40.9866 21.9653 40.7059 21.479Z" fill="#E4326C" stroke="#E4326C" stroke-width="0.5"/>
<path d="M95.9481 117.161L89.157 105.398C88.8763 104.912 88.2545 104.746 87.7682 105.026C87.2819 105.307 87.1153 105.929 87.396 106.415L94.1871 118.178C94.4678 118.664 95.0896 118.83 95.5759 118.55C96.0622 118.269 96.2288 117.647 95.9481 117.161Z" fill="#E4326C" stroke="#E4326C" stroke-width="0.5"/>
<path d="M22.5981 38.8414L10.8356 32.0504C10.3494 31.7696 9.72757 31.9362 9.44682 32.4225C9.16607 32.9088 9.33268 33.5306 9.81895 33.8113L21.5814 40.6024C22.0677 40.8831 22.6895 40.7165 22.9702 40.2302C23.251 39.744 23.0844 39.1222 22.5981 38.8414Z" fill="#E4326C" stroke="#E4326C" stroke-width="0.5"/>
<path d="M118.28 94.0856L106.517 87.2945C106.031 87.0138 105.409 87.1804 105.128 87.6666C104.848 88.1529 105.014 88.7747 105.501 89.0555L117.263 95.8465C117.749 96.1273 118.371 95.9607 118.652 95.4744C118.933 94.9881 118.766 94.3663 118.28 94.0856Z" fill="#E4326C" stroke="#E4326C" stroke-width="0.5"/>
<path d="M15.5988 62.9297H2.01669C1.45519 62.9297 1 63.3849 1 63.9464C1 64.5079 1.45519 64.9631 2.01669 64.9631H15.5988C16.1603 64.9631 16.6155 64.5079 16.6155 63.9464C16.6155 63.3849 16.1603 62.9297 15.5988 62.9297Z" fill="#E4326C" stroke="#E4326C" stroke-width="0.5"/>
<path d="M126.087 62.9297H112.505C111.943 62.9297 111.488 63.3849 111.488 63.9464C111.488 64.5079 111.943 64.9631 112.505 64.9631H126.087C126.649 64.9631 127.104 64.5079 127.104 63.9464C127.104 63.3849 126.649 62.9297 126.087 62.9297Z" fill="#E4326C" stroke="#E4326C" stroke-width="0.5"/>
<path d="M21.5788 87.3014L9.81513 94.0904C9.32881 94.3711 9.16209 94.9929 9.44276 95.4792C9.72342 95.9655 10.3452 96.1322 10.8315 95.8516L22.5952 89.0626C23.0815 88.7819 23.2482 88.1601 22.9675 87.6738C22.6869 87.1875 22.0651 87.0208 21.5788 87.3014Z" fill="#E4326C" stroke="#E4326C" stroke-width="0.5"/>
<path d="M117.273 32.0619L105.509 38.8509C105.023 39.1316 104.856 39.7534 105.137 40.2397C105.418 40.726 106.04 40.8927 106.526 40.6121L118.289 33.8231C118.776 33.5424 118.943 32.9206 118.662 32.4343C118.381 31.948 117.759 31.7813 117.273 32.0619Z" fill="#E4326C" stroke="#E4326C" stroke-width="0.5"/>
<path d="M38.9466 105.393L32.1576 117.157C31.8769 117.643 32.0437 118.265 32.53 118.546C33.0163 118.826 33.6381 118.66 33.9187 118.173L40.7077 106.41C40.9884 105.923 40.8217 105.302 40.3354 105.021C39.849 104.74 39.2273 104.907 38.9466 105.393Z" fill="#E4326C" stroke="#E4326C" stroke-width="0.5"/>
<path d="M94.1829 9.71052L87.3939 21.4742C87.1133 21.9605 87.28 22.5823 87.7663 22.8629C88.2526 23.1436 88.8744 22.9769 89.1551 22.4906L95.9441 10.7269C96.2247 10.2406 96.058 9.61882 95.5717 9.33815C95.0854 9.05748 94.4636 9.2242 94.1829 9.71052Z" fill="#E4326C" stroke="#E4326C" stroke-width="0.5"/>
<path d="M103.69 64.1644C103.692 64.1279 103.692 64.0912 103.69 64.0547C103.695 63.9988 103.695 63.9426 103.69 63.8867C103.686 63.8487 103.681 63.8109 103.673 63.7735C103.663 63.7178 103.649 63.6628 103.632 63.6089C103.632 63.5884 103.632 63.5712 103.632 63.5506C103.632 63.5301 103.608 63.5163 103.597 63.4958C103.587 63.4752 103.58 63.4478 103.567 63.4238L88.3112 37.998C88.3112 37.998 88.294 37.998 88.2906 37.974L88.27 37.9363C88.2407 37.8985 88.2086 37.863 88.174 37.83C88.1534 37.8094 88.1363 37.7854 88.1157 37.7683C88.0509 37.71 87.9795 37.6594 87.9031 37.6174L87.8414 37.5968C87.781 37.5685 87.7178 37.5467 87.6528 37.5317C87.6208 37.5298 87.5888 37.5298 87.5568 37.5317C87.5191 37.5317 87.4814 37.5317 87.4402 37.5317H40.6623C40.6246 37.5317 40.5869 37.5317 40.5492 37.5317C40.5115 37.5317 40.4806 37.5317 40.4463 37.5317C40.3813 37.5467 40.3181 37.5685 40.2577 37.5968L40.1994 37.6174C40.1214 37.6585 40.0488 37.7092 39.9834 37.7683C39.9834 37.7683 39.9525 37.806 39.932 37.8231C39.895 37.8596 39.8607 37.8986 39.8291 37.9397C39.8291 37.9397 39.8291 37.9637 39.812 37.974L39.7879 38.0014L24.5359 63.4238C24.5231 63.4482 24.5116 63.4734 24.5016 63.4992C24.4894 63.5163 24.479 63.5347 24.4708 63.5541C24.4693 63.5723 24.4693 63.5907 24.4708 63.6089C24.4534 63.6628 24.4397 63.7178 24.4296 63.7735C24.4263 63.8112 24.4263 63.849 24.4296 63.8867C24.4245 63.9426 24.4245 63.9988 24.4296 64.0547C24.4261 64.0912 24.4261 64.1279 24.4296 64.1644C24.4427 64.2209 24.4611 64.276 24.4845 64.329C24.4961 64.363 24.5099 64.3962 24.5256 64.4284C24.5256 64.4284 24.5256 64.4284 24.5256 64.449C24.5621 64.5092 24.6046 64.5655 24.6525 64.617C24.6525 64.617 24.6697 64.6445 24.6834 64.6582L63.3243 104.321L63.3792 104.355C63.4144 104.391 63.4523 104.424 63.4924 104.455H63.5129C63.5462 104.473 63.5806 104.489 63.6158 104.503L63.6947 104.54L63.7598 104.564C63.8534 104.597 63.9521 104.614 64.0513 104.612C64.1513 104.613 64.2508 104.598 64.3462 104.568L64.4079 104.544C64.4349 104.532 64.4612 104.518 64.4868 104.503C64.5225 104.491 64.5569 104.476 64.5896 104.458C64.5896 104.458 64.5896 104.458 64.6102 104.458C64.6503 104.429 64.6881 104.397 64.7234 104.362C64.7234 104.362 64.7645 104.342 64.7782 104.324L103.419 64.665C103.419 64.665 103.44 64.6376 103.45 64.6273C103.497 64.5751 103.54 64.5189 103.577 64.4593C103.577 64.4593 103.577 64.4593 103.577 64.4387C103.577 64.4182 103.601 64.3702 103.615 64.3359C103.645 64.2814 103.671 64.2239 103.69 64.1644V64.1644ZM55.7806 77.5819L51.2441 64.9668H76.8584L76.2241 66.7293L64.0513 100.604L55.7806 77.5819ZM76.5704 62.93H51.539L64.0547 40.604L76.5704 62.93ZM87.6734 40.8852L100.902 62.93H79.7525L87.6734 40.8852ZM85.9966 39.541L85.0845 42.075L78.1032 61.507L65.7898 39.541H85.9966ZM49.9925 61.507L43.0077 42.075L42.0991 39.541H62.3059L49.9925 61.507ZM40.4189 40.8852L48.3535 62.93H27.2037L40.4189 40.8852ZM27.8174 64.9668H49.077L49.7628 66.8424L61.5138 99.5444L27.8174 64.9668ZM66.5956 99.5444L78.3466 66.8424L79.0324 64.9668H100.292L66.5956 99.5444Z" fill="#E4326C" stroke="#E4326C" stroke-width="0.5"/>
</svg>
