<svg width="174" height="111" viewBox="0 0 174 111" fill="none" xmlns="http://www.w3.org/2000/svg">
<path d="M25.8724 6.04858C17.5081 6.04858 12.3047 11.547 12.3047 20.3955C12.3047 29.244 17.5037 34.7423 25.8724 34.7423C34.241 34.7423 39.4401 29.244 39.4401 20.3955C39.4401 11.547 34.241 6.04858 25.8724 6.04858ZM34.9542 27.4611C33.1449 30.4722 30.0897 31.9998 25.8724 31.9998C21.655 31.9998 18.5999 30.4722 16.7906 27.4611C15.351 25.0662 15.0297 22.2972 15.0297 20.4175C15.0297 18.5377 15.3334 15.7467 16.7906 13.3519C18.5999 10.3408 21.633 8.81319 25.8724 8.81319C30.1117 8.81319 33.1449 10.3408 34.9542 13.3519C36.3937 15.7467 36.7151 18.5157 36.7151 20.4175C36.7151 22.3192 36.3937 25.0662 34.9542 27.4611Z" fill="#E4326C"/>
<path d="M38.3662 41.5395C34.2307 40.697 30.0124 40.3292 25.7935 40.4434H25.3268C14.4885 40.4434 8.21095 42.1558 4.3634 46.1443C1.16738 49.4636 -0.250144 54.4381 0.0360012 61.3496C0.0342588 61.5313 0.0684671 61.7115 0.136657 61.8799C0.204847 62.0483 0.305672 62.2016 0.433329 62.3309C0.560986 62.4602 0.712954 62.563 0.880485 62.6333C1.04802 62.7036 1.2278 62.7401 1.4095 62.7407H41.5843C41.7709 62.7513 41.9577 62.7236 42.1333 62.6595C42.3088 62.5954 42.4695 62.4961 42.6053 62.3677C42.7412 62.2393 42.8494 62.0846 42.9234 61.9129C42.9974 61.7413 43.0355 61.5563 43.0355 61.3694C43.0355 61.1825 42.9974 60.9975 42.9234 60.8259C42.8494 60.6542 42.7412 60.4995 42.6053 60.3711C42.4695 60.2427 42.3088 60.1434 42.1333 60.0793C41.9577 60.0152 41.7709 59.9875 41.5843 59.9981H2.77419V59.5579C3.01631 45.8053 11.0724 43.1948 25.8507 43.1948C29.8387 43.0881 33.826 43.4322 37.7367 44.2205C37.9122 44.2627 38.0942 44.2699 38.2725 44.2418C38.4507 44.2136 38.6217 44.1506 38.7756 44.0564C38.9295 43.9622 39.0634 43.8386 39.1695 43.6926C39.2756 43.5467 39.352 43.3812 39.3942 43.2058C39.4364 43.0303 39.4436 42.8483 39.4154 42.67C39.3873 42.4918 39.3243 42.3208 39.2301 42.1669C39.1359 42.013 39.0122 41.8792 38.8663 41.773C38.7203 41.6669 38.5549 41.5905 38.3795 41.5483L38.3662 41.5395Z" fill="#E4326C"/>
<path d="M147.326 6.04858C138.962 6.04858 133.759 11.547 133.759 20.3955C133.759 29.244 138.958 34.7423 147.326 34.7423C155.695 34.7423 160.894 29.244 160.894 20.3955C160.894 11.547 155.695 6.04858 147.326 6.04858ZM156.408 27.4611C154.599 30.4722 151.544 31.9998 147.326 31.9998C143.109 31.9998 140.054 30.4722 138.245 27.4611C136.805 25.0662 136.484 22.2972 136.484 20.4175C136.484 18.5377 136.788 15.7467 138.245 13.3519C140.054 10.3408 143.109 8.81319 147.326 8.81319C151.544 8.81319 154.599 10.3408 156.408 13.3519C157.848 15.7467 158.169 18.5157 158.169 20.4175C158.169 22.3192 157.848 25.0662 156.408 27.4611Z" fill="#E4326C"/>
<path d="M130.241 61.3715C130.242 61.7351 130.388 62.0833 130.645 62.3399C130.903 62.5965 131.251 62.7406 131.615 62.7406H171.754C172.118 62.7406 172.466 62.5965 172.724 62.3399C172.981 62.0833 173.127 61.7351 173.128 61.3715C173.321 54.394 171.86 49.4063 168.659 46.1134C164.799 42.1514 158.217 40.3905 147.326 40.3905C143.101 40.2768 138.877 40.6446 134.736 41.4867C134.382 41.5766 134.077 41.8035 133.89 42.1177C133.703 42.4318 133.649 42.8074 133.739 43.1617C133.829 43.5161 134.056 43.8202 134.37 44.0072C134.684 44.1942 135.059 44.2487 135.414 44.1588C139.324 43.3683 143.312 43.0242 147.3 43.1331C162.083 43.1331 170.143 45.7744 170.381 59.5666V60.0069H131.628C131.447 60.0051 131.268 60.0391 131.1 60.1068C130.933 60.1744 130.78 60.2746 130.651 60.4013C130.522 60.5281 130.42 60.6791 130.35 60.8456C130.279 61.0121 130.242 61.1908 130.241 61.3715V61.3715Z" fill="#E4326C"/>
<path d="M86.5838 16.9927C76.3266 16.9927 70.2031 23.4904 70.2031 34.3683C70.2031 45.0745 76.4807 51.7219 86.5838 51.7219C96.687 51.7219 103.013 45.0745 103.013 34.3507C103.013 23.6268 96.7046 16.9927 86.5838 16.9927ZM86.5838 48.9793C81.2527 48.9793 77.3964 47.0599 75.138 43.2784C73.3287 40.2673 72.9369 36.7719 72.9369 34.3683C72.9369 32.4049 73.2231 28.6454 75.138 25.4494C77.4184 21.659 81.2703 19.7265 86.5838 19.7265C91.8973 19.7265 95.7713 21.6458 98.0296 25.4273C99.8478 28.4473 100.231 31.9471 100.231 34.3551C100.231 36.7631 99.8478 40.2585 98.0296 43.2696C95.7713 47.0643 91.9149 48.9793 86.5838 48.9793Z" fill="#E4326C"/>
<path d="M109.956 6.90715C103.533 2.75105 96.119 0.381484 88.4765 0.0423335C80.834 -0.296817 73.2391 1.4067 66.4736 4.97755C59.7081 8.54841 54.0163 13.8576 49.9841 20.3587C45.9518 26.8598 43.7248 34.318 43.5322 41.9656C43.3396 49.6132 45.1884 57.1741 48.8883 63.8699C52.5881 70.5657 58.0054 76.1547 64.5826 80.0616C71.1599 83.9685 78.6593 86.0521 86.3093 86.0981C93.9592 86.1441 101.483 84.1507 108.107 80.3232L108.433 80.1383L129.427 106.037C131.622 108.772 134.815 110.522 138.301 110.904C141.787 111.285 145.283 110.266 148.017 108.07C150.752 105.875 152.503 102.683 152.885 99.1964C153.266 95.71 152.247 92.2148 150.051 89.4799C149.448 88.7312 148.766 88.0494 148.017 87.446V87.446L122.485 66.7555L122.7 66.421C128.887 56.8346 131.02 45.186 128.631 34.0295C126.242 22.873 119.526 13.1193 109.956 6.90715V6.90715ZM88.4157 83.3563L87.9534 83.3783V76.5373C87.964 76.3507 87.9364 76.1639 87.8722 75.9883C87.8081 75.8127 87.7088 75.6521 87.5804 75.5162C87.4521 75.3804 87.2973 75.2721 87.1256 75.1982C86.954 75.1242 86.769 75.0861 86.5821 75.0861C86.3952 75.0861 86.2103 75.1242 86.0386 75.1982C85.8669 75.2721 85.7122 75.3804 85.5838 75.5162C85.4554 75.6521 85.3561 75.8127 85.292 75.9883C85.2279 76.1639 85.2003 76.3507 85.2108 76.5373V83.3783L84.7486 83.3563C75.4888 82.9318 66.6602 79.3207 59.7571 73.1344L59.5238 72.923L59.6471 72.6325C63.3846 63.806 72.7261 62.0363 86.5843 62.0363C94.3895 62.0363 99.681 62.6482 103.753 64.0305C108.556 65.6594 111.752 68.4724 113.522 72.6325L113.645 72.923L113.412 73.13C106.511 79.3245 97.6789 82.9381 88.4157 83.3563V83.3563ZM146.301 89.5679C148.463 91.3043 149.848 93.8274 150.153 96.5838C150.457 99.3402 149.656 102.105 147.925 104.271C147.674 104.59 147.401 104.891 147.111 105.174C146.141 106.145 144.989 106.915 143.72 107.439C142.452 107.964 141.092 108.232 139.719 108.229H139.693C138.317 108.23 136.955 107.958 135.684 107.429C134.414 106.9 133.262 106.124 132.293 105.147C132.028 104.884 131.779 104.606 131.544 104.315L110.823 78.668L111.21 78.395C114.78 75.892 117.953 72.8661 120.622 69.4189L120.895 69.0623L146.301 89.5679ZM126.786 41.8741H119.962C119.598 41.8741 119.248 42.0188 118.991 42.2764C118.733 42.534 118.589 42.8833 118.589 43.2476C118.589 43.6119 118.733 43.9612 118.991 44.2188C119.248 44.4764 119.598 44.6211 119.962 44.6211H126.786L126.764 45.0613C126.354 54.5026 122.619 63.4949 116.22 70.449L115.78 70.8892L115.494 70.3301C110.832 61.2043 100.57 59.3245 86.6019 59.3245C72.6337 59.3245 62.3676 61.1955 57.7277 70.3301L57.4415 70.8936L57.0013 70.4534C50.5893 63.5069 46.8379 54.5182 46.4095 45.0745V44.6343H53.2506C53.6149 44.6343 53.9642 44.4896 54.2218 44.232C54.4794 43.9744 54.6241 43.6251 54.6241 43.2608C54.6241 42.8965 54.4794 42.5472 54.2218 42.2896C53.9642 42.032 53.6149 41.8873 53.2506 41.8873H46.4007V41.4471C46.8456 31.4105 51.0225 21.9019 58.113 14.7845C65.2034 7.66723 74.6962 3.45436 84.731 2.97155L85.1932 2.94954V9.84344C85.1826 10.0301 85.2103 10.2169 85.2744 10.3924C85.3385 10.568 85.4378 10.7286 85.5662 10.8645C85.6946 11.0004 85.8493 11.1086 86.021 11.1825C86.1927 11.2565 86.3776 11.2947 86.5645 11.2947C86.7514 11.2947 86.9364 11.2565 87.108 11.1825C87.2797 11.1086 87.4345 11.0004 87.5628 10.8645C87.6912 10.7286 87.7905 10.568 87.8546 10.3924C87.9188 10.2169 87.9464 10.0301 87.9358 9.84344V2.91872L88.398 2.94074C98.4426 3.41068 107.949 7.61776 115.051 14.7363C122.153 21.8547 126.339 31.3706 126.786 41.4163V41.8741Z" fill="#E4326C"/>
</svg>
