<svg width="127" height="84" viewBox="0 0 127 84" fill="none" xmlns="http://www.w3.org/2000/svg">
<path d="M93.4571 67.8294C86.4921 67.8294 82.9463 50.7483 82.9463 33.9147C82.9463 17.0811 86.6187 0 93.4571 0C100.422 0 103.968 17.0811 103.968 33.9147C103.968 50.872 100.295 67.8294 93.4571 67.8294ZM93.4571 2.84685C90.1645 2.84685 85.7323 14.7294 85.7323 34.0385C85.7323 53.3475 90.2912 65.2301 93.4571 65.2301C96.7496 65.2301 101.182 53.3475 101.182 34.0385C101.182 14.6056 96.623 2.84685 93.4571 2.84685Z" fill="#E4326C"/>
<path d="M38.4973 83.7965H29.3795C27.3534 83.7965 25.8337 82.1874 25.8337 80.3308V48.6441H13.8033C11.3973 48.6441 9.37109 46.6637 9.37109 44.3119V23.6413C9.37109 21.2895 11.3973 19.3091 13.8033 19.3091H41.1567C42.5497 19.1853 74.7151 16.8336 87.1254 7.17904C87.7586 6.68393 88.6451 6.80771 89.025 7.42659C89.5315 8.04547 89.4049 8.9119 88.7717 9.28323C75.3483 19.6804 42.5497 22.0322 41.1567 22.0322C41.1567 22.0322 41.1567 22.0322 41.03 22.0322H13.6767C12.7903 22.0322 12.0304 22.7748 12.0304 23.6413V44.1881C12.0304 45.0546 12.7903 45.7972 13.6767 45.7972H27.1001C27.8599 45.7972 28.4931 46.4161 28.4931 47.1588V80.3308C28.4931 80.8259 28.873 81.0734 29.2529 81.0734H38.3707C38.8772 81.0734 39.1305 80.7021 39.1305 80.3308V53.5951C39.1305 51.6147 40.0169 49.6343 41.5366 48.2727C43.0562 46.9112 45.209 46.2923 47.2352 46.5399C58.5058 47.7776 78.8941 51.1196 88.5184 58.6699C89.1516 59.165 89.2783 60.0315 88.7717 60.5266C88.2652 61.1455 87.3787 61.2692 86.8722 60.7741C77.7544 53.5951 57.8726 50.5007 46.9819 49.263C45.7156 49.1392 44.4492 49.5105 43.4361 50.3769C42.423 51.2434 41.9165 52.3574 41.9165 53.7189V80.3308C42.0431 82.3112 40.3969 83.7965 38.4973 83.7965Z" fill="#E4326C"/>
<path d="M10.6374 42.4554H8.8645C3.92571 42.4554 0 38.4945 0 33.791C0 28.9638 4.05234 25.1267 8.8645 25.1267H10.6374C11.3972 25.1267 12.0304 25.7456 12.0304 26.4882C12.0304 27.2309 11.3972 27.8498 10.6374 27.8498H8.8645C5.44534 27.8498 2.78599 30.5729 2.78599 33.791C2.78599 37.0092 5.57197 39.7323 8.8645 39.7323H10.6374C11.3972 39.7323 12.0304 40.3512 12.0304 41.0938C12.0304 41.8365 11.5239 42.4554 10.6374 42.4554Z" fill="#E4326C"/>
<path d="M33.9384 48.644H27.1C26.3402 48.644 25.707 48.0251 25.707 47.2824C25.707 46.5398 26.3402 45.9209 27.1 45.9209H33.9384C34.6982 45.9209 35.3314 46.5398 35.3314 47.2824C35.3314 48.0251 34.6982 48.644 33.9384 48.644Z" fill="#E4326C"/>
<path d="M111.185 46.5399C110.932 46.5399 110.679 46.5399 110.552 46.4161C109.919 46.0448 109.666 45.1783 110.046 44.5595C111.565 41.7126 112.452 38.6182 112.452 35.4C112.452 32.1818 111.692 29.0874 110.046 26.2406C109.666 25.6217 109.919 24.7553 110.552 24.3839C111.185 24.0126 112.072 24.2602 112.452 24.879C114.225 28.0972 115.111 31.6867 115.111 35.2762C115.111 38.8658 114.225 42.579 112.452 45.6735C112.198 46.2923 111.692 46.5399 111.185 46.5399Z" fill="#E4326C"/>
<path d="M120.43 55.4518C120.176 55.4518 119.923 55.4518 119.796 55.328C119.163 54.9567 118.91 54.0903 119.29 53.4714C122.329 48.0252 123.975 41.7126 123.975 35.4001C123.975 29.0875 122.329 22.8986 119.29 17.3287C118.91 16.7098 119.163 15.8434 119.796 15.4721C120.43 15.1007 121.316 15.3483 121.696 15.9672C124.988 21.9084 126.761 28.5924 126.761 35.2763C126.761 42.084 124.988 48.7679 121.696 54.5854C121.316 55.2042 120.936 55.4518 120.43 55.4518Z" fill="#E4326C"/>
</svg>
