<?xml version="1.0" encoding="utf-8"?>
<!-- Generator: Adobe Illustrator 25.2.3, SVG Export Plug-In . SVG Version: 6.00 Build 0)  -->
<svg version="1.1" id="Слой_1" xmlns="http://www.w3.org/2000/svg" xmlns:xlink="http://www.w3.org/1999/xlink" x="0px" y="0px"
	 viewBox="0 0 136 102" style="enable-background:new 0 0 136 102;" xml:space="preserve">
<style type="text/css">
	.st0{fill:#E4326C;}
</style>
<path class="st0" d="M24.4,96.9c8,3.8,16.9,5,25.7,3.6c8.8-1.5,16.7-5.5,23-11.7c0.3-0.3,0.5-0.8,0.5-1.2c0-0.5-0.2-0.9-0.5-1.2
	c-0.3-0.3-0.8-0.5-1.2-0.5c0,0,0,0,0,0c-0.5,0-0.9,0.2-1.2,0.5l-0.2,0.1c-5.8,5.7-13.2,9.4-21.4,10.7c-8.2,1.3-16.5,0-23.9-3.8
	c-0.2-0.1-0.5-0.2-0.7-0.2c-0.3,0-0.5,0-0.7,0.1l-9,3.6l-1.4-12.3c0-0.3-0.2-0.6-0.4-0.9c-4.4-5.3-7.4-11.7-8.4-18.4
	c-1.1-6.8-0.2-13.7,2.4-20c2.6-6.3,7-11.9,12.6-16c5.6-4.1,12.2-6.7,19.2-7.5c0.5-0.1,0.9-0.3,1.2-0.6c0.3-0.4,0.4-0.8,0.4-1.2
	c-0.1-0.5-0.3-0.9-0.6-1.1c-0.4-0.3-0.8-0.4-1.3-0.4c-7.5,0.8-14.7,3.6-20.8,8C11.4,30.9,6.7,36.8,3.7,43.7
	C0.8,50.5-0.1,58,0.9,65.3S5,79.6,9.7,85.4l0.1,0.1l1.6,14c0,0.3,0.1,0.5,0.3,0.7c0.1,0.2,0.3,0.4,0.6,0.5c0.2,0.1,0.5,0.2,0.8,0.2
	c0.3,0,0.5,0,0.8-0.1l10.4-4.1L24.4,96.9z"/>
<path class="st0" d="M88.1,43.5c-1.6,0-2.9,1.3-2.9,2.8s1.3,2.8,2.9,2.8s2.9-1.3,2.9-2.8S89.7,43.5,88.1,43.5z"/>
<path class="st0" d="M71.1,43.5c-1.6,0-2.9,1.3-2.9,2.8s1.3,2.8,2.9,2.8s2.9-1.3,2.9-2.8S72.7,43.5,71.1,43.5z"/>
<path class="st0" d="M105,43.5c-1.6,0-2.9,1.3-2.9,2.8s1.3,2.8,2.9,2.8c1.6,0,2.9-1.3,2.9-2.8S106.6,43.5,105,43.5z"/>
<path class="st0" d="M130.4,26.5c-3.8-7.8-9.8-14.3-17.3-18.9c-7.5-4.6-16.1-7-25-7c0,0,0,0,0,0c-10,0-19.5,3-27.5,8.7
	c-8.1,5.7-14,13.6-17.1,22.8c-3.1,9.2-3.1,19-0.1,28.3c3,9.3,8.9,17.2,16.9,23c0.4,0.3,0.8,0.4,1.3,0.3c0.5-0.1,0.9-0.3,1.1-0.7
	c0.3-0.4,0.4-0.8,0.3-1.2c-0.1-0.4-0.3-0.8-0.7-1.1c-7-5-12.3-12-15.2-20c-2.9-8-3.3-16.6-1.1-24.9c2.2-8.2,6.8-15.6,13.4-21.2
	C66,8.8,74,5.3,82.7,4.2c8.6-1.1,17.3,0.4,25.1,4.3c7.8,3.9,14.1,9.9,18.3,17.3c4.2,7.5,6,15.9,5.2,24.4c-0.8,8.5-4.1,16.4-9.7,23
	l-0.3,0.8l-1.6,14l-0.3-0.1l0,0l-0.3-0.1l-8.9-3.5c-0.4-0.2-0.9-0.2-1.3-0.2l0,0c-0.6,0-1.2,0.2-1.7,0.4c-7.1,3.4-14.9,4.8-22.7,4.1
	c0,0-0.1,0-0.2,0c-0.2,0-0.4,0-0.5,0.1c-0.2,0.1-0.4,0.2-0.6,0.3c-0.2,0.1-0.3,0.3-0.4,0.5c-0.1,0.2-0.2,0.4-0.2,0.6
	c0,0.2,0,0.4,0.1,0.7c0.1,0.2,0.2,0.4,0.3,0.6c0.1,0.2,0.3,0.3,0.5,0.4c0.2,0.1,0.4,0.2,0.7,0.2c8.5,0.7,17-0.8,24.6-4.5l0.2-0.1
	l11.6,4.6c0.3,0.1,0.5,0.1,0.8,0.1c0.3,0,0.5-0.1,0.8-0.2c0.2-0.1,0.4-0.3,0.6-0.5c0.1-0.2,0.2-0.5,0.3-0.7l1.8-15.6l0.1-0.1
	c5.5-6.8,9-14.9,9.9-23.4C135.7,42.9,134.2,34.3,130.4,26.5z"/>
</svg>
