<?xml version="1.0" encoding="utf-8"?>
<!-- Generator: Adobe Illustrator 25.2.3, SVG Export Plug-In . SVG Version: 6.00 Build 0)  -->
<svg version="1.1" id="Слой_1" xmlns="http://www.w3.org/2000/svg" xmlns:xlink="http://www.w3.org/1999/xlink" x="0px" y="0px"
	 viewBox="0 0 119 110" style="enable-background:new 0 0 119 110;" xml:space="preserve">
<style type="text/css">
	.st0{fill:#E4326C;}
</style>
<path class="st0" d="M104.9,0.4H14.1C7.3,0.4,1.7,5.9,1.7,12.7v84.6c0,6.8,5.5,12.3,12.3,12.3h90.8c6.8,0,12.3-5.5,12.3-12.3V12.7
	c0-3.3-1.3-6.4-3.6-8.7C111.3,1.7,108.2,0.4,104.9,0.4z M114.6,97.3c0,5.3-4.3,9.6-9.6,9.6H14.1c-5.3,0-9.6-4.3-9.6-9.6V32h110.1
	V97.3z M114.6,29.2h-0.1v0.1H4.4V12.7c0-5.3,4.3-9.6,9.6-9.6h90.8c5.3,0,9.6,4.3,9.6,9.6V29.2z"/>
<path class="st0" d="M59.5,42c-15.5,0-28,12.6-28,28c0,15.5,12.6,28,28,28s28-12.6,28-28C87.5,54.5,75,42,59.5,42z M72,92.1h-0.1
	c-3.8,2.1-8,3.2-12.3,3.2c-4.3,0-8.6-1.1-12.4-3.2l-0.1,0v-5.4c0-4.7,4.4-9.1,8.6-11.2c0.4-0.2,0.7-0.7,0.7-1.2c0-0.5-0.2-1-0.7-1.2
	c-3-1.8-4.9-5.4-4.9-9.4c0-5.7,3.9-10.4,8.7-10.4s8.7,4.7,8.7,10.4c0,4-1.9,7.6-4.9,9.4c-0.4,0.2-0.7,0.7-0.7,1.2
	c0,0.5,0.3,0.9,0.7,1.2c4.1,2.1,8.5,6.5,8.5,11.2V92.1z M74.9,90.1l-0.2,0.2v-3.7c0-4.5-3-9.1-8-12.5l-0.2-0.1l0.1-0.1
	c2.7-2.5,4.3-6.2,4.3-10.3c0-7.2-5.1-13.1-11.4-13.1c-6.3,0-11.4,5.9-11.4,13.1c0,4,1.6,7.8,4.3,10.3l0.1,0.1l-0.2,0.1
	c-5,3.3-8,8-8,12.4v3.7l-0.2-0.2c-6.3-4.8-9.9-12.2-9.9-20.1c0-6.8,2.6-13.1,7.4-17.9c4.8-4.8,11.2-7.4,17.9-7.4
	c14,0,25.3,11.4,25.3,25.3C84.8,77.9,81.2,85.2,74.9,90.1z"/>
<path class="st0" d="M13.9,11.3v11.4h11.4V11.3H13.9z M22.6,20.1h-6v-6h6V20.1z"/>
<path class="st0" d="M28,11.3v11.4h11.4V11.3H28z M36.8,20.1h-6v-6h6V20.1z"/>
<path class="st0" d="M42.2,11.3v11.4h11.4V11.3H42.2z M50.9,20.1h-6v-6h6V20.1z"/>
</svg>
