<svg width="125" height="90" viewBox="0 0 125 90" fill="none" xmlns="http://www.w3.org/2000/svg">
<path d="M112.292 8.18785H84.5002C81.1767 8.18433 77.9877 9.4724 75.6338 11.7691C73.2799 14.0658 71.9537 17.1832 71.9465 20.4364V38.2719H52.8448V12.2619C52.8377 9.01197 51.5156 5.89719 49.168 3.59916C46.8203 1.30114 43.6383 0.00701167 40.3182 0H12.5266C9.20543 0.00351267 6.02133 1.29651 3.67292 3.5953C1.3245 5.89408 0.0035885 9.0109 0 12.2619V39.4662C0 41.0765 0.32401 42.671 0.95353 44.1586C1.58305 45.6463 2.50575 46.9981 3.66895 48.1367C4.83215 49.2753 6.21307 50.1785 7.73287 50.7947C9.25266 51.4109 10.8816 51.7281 12.5266 51.7281H33.4178V77.7381C33.4214 80.9891 34.7423 84.1059 37.0907 86.4047C39.4391 88.7035 42.6232 89.9965 45.9444 90H73.736C77.0583 90 80.2445 88.7081 82.5937 86.4086C84.9429 84.109 86.2626 80.9902 86.2626 77.7381V59.916H112.292C115.613 59.9124 118.797 58.6194 121.146 56.3207C123.494 54.0219 124.815 50.9051 124.818 47.6541V20.4364C124.815 17.1867 123.494 14.0713 121.145 11.7746C118.796 9.4779 115.612 8.18785 112.292 8.18785V8.18785ZM12.5266 49.074C9.92343 49.074 7.4269 48.0618 5.58619 46.26C3.74548 44.4582 2.71138 42.0144 2.71138 39.4662V12.2619C2.71497 9.7148 3.75022 7.27307 5.59015 5.47202C7.43008 3.67097 9.92453 2.6576 12.5266 2.65408H40.3182C42.9203 2.6576 45.4148 3.67097 47.2547 5.47202C49.0946 7.27307 50.1299 9.7148 50.1335 12.2619V38.2719H45.9444C42.883 38.279 39.9298 39.3809 37.6404 41.3703C35.3509 43.3596 33.8829 46.0993 33.5127 49.074H12.5266ZM83.5512 77.7381C83.5512 78.9998 83.2974 80.2492 82.8041 81.4149C82.3108 82.5805 81.5879 83.6397 80.6764 84.5319C79.765 85.424 78.683 86.1317 77.4922 86.6146C76.3013 87.0974 75.025 87.3459 73.736 87.3459H45.9444C43.3412 87.3459 40.8447 86.3337 39.004 84.5319C37.1633 82.7301 36.1292 80.2863 36.1292 77.7381V50.5338C36.1328 47.9867 37.168 45.545 39.0079 43.7439C40.8479 41.9429 43.3423 40.9295 45.9444 40.926H73.736C76.3381 40.9295 78.8325 41.9429 80.6725 43.7439C82.5124 45.545 83.5477 47.9867 83.5512 50.5338V77.7381ZM82.9412 42.253L91.2651 25.1475L98.5994 36.6794C98.7165 36.8632 98.8779 37.0162 99.0693 37.1249C99.2607 37.2336 99.4764 37.2948 99.6975 37.3032C99.9205 37.3123 100.142 37.2675 100.343 37.1725C100.544 37.0776 100.718 36.9356 100.85 36.7591L106.368 29.394L114.746 44.3763H84.5409C84.0912 43.6117 83.5546 42.8994 82.9412 42.253ZM122.107 47.6541C122.104 50.2012 121.068 52.6429 119.228 54.4439C117.388 56.245 114.894 57.2584 112.292 57.2619H86.2626V50.5338C86.2611 49.347 86.083 48.1669 85.7339 47.0304H117.037C117.272 47.0303 117.503 46.9704 117.708 46.8564C117.912 46.7423 118.083 46.5782 118.203 46.3801C118.322 46.1784 118.384 45.9496 118.384 45.7166C118.384 45.4837 118.322 45.2548 118.203 45.0531L107.723 26.2887C107.613 26.0907 107.453 25.9235 107.259 25.8027C107.064 25.682 106.841 25.6118 106.612 25.5986C106.384 25.585 106.157 25.6277 105.951 25.7228C105.744 25.8179 105.566 25.9623 105.432 26.1427L99.8466 33.614L92.2683 21.6706C92.1404 21.4658 91.9581 21.2987 91.7409 21.1873C91.5237 21.0759 91.2796 21.0242 91.0348 21.0378C90.7899 21.0515 90.5534 21.1298 90.3504 21.2646C90.1475 21.3994 89.9857 21.5856 89.8823 21.8033L80.8263 40.4748C79.0012 39.2355 76.8724 38.4936 74.6579 38.325V20.4364C74.6615 17.8906 75.6972 15.4502 77.5375 13.6513C79.3778 11.8524 81.8723 10.8419 84.4731 10.8419H112.265C113.555 10.8384 114.833 11.0839 116.026 11.5644C117.219 12.0448 118.304 12.7508 119.218 13.6419C120.132 14.533 120.858 15.5918 121.353 16.7576C121.849 17.9235 122.105 19.1736 122.107 20.4364V47.6541Z" fill="#E4326C"/>
<path d="M41.947 26.0049C41.9488 24.9673 41.6535 23.95 41.0947 23.0687C40.5359 22.1874 39.736 21.4774 38.786 21.0195L19.5016 11.5825C18.6321 11.16 17.6672 10.9617 16.6978 11.0061C15.7285 11.0506 14.7866 11.3364 13.9613 11.8366C13.1359 12.3368 12.4542 13.0349 11.9805 13.865C11.5068 14.6951 11.2567 15.6298 11.2539 16.5809V35.4159C11.2574 36.8958 11.8588 38.3142 12.9266 39.3607C13.9944 40.4071 15.4415 40.9966 16.9516 41C17.8361 40.9982 18.7084 40.7978 19.5016 40.4143L38.7196 30.9902C39.682 30.5415 40.4956 29.8355 41.0666 28.9535C41.6376 28.0715 41.9427 27.0494 41.947 26.0049V26.0049ZM37.604 28.6082L18.3195 38.0843C17.8554 38.3134 17.3391 38.4221 16.8199 38.4C16.3006 38.378 15.7959 38.2259 15.3537 37.9583C14.9115 37.6907 14.5466 37.3165 14.2939 36.8714C14.0412 36.4263 13.9091 35.9252 13.9102 35.4159V16.5809C13.9136 15.7901 14.2348 15.0326 14.804 14.4722C15.3733 13.9119 16.1448 13.5939 16.9516 13.587C17.4141 13.5928 17.8688 13.7043 18.2797 13.9125L37.4977 23.3235C38.0042 23.5706 38.4302 23.9512 38.7281 24.4226C39.0259 24.894 39.1837 25.4374 39.1837 25.9919C39.1837 26.5463 39.0259 27.0898 38.7281 27.5611C38.4302 28.0325 38.0042 28.4132 37.4977 28.6603L37.604 28.6082Z" fill="#E4326C"/>
<path d="M77.4258 49.0001H65.9305C65.5752 49.0001 65.2344 49.1394 64.9832 49.3875C64.7319 49.6356 64.5907 49.9721 64.5907 50.3229V68.1947C62.1586 66.3908 59.1772 65.4578 56.1367 65.549C49.8934 65.549 45.0166 68.9752 45.0166 73.2877C45.0166 77.6003 49.9068 81 56.1501 81C62.3935 81 67.2837 77.6135 67.2837 73.2877V59.8607H77.4392C77.7945 59.8607 78.1353 59.7214 78.3866 59.4733C78.6378 59.2252 78.779 58.8887 78.779 58.5379V50.3229C78.779 50.1481 78.7439 49.975 78.6757 49.8136C78.6076 49.6522 78.5077 49.5058 78.3818 49.3828C78.256 49.2598 78.1067 49.1626 77.9426 49.0969C77.7785 49.0312 77.6029 48.9983 77.4258 49.0001ZM56.1367 78.3543C51.5547 78.3543 47.6828 76.0393 47.6828 73.2877C47.6828 70.5362 51.5547 68.1947 56.1367 68.1947C60.7188 68.1947 64.5907 70.5097 64.5907 73.2481C64.5907 75.9864 60.7188 78.3543 56.1367 78.3543ZM76.086 57.1886H67.2703V51.6458H76.086V57.1886Z" fill="#E4326C"/>
</svg>
