<svg width="142" height="106" viewBox="0 0 142 106" fill="none" xmlns="http://www.w3.org/2000/svg">
<path d="M134.393 0.000278661H6.93405C5.09503 0.000278661 3.33132 0.730827 2.03094 2.03121C0.73055 3.3316 0 5.0953 0 6.93433V99.066C0 100.905 0.73055 102.669 2.03094 103.969C3.33132 105.269 5.09503 106 6.93405 106H134.393C138.228 106 141.473 102.821 141.473 99.066V6.93798C141.452 5.07985 140.694 3.30597 139.367 2.00539C138.04 0.704821 136.251 -0.0162697 134.393 0.000278661V0.000278661ZM2.47801 6.93433C2.47465 5.77691 2.92324 4.66389 3.72827 3.83229C4.53329 3.00068 5.63115 2.51617 6.78807 2.48194H134.247C135.427 2.48387 136.558 2.95358 137.393 3.78815C138.228 4.62271 138.697 5.75407 138.699 6.93433V15.6201H138.407V15.9121H2.47801V6.93433ZM138.991 99.9966H138.805C138.645 101.013 138.128 101.94 137.345 102.609C136.563 103.278 135.568 103.646 134.539 103.646H6.93405C6.35688 103.643 5.78616 103.524 5.25535 103.298C4.72455 103.071 4.24434 102.741 3.8429 102.326C3.44145 101.911 3.12685 101.421 2.91755 100.883C2.70824 100.345 2.60843 99.7707 2.62399 99.1937V18.6894H138.991V99.9966Z" fill="#E4326C"/>
<path d="M96.2844 7.59473H44.7462C44.3009 7.59473 43.8739 7.7716 43.5591 8.08643C43.2443 8.40126 43.0674 8.82826 43.0674 9.2735C43.0674 9.71873 43.2443 10.1457 43.5591 10.4606C43.8739 10.7754 44.3009 10.9523 44.7462 10.9523H96.2844C96.7296 10.9523 97.1566 10.7754 97.4715 10.4606C97.7863 10.1457 97.9632 9.71873 97.9632 9.2735C97.9632 8.82826 97.7863 8.40126 97.4715 8.08643C97.1566 7.7716 96.7296 7.59473 96.2844 7.59473Z" fill="#E4326C"/>
<path d="M8.97731 11.3174C10.106 11.3174 11.021 10.4024 11.021 9.2737C11.021 8.14498 10.106 7.22998 8.97731 7.22998C7.8486 7.22998 6.93359 8.14498 6.93359 9.2737C6.93359 10.4024 7.8486 11.3174 8.97731 11.3174Z" fill="#E4326C"/>
<path d="M15.6931 11.3174C16.8219 11.3174 17.7369 10.4024 17.7369 9.2737C17.7369 8.14498 16.8219 7.22998 15.6931 7.22998C14.5644 7.22998 13.6494 8.14498 13.6494 9.2737C13.6494 10.4024 14.5644 11.3174 15.6931 11.3174Z" fill="#E4326C"/>
<path d="M22.5535 11.3174C23.6822 11.3174 24.5972 10.4024 24.5972 9.2737C24.5972 8.14498 23.6822 7.22998 22.5535 7.22998C21.4248 7.22998 20.5098 8.14498 20.5098 9.2737C20.5098 10.4024 21.4248 11.3174 22.5535 11.3174Z" fill="#E4326C"/>
<path d="M70.516 53.4326C76.3933 53.4326 81.1579 48.668 81.1579 42.7906C81.1579 36.9132 76.3933 32.1487 70.516 32.1487C64.6386 32.1487 59.874 36.9132 59.874 42.7906C59.874 48.668 64.6386 53.4326 70.516 53.4326Z" stroke="#E4326C" stroke-width="3" stroke-miterlimit="10"/>
<path d="M70.5155 90.2051H52.3739C52.3739 90.2051 51.644 55.3706 70.5155 55.3706" stroke="#E4326C" stroke-width="3" stroke-miterlimit="10"/>
<path d="M70.5156 90.2051H88.6573C88.6573 90.2051 89.3872 55.3706 70.5156 55.3706" stroke="#E4326C" stroke-width="3" stroke-miterlimit="10"/>
</svg>
