<svg width="88" height="106" viewBox="0 0 88 106" fill="none" xmlns="http://www.w3.org/2000/svg">
<path d="M59.2898 71.1301L33.1017 57.4191C32.5782 57.1392 31.9887 57.0062 31.3958 57.0342C30.8028 57.0622 30.2284 57.2502 29.7337 57.5783C29.2207 57.9219 28.801 58.3873 28.5119 58.9329C28.2228 59.4784 28.0735 60.0871 28.0772 60.7045V88.1235C28.0755 88.7406 28.2267 89.3486 28.5174 89.8931C28.8081 90.4376 29.2291 90.9015 29.7429 91.2435C30.238 91.5706 30.8122 91.7581 31.405 91.7861C31.9978 91.8141 32.5871 91.6817 33.1109 91.4027L59.299 77.6917C59.8846 77.3663 60.3724 76.8902 60.7121 76.3128C61.0518 75.7354 61.2309 75.0777 61.2309 74.4078C61.2309 73.738 61.0518 73.0802 60.7121 72.5029C60.3724 71.9255 59.8846 71.4494 59.299 71.124L59.2898 71.1301ZM30.9462 88.0622V60.7749C30.9466 60.6621 30.9761 60.5513 31.0317 60.4531C31.0873 60.3549 31.1672 60.2727 31.2637 60.2143C31.3602 60.1559 31.4701 60.1233 31.5829 60.1196C31.6956 60.1159 31.8075 60.1412 31.9076 60.1931L58.2396 73.9715C58.3191 74.0133 58.3857 74.0761 58.4322 74.153C58.4786 74.2299 58.5032 74.318 58.5032 74.4078C58.5032 74.4977 58.4786 74.5858 58.4322 74.6627C58.3857 74.7396 58.3191 74.8023 58.2396 74.8442L31.9076 88.6225C31.8094 88.6764 31.6989 88.704 31.5869 88.7026C31.4749 88.7012 31.3652 88.6707 31.2684 88.6143C31.1716 88.5579 31.0911 88.4774 31.0346 88.3807C30.9781 88.2839 30.9477 88.1742 30.9462 88.0622V88.0622Z" fill="#E4326C"/>
<path d="M78.7146 43.0928H8.34994C7.24388 43.0944 6.14985 43.3224 5.13517 43.7626C4.12048 44.2028 3.20659 44.8459 2.44973 45.6525C0.861092 47.3315 -0.016631 49.5598 0.000238745 51.8711V96.957C-0.0164759 99.2675 0.861281 101.495 2.44973 103.173C3.20599 103.98 4.11969 104.624 5.13447 105.065C6.14924 105.506 7.24357 105.734 8.34994 105.735H78.7146C79.8201 105.735 80.9138 105.509 81.9286 105.071C82.9433 104.632 83.8575 103.99 84.6148 103.185C86.2032 101.507 87.081 99.2797 87.0643 96.9693V51.8711C87.0812 49.5598 86.2034 47.3315 84.6148 45.6525C83.8578 44.8461 82.9439 44.203 81.9293 43.7628C80.9146 43.3226 79.8206 43.0946 78.7146 43.0928V43.0928ZM84.2106 96.957C84.2184 98.4595 83.6446 99.9067 82.6093 100.996C82.1071 101.525 81.5033 101.947 80.8341 102.237C80.1648 102.526 79.4439 102.678 78.7146 102.683H8.34994C7.61912 102.679 6.89657 102.528 6.2257 102.238C5.55484 101.948 4.9495 101.525 4.44606 100.996C3.4119 99.9063 2.83918 98.4591 2.84777 96.957V51.8711C2.83918 50.3691 3.4119 48.9219 4.44606 47.8325C4.94822 47.3036 5.55202 46.8815 6.22127 46.5916C6.89052 46.3017 7.61143 46.15 8.34075 46.1455H78.7146C79.4439 46.1501 80.1647 46.302 80.834 46.5919C81.5032 46.8817 82.107 47.3037 82.6093 47.8325C83.6446 48.9214 84.2184 50.3687 84.2106 51.8711V96.957Z" fill="#E4326C"/>
<path d="M43.5312 0C31.6389 0 20.3927 5.81754 14.1802 15.2113C13.9572 15.548 13.8708 15.9569 13.9385 16.355C14.0062 16.7531 14.2229 17.1105 14.5446 17.3546C14.6934 17.4631 14.8625 17.5405 15.0419 17.582C15.2213 17.6236 15.4073 17.6285 15.5886 17.5965C15.775 17.5614 15.9525 17.4891 16.1103 17.3839C16.2681 17.2786 16.4031 17.1427 16.5072 16.9841C22.2053 8.39256 32.5514 3.06186 43.5312 3.06186C54.511 3.06186 64.8632 8.39563 70.5491 16.9811C70.6532 17.1396 70.7882 17.2756 70.946 17.3808C71.1038 17.486 71.2812 17.5583 71.4676 17.5935C71.649 17.6255 71.8349 17.6205 72.0143 17.579C72.1937 17.5374 72.3629 17.4601 72.5117 17.3516C72.8334 17.1075 73.0501 16.7501 73.1178 16.352C73.1854 15.9539 73.099 15.5449 72.8761 15.2083C66.6727 5.83591 55.4265 0 43.5312 0Z" fill="#E4326C"/>
<path d="M28.1445 36.289C28.2982 36.3886 28.4707 36.4558 28.6513 36.4863C28.8319 36.5168 29.0168 36.5101 29.1947 36.4666C29.3833 36.4199 29.5603 36.3353 29.7151 36.2179C29.8699 36.1005 29.9991 35.9528 30.0949 35.7838C32.9271 30.9093 38.0772 27.8842 43.5304 27.8842C48.9835 27.8842 54.1366 30.9093 56.9689 35.7838C57.0647 35.9528 57.1939 36.1005 57.3487 36.2179C57.5034 36.3353 57.6805 36.4199 57.8691 36.4666C58.0465 36.5102 58.2309 36.517 58.4111 36.4864C58.5912 36.4559 58.7631 36.3887 58.9162 36.289C59.2518 36.0649 59.4889 35.7208 59.5789 35.3274C59.6688 34.9339 59.6048 34.521 59.4 34.1733C56.0503 28.4109 49.9694 24.8315 43.5304 24.8315C37.0913 24.8315 31.0135 28.4109 27.6638 34.1733C27.4594 34.5208 27.3953 34.9333 27.4847 35.3265C27.574 35.7196 27.81 36.0639 28.1445 36.289V36.289Z" fill="#E4326C"/>
<path d="M21.6997 26.2495C21.8475 26.3601 22.0164 26.4393 22.196 26.4819C22.3756 26.5246 22.5621 26.5299 22.7438 26.4975C22.9302 26.4622 23.1075 26.3898 23.2653 26.2846C23.4231 26.1794 23.5581 26.0435 23.6624 25.8851C27.8357 19.6542 35.4444 15.781 43.5186 15.781C51.5927 15.781 59.2045 19.6542 63.3778 25.8851C63.482 26.0435 63.6171 26.1794 63.7749 26.2846C63.9327 26.3898 64.11 26.4622 64.2964 26.4975C64.4781 26.5299 64.6646 26.5246 64.8442 26.4819C65.0238 26.4393 65.1927 26.3601 65.3405 26.2495C65.6608 26.0041 65.8755 25.6458 65.941 25.2476C66.0064 24.8493 65.9176 24.4412 65.6926 24.1062C61.0171 17.0823 52.5174 12.7222 43.5308 12.7222C34.5442 12.7222 26.0476 17.0823 21.3476 24.1062C21.1219 24.4409 21.0326 24.8493 21.0981 25.2477C21.1635 25.6462 21.3788 26.0045 21.6997 26.2495V26.2495Z" fill="#E4326C"/>
</svg>
