<svg width="136" height="113" viewBox="0 0 136 113" fill="none" xmlns="http://www.w3.org/2000/svg">
<path d="M21.5671 53.3927C22.7043 53.5438 23.7674 54.041 24.6124 54.8168L26.979 56.8526C29.1656 58.7291 29.4923 61.4602 28.1309 63.052C26.7696 64.6437 23.9966 64.7484 21.8185 62.8718L19.4434 60.8361C17.2569 58.9595 16.8255 56.0777 18.3167 54.6283C18.7298 54.19 19.2369 53.8511 19.7999 53.6371C20.363 53.423 20.9672 53.3395 21.5671 53.3927V53.3927ZM28.3153 42.2044C29.5629 42.161 30.7789 42.6024 31.7082 43.4359L35.5911 46.787C36.1173 47.1934 36.5553 47.7026 36.8786 48.2836C37.2019 48.8645 37.4037 49.5051 37.4717 50.1665C37.5398 50.8279 37.4727 51.4961 37.2745 52.1308C37.0763 52.7654 36.7512 53.3531 36.3189 53.8582C35.8865 54.3633 35.356 54.7752 34.7596 55.069C34.1632 55.3627 33.5132 55.5321 32.8493 55.567C32.1853 55.6018 31.5213 55.5012 30.8974 55.2715C30.2735 55.0417 29.7028 54.6875 29.22 54.2304L25.337 50.8794C23.2427 49.0866 22.9201 45.9702 24.8009 43.9679C25.7025 42.9526 26.9617 42.3253 28.3153 42.217V42.2044ZM35.4362 30.8529C36.684 30.8081 37.9005 31.2497 38.8291 32.0844L44.2242 36.7213C44.7138 37.1413 45.1158 37.6536 45.4074 38.229C45.699 38.8044 45.8744 39.4315 45.9236 40.0747C45.9728 40.7178 45.8948 41.3644 45.6942 41.9774C45.4935 42.5904 45.1741 43.1579 44.7541 43.6475C44.3341 44.137 43.8218 44.5391 43.2464 44.8307C42.6711 45.1223 42.0439 45.2977 41.4008 45.3469C40.7576 45.3961 40.1111 45.3181 39.498 45.1174C38.885 44.9168 38.3175 44.5973 37.828 44.1774C36.031 42.6359 34.2256 41.0986 32.4328 39.5697C30.3384 37.7727 30.0243 34.6395 31.9134 32.6499C32.8036 31.6125 34.0691 30.9708 35.432 30.8654L35.4362 30.8529ZM44.0608 20.7998C45.3085 20.7564 46.5244 21.1978 47.4537 22.0313L52.8447 26.6683C53.3601 27.08 53.7873 27.5912 54.1009 28.1715C54.4145 28.7518 54.608 29.3893 54.6699 30.046C54.7319 30.7026 54.661 31.3651 54.4614 31.9938C54.2619 32.6225 53.9378 33.2046 53.5085 33.7053C53.0792 34.2061 52.5534 34.6153 51.9626 34.9086C51.3717 35.2018 50.7279 35.3731 50.0695 35.4122C49.411 35.4513 48.7514 35.3574 48.1301 35.1361C47.5087 34.9149 46.9382 34.5708 46.4526 34.1243L41.0575 29.5167C38.9631 27.7281 38.649 24.5907 40.5381 22.5926C41.4307 21.5577 42.6945 20.9153 44.0567 20.804L44.0608 20.7998ZM43.642 17.4488C42.4541 17.5366 41.2991 17.8794 40.2558 18.4539C39.2124 19.0285 38.3052 19.8212 37.5959 20.7781C36.8867 21.7351 36.3921 22.8337 36.1459 23.999C35.8997 25.1644 35.9076 26.3692 36.1692 27.5312C34.7711 27.4326 33.3709 27.6915 32.1004 28.2833C30.8299 28.8751 29.7309 29.7805 28.9069 30.9142C28.0828 32.0479 27.5607 33.3726 27.3898 34.7637C27.2189 36.1548 27.4047 37.5665 27.9299 38.866C26.639 38.9485 25.3855 39.3325 24.27 39.9872C23.1544 40.6419 22.208 41.549 21.5065 42.6358C20.8051 43.7225 20.3683 44.9586 20.2311 46.2448C20.094 47.531 20.2603 48.8314 20.7168 50.0416C19.7613 50.0625 18.8206 50.2827 17.9551 50.6881C17.0895 51.0934 16.3181 51.6751 15.6903 52.3957C13.1477 55.3614 13.7258 59.8099 16.5281 62.7671L0.648421 77.231C-1.17788 78.7599 1.25998 81.4574 2.95643 79.7819L19.079 65.0709L19.5607 65.4898C22.9494 68.3885 27.9676 68.4974 30.7154 65.293C32.2862 63.4625 32.6339 61.0665 32.0558 58.8087C33.3269 58.874 34.5957 58.6439 35.7629 58.1365C36.9301 57.6291 37.9639 56.8583 38.7832 55.8843C39.6025 54.9104 40.1851 53.7599 40.4852 52.5231C40.7853 51.2863 40.7948 49.9968 40.513 48.7557C41.7974 48.8474 43.0854 48.6369 44.2738 48.1411C45.4623 47.6453 46.518 46.878 47.3565 45.9007C48.1949 44.9234 48.7928 43.7632 49.1021 42.5132C49.4114 41.2633 49.4236 39.9582 49.1376 38.7026C50.8851 38.8248 52.6265 38.3914 54.1129 37.4643C55.5992 36.5373 56.7544 35.164 57.4134 33.5409C58.0723 31.9178 58.2012 30.1279 57.7816 28.4271C57.362 26.7263 56.4155 25.2017 55.0773 24.0713L49.6864 19.4343C48.8552 18.7202 47.8911 18.1775 46.8495 17.8375C45.8078 17.4975 44.7092 17.3668 43.6168 17.453L43.642 17.4488Z" fill="#E4326C"/>
<path d="M86.9079 10.7592L92.0098 10.9896C93.9366 11.0733 95.143 11.6304 95.8132 12.9373L97.7065 16.5899L90.8411 16.2925L86.9079 10.7592ZM74.9866 3.46234C76.7501 3.50842 78.2665 4.52629 79.4351 6.17666L86.4806 16.1124L73.2022 15.526L74.5217 14.483C74.8058 14.2613 75.0132 13.9561 75.1146 13.6102C75.2161 13.2644 75.2064 12.8955 75.0871 12.5555C74.9677 12.2155 74.7446 11.9215 74.4493 11.7149C74.154 11.5084 73.8013 11.3997 73.441 11.4043C73.0551 11.4136 72.6829 11.5489 72.3812 11.7896L67.8532 15.3752L61.7543 15.7606C58.4745 15.9658 56.2419 14.4746 55.4377 12.9499C54.5119 11.2074 54.8219 11.0524 56.1874 10.7257C62.2528 9.22609 65.763 8.11607 71.5854 4.50954C72.59 3.83055 73.7741 3.46601 74.9866 3.46234V3.46234ZM69.7591 1.61509C63.9367 5.25932 61.1511 6.11383 54.646 7.5422C53.8901 7.71316 53.1983 8.09522 52.651 8.64396C52.1038 9.1927 51.7236 9.88554 51.5547 10.6419C51.3418 12.0955 51.6876 13.5757 52.5223 14.7846C54.1308 17.3481 57.4943 19.4634 61.9638 19.187L68.427 18.7681L99.981 20.1253C102.767 20.2384 104.249 22.1401 104.76 24.4271C105.217 26.4629 105.393 28.972 103.592 29.2065L79.0958 32.369C76.7501 32.5994 77.2109 36.1389 79.544 35.7703L103.805 32.6539C106.465 32.6539 108.082 35.2761 108.455 37.0395C108.828 38.803 108.526 41.1445 106.084 41.6472L85.1402 45.9867C82.6898 46.3051 83.4647 50.0122 85.823 49.3378L106.767 45.0108C108.463 44.6589 110.419 46.1417 110.688 47.9429C111.24 51.6206 110.042 52.8898 107.554 53.7276L85.8942 61.0328C83.716 61.7617 84.8135 65.0331 86.9917 64.3L108.664 57.0074C110.156 56.5047 111.111 56.6932 111.86 57.1331C112.676 57.6422 113.267 58.4439 113.511 59.3741C114.114 61.3847 113.511 63.8016 111.341 64.8195C103.047 68.715 82.162 77.457 82.1243 77.4737L56.2377 85.6879C56.003 85.7657 55.7885 85.8944 55.6094 86.0649L30.0118 109.426C28.3112 110.971 30.6276 113.514 32.324 111.968L57.6493 88.8588L83.3768 80.6949C83.4186 80.6949 104.321 71.9362 112.832 67.9359C113.412 67.6549 113.952 67.3001 114.441 66.8803L133.336 78.9901C135.263 80.2216 137.106 77.3146 135.183 76.0914L116.485 64.1074C117.26 62.2853 117.478 60.1783 116.816 58.3981C116.501 57.4214 115.994 56.5173 115.326 55.7384C114.658 54.9596 113.842 54.3216 112.924 53.8616C113.63 52.8578 114.092 51.7031 114.273 50.4895C114.454 49.2758 114.349 48.0367 113.967 46.8706C113.335 45.0219 112.053 43.4652 110.361 42.4891C111.042 41.6338 111.526 40.6394 111.781 39.576C112.035 38.5127 112.052 37.4065 111.831 36.3358C111.533 35.0695 110.971 33.8803 110.183 32.8459C109.394 31.8116 108.395 30.9554 107.253 30.3333C108.447 28.3269 108.572 25.6461 108.124 23.6564C107.429 20.6991 105.221 17.7921 101.749 16.9544L98.8836 11.4001C98.3107 10.1934 97.3903 9.18548 96.2405 8.50562C94.9753 7.87805 93.5813 7.55393 92.169 7.55896L84.3988 7.21129L82.2458 4.19119C81.0436 2.49474 79.5775 0.484126 76.2349 0.0903811C72.8923 -0.303363 71.2754 0.660054 69.7591 1.61509Z" fill="#E4326C"/>
<path d="M74.3372 92.8464L88.9979 97.341L112.095 112.136C114.072 113.602 116.095 110.431 113.942 109.25L90.4514 94.1701L75.3718 89.5625C73.3654 88.9635 72.5989 92.3103 74.3372 92.8464Z" fill="#E4326C"/>
</svg>
