<svg width="79" height="106" viewBox="0 0 79 106" fill="none" xmlns="http://www.w3.org/2000/svg">
<path d="M59.2833 39.6023C59.1974 36.3689 56.642 33.7061 53.4239 33.7061L36.7571 33.6754V28.9297H24.9003V40.7803H36.7571V36.0437H53.3564C54.2944 36.0473 55.1942 36.4155 55.8657 37.0704C56.5372 37.7253 56.9278 38.6156 56.9549 39.5532V41.9889H52.1692V53.8456H56.9119V56.217C56.914 56.529 56.854 56.8382 56.7356 57.1269C56.6171 57.4155 56.4425 57.6777 56.2219 57.8983C56.0013 58.1189 55.7391 58.2935 55.4505 58.412C55.1618 58.5304 54.8526 58.5904 54.5406 58.5883H36.7478V53.8303H24.9003V58.5423H21.2804C19.398 58.5561 17.5979 59.3161 16.2751 60.6556C14.9523 61.995 14.2149 63.8045 14.2247 65.687V77.5437C14.2211 78.4726 14.4009 79.3931 14.7538 80.2523C15.1068 81.1115 15.6259 81.8926 16.2815 82.5507C16.937 83.2089 17.7161 83.731 18.5739 84.0873C19.4318 84.4437 20.3515 84.6271 21.2804 84.6271H32.6647L28.2073 89.1059L29.8884 90.7778L37.1865 83.4429L29.8884 76.105L28.2073 77.7769L32.6555 82.2864H21.3418C20.0788 82.2768 18.8703 81.7708 17.9772 80.8777C17.0841 79.9846 16.5781 78.776 16.5684 77.513V65.6563C16.566 64.4025 17.0611 63.199 17.9451 62.3098C18.8291 61.4206 20.0297 60.9185 21.2835 60.9137H24.9003V65.687H36.7571V60.9443H54.5498C55.1729 60.9455 55.7902 60.8237 56.3662 60.5858C56.9421 60.3479 57.4654 59.9986 57.9061 59.5579C58.3467 59.1173 58.696 58.594 58.9339 58.018C59.1718 57.4421 59.2937 56.8248 59.2925 56.2016V53.8303H64.0351V41.9736H59.2833V39.6023ZM34.3857 38.415H27.2717V31.301H34.3857V38.415ZM34.3857 63.3157H27.2717V56.2016H34.3857V63.3157ZM61.6546 51.459H54.5406V44.3449H61.6546V51.459Z" fill="#E4326C"/>
<path d="M58.0994 11.1463V7.58779L51.2768 7.64915C50.6006 7.66908 49.9329 7.49435 49.3532 7.14574C48.7735 6.79714 48.3061 6.28934 48.0066 5.68275C47.231 3.98736 45.9848 2.55047 44.416 1.54303C42.8473 0.535583 41.0222 0 39.1578 0C37.2935 0 35.4683 0.535583 33.8996 1.54303C32.3309 2.55047 31.0846 3.98736 30.309 5.68275C30.0111 6.2886 29.5454 6.79607 28.9672 7.1447C28.3891 7.49333 27.7229 7.66843 27.048 7.64915L20.1579 7.60007V11.1463H0V106H78.2573V11.1463H58.0994ZM22.5139 9.95914H27.2566C28.3549 9.98635 29.4363 9.68534 30.3626 9.09461C31.2889 8.50387 32.0179 7.65025 32.4564 6.64294C33.0451 5.36444 33.9879 4.28148 35.1732 3.52236C36.3585 2.76324 37.7365 2.35978 39.144 2.35978C40.5515 2.35978 41.9296 2.76324 43.1148 3.52236C44.3001 4.28148 45.2429 5.36444 45.8316 6.64294C46.2566 7.64738 46.9739 8.50075 47.8903 9.09216C48.8066 9.68356 49.8797 9.98564 50.97 9.95914H55.7281V15.889C55.7281 17.4597 54.9305 18.2604 53.3567 18.2604H24.9006C23.3269 18.2604 22.5293 17.4597 22.5293 15.889L22.5139 9.95914ZM75.886 103.629H2.37134V13.5177H20.1641V15.889C20.1641 18.7696 22.0231 20.6317 24.9068 20.6317H53.3629C56.2434 20.6317 58.1055 18.7696 58.1055 15.889V13.5177H75.8983L75.886 103.629Z" fill="#E4326C"/>
<path d="M63.109 69.3101L60.1578 73.9914H42.6719V94.1585H62.8298V74.1754L65.0999 70.5678L63.109 69.3101ZM60.4707 91.778H45.0555V76.3658H58.6639L52.1664 86.6825L48.9024 81.946L46.9513 83.2927L52.2554 90.9926L60.4707 77.9457V91.778Z" fill="#E4326C"/>
<path d="M39.1627 11.7508C40.369 11.7508 41.3469 10.7825 41.3469 9.58803C41.3469 8.39358 40.369 7.42529 39.1627 7.42529C37.9564 7.42529 36.9785 8.39358 36.9785 9.58803C36.9785 10.7825 37.9564 11.7508 39.1627 11.7508Z" fill="#E4326C"/>
</svg>
