<svg width="649" height="327" viewBox="0 0 649 327" fill="none" xmlns="http://www.w3.org/2000/svg">
<g filter="url(#filter0_d_123:460)">
<rect x="67.4482" y="32.5322" width="560.023" height="114.248" rx="26.0757" transform="rotate(14.3788 67.4482 32.5322)" fill="white"/>
<path fill-rule="evenodd" clip-rule="evenodd" d="M139.642 81.3765C141.097 81.7494 141.974 83.2312 141.601 84.686L137.955 98.9107L142.696 100.126C144.151 100.499 145.028 101.981 144.655 103.436C144.282 104.891 142.8 105.768 141.346 105.395L136.604 104.179L134.173 113.662L138.914 114.878C140.369 115.251 141.246 116.733 140.873 118.187C140.5 119.642 139.019 120.519 137.564 120.146L132.822 118.931L129.176 133.156C128.803 134.61 127.321 135.487 125.866 135.114C124.411 134.741 123.534 133.26 123.907 131.805L127.554 117.58L117.017 114.879L113.37 129.104C112.997 130.558 111.516 131.436 110.061 131.063C108.606 130.69 107.729 129.208 108.102 127.753L111.749 113.528L105.953 112.043C104.498 111.67 103.621 110.188 103.994 108.733C104.367 107.278 105.849 106.401 107.304 106.774L113.099 108.26L115.53 98.7767L109.735 97.291C108.28 96.918 107.403 95.4363 107.776 93.9814C108.149 92.5266 109.631 91.6496 111.086 92.0225L116.881 93.5082L120.528 79.2835C120.901 77.8286 122.382 76.9516 123.837 77.3246C125.292 77.6975 126.169 79.1793 125.796 80.6341L122.149 94.8589L132.686 97.5601L136.333 83.3354C136.706 81.8805 138.188 81.0035 139.642 81.3765ZM120.799 100.127L118.368 109.61L128.904 112.312L131.336 102.829L120.799 100.127Z" fill="#FF5B20"/>
<path d="M215.141 109.562C209.486 108.112 204.55 108.865 200.334 111.819C196.118 114.773 193.166 119.545 191.477 126.134C189.8 132.674 189.97 138.246 191.986 142.85C194.064 147.418 198.127 150.477 204.175 152.028C206.486 152.62 208.725 152.984 210.891 153.12C213.057 153.257 215.199 153.282 217.317 153.196L215.842 158.949C213.686 159.182 211.507 159.2 209.305 159.002C207.151 158.817 204.624 158.352 201.723 157.609C196.363 156.235 192.172 153.981 189.15 150.848C186.127 147.715 184.23 143.875 183.457 139.327C182.733 134.792 183.077 129.771 184.488 124.264C185.85 118.953 188.006 114.528 190.958 110.987C193.971 107.41 197.66 104.976 202.027 103.685C206.405 102.344 211.299 102.367 216.708 103.754C222.265 105.178 226.843 107.453 230.444 110.577L226.352 115.502C224.918 114.348 223.269 113.218 221.404 112.111C219.589 111.017 217.501 110.167 215.141 109.562ZM227.498 146.766L233.19 124.565C234.614 119.009 237.08 115.318 240.588 113.492C244.157 111.629 248.351 111.316 253.17 112.551C257.989 113.787 261.515 116.079 263.748 119.429C265.993 122.73 266.404 127.158 264.98 132.715L259.288 154.916C257.864 160.472 255.367 164.182 251.797 166.044C248.241 167.857 244.053 168.146 239.234 166.911C234.415 165.675 230.883 163.407 228.637 160.107C226.454 156.77 226.074 152.323 227.498 146.766ZM233.694 148.355C231.904 155.337 234.23 159.654 240.671 161.305C243.769 162.099 246.375 161.85 248.488 160.558C250.662 159.229 252.197 156.819 253.092 153.328L258.784 131.126C259.679 127.635 259.487 124.808 258.207 122.646C256.989 120.447 254.831 118.951 251.733 118.157C245.291 116.505 241.176 119.171 239.386 126.153L233.694 148.355ZM264.72 170.615L277.427 121.049C277.578 120.459 277.901 120.018 278.395 119.725C278.939 119.446 279.536 119.363 280.188 119.478L293.686 122.938C298.603 124.199 302.265 126.369 304.672 129.449C307.092 132.48 307.627 136.626 306.278 141.887C304.198 150.001 299.306 153.856 291.601 153.453L297.204 176.977C297.312 177.372 297.323 177.741 297.234 178.085C297.033 178.872 296.45 179.509 295.487 179.996C294.536 180.433 293.618 180.539 292.733 180.312C291.701 180.047 290.974 178.996 290.554 177.159L284.957 152.693L276.475 150.518L270.916 172.203C270.739 172.891 270.281 173.35 269.541 173.58C268.85 173.822 268.087 173.836 267.251 173.622C266.415 173.407 265.728 173.022 265.189 172.464C264.7 171.92 264.544 171.303 264.72 170.615ZM277.799 145.355L287.314 147.794C294.099 149.534 298.318 147.183 299.969 140.742C301.608 134.349 299.034 130.283 292.249 128.544L282.734 126.104L277.799 145.355ZM299.827 179.222C299.852 179.123 299.951 178.939 300.125 178.669L327.746 133.478C328.554 132.165 330.016 131.78 332.13 132.322C334.244 132.864 335.34 133.905 335.417 135.444L337.889 188.351C337.864 188.449 337.839 188.547 337.814 188.646C337.838 188.757 337.843 188.837 337.831 188.886C337.654 189.574 337.079 190.082 336.104 190.408C335.179 190.748 334.249 190.797 333.315 190.558C332.135 190.255 331.517 189.599 331.461 188.589L331.033 176.767L311.635 171.794L305.572 181.952C305.038 182.811 304.156 183.083 302.926 182.768C302.041 182.541 301.244 182.074 300.534 181.368C299.873 180.675 299.637 179.959 299.827 179.222ZM314.341 167.064L330.863 171.3L329.785 141.468L314.341 167.064ZM343.214 190.738L355.92 141.172C356.097 140.484 356.524 140.043 357.203 139.85C357.943 139.621 358.731 139.613 359.567 139.827C360.403 140.042 361.065 140.421 361.554 140.966C362.105 141.474 362.293 142.072 362.116 142.76L350.279 188.933L370.415 194.095C371.054 194.259 371.47 194.68 371.663 195.358C371.869 195.988 371.877 196.671 371.688 197.408C371.499 198.146 371.157 198.766 370.661 199.268C370.178 199.72 369.617 199.865 368.978 199.701L345.449 193.669C344.712 193.48 344.098 193.113 343.609 192.568C343.169 192.036 343.037 191.426 343.214 190.738ZM378.579 185.498L384.27 163.296C385.682 157.789 388.173 154.104 391.742 152.242C395.36 150.392 399.53 150.072 404.25 151.283C409.069 152.518 412.614 154.737 414.885 157.939C417.168 161.092 417.837 164.513 416.892 168.201C416.552 169.528 416.073 170.375 415.455 170.741C414.85 171.057 414.006 171.077 412.924 170.799C410.957 170.295 410.108 169.318 410.375 167.866C411.529 162.136 409.058 158.489 402.961 156.926C396.421 155.249 392.256 157.902 390.466 164.885L384.774 187.086C382.984 194.068 385.433 198.417 392.12 200.131C394.038 200.623 395.706 200.762 397.123 200.549C398.54 200.336 399.676 199.789 400.531 198.907C401.435 198.038 402.079 197.261 402.465 196.573C402.851 195.886 403.275 194.947 403.738 193.755C404.251 192.367 405.466 191.919 407.384 192.411C408.466 192.688 409.19 193.135 409.555 193.753C409.921 194.371 409.934 195.344 409.593 196.671C408.635 200.408 406.359 203.153 402.766 204.904C399.235 206.619 395.06 206.859 390.241 205.623C385.569 204.426 382.093 202.146 379.811 198.783C377.577 195.433 377.167 191.005 378.579 185.498ZM413.784 208.829L426.491 159.264C426.667 158.575 427.094 158.135 427.773 157.942C428.513 157.712 429.301 157.705 430.137 157.919C430.973 158.133 431.635 158.513 432.124 159.057C432.675 159.565 432.863 160.164 432.686 160.852L420.849 207.025L440.985 212.187C441.625 212.351 442.041 212.772 442.234 213.45C442.439 214.079 442.447 214.762 442.258 215.5C442.069 216.238 441.727 216.857 441.231 217.359C440.749 217.812 440.187 217.956 439.548 217.792L416.019 211.76C415.282 211.571 414.668 211.204 414.179 210.66C413.739 210.128 413.607 209.517 413.784 208.829ZM449.228 203.609L458.493 167.468C458.67 166.78 459.097 166.339 459.775 166.146C460.515 165.916 461.303 165.909 462.139 166.123C462.975 166.337 463.638 166.717 464.127 167.262C464.678 167.77 464.865 168.368 464.689 169.056L455.424 205.198C453.634 212.18 456.033 216.516 462.622 218.205C465.818 219.025 468.497 218.794 470.66 217.515C472.834 216.186 474.369 213.775 475.264 210.284L484.53 174.143C484.895 172.717 486.111 172.269 488.176 172.798C489.012 173.012 489.674 173.392 490.164 173.936C490.715 174.444 490.902 175.043 490.725 175.731L481.46 211.873C480.036 217.429 477.514 221.132 473.896 222.982C470.29 224.782 466.053 225.059 461.185 223.811C456.317 222.563 452.736 220.282 450.441 216.969C448.208 213.619 447.803 209.166 449.228 203.609ZM487.216 227.733L499.923 178.168C500.1 177.479 500.509 177.008 501.15 176.753C501.841 176.511 502.556 176.484 503.293 176.673L515.979 179.926C520.602 181.111 524.007 182.953 526.196 185.453C528.434 187.966 528.942 191.607 527.719 196.377C526.937 199.426 525.71 201.862 524.037 203.687C522.426 205.474 520.53 206.534 518.348 206.866C520.604 208.492 522.125 210.428 522.912 212.674C523.699 214.919 523.639 217.812 522.731 221.352L522.391 222.68C521.029 227.991 518.706 231.535 515.42 233.313C512.135 235.091 508.279 235.412 503.854 234.278L489.471 230.591C488.635 230.376 487.997 230.003 487.557 229.471C487.179 228.902 487.065 228.323 487.216 227.733ZM494.301 225.855L504.258 228.407C510.552 230.021 514.563 227.459 516.29 220.723L516.611 219.469C517.481 216.076 517.3 213.41 516.068 211.469C514.885 209.542 512.745 208.181 509.647 207.386L499.69 204.834L494.301 225.855ZM501.013 199.671L510.233 202.034C513.282 202.816 515.696 202.701 517.475 201.69C519.253 200.678 520.527 198.673 521.296 195.674C522.645 190.412 520.296 187.006 514.247 185.456L505.249 183.149L501.013 199.671Z" fill="url(#paint0_linear_123:460)"/>
</g>
<defs>
<filter id="filter0_d_123:460" x="-4.84611" y="-5.5346" width="658.698" height="337.587" filterUnits="userSpaceOnUse" color-interpolation-filters="sRGB">
<feFlood flood-opacity="0" result="BackgroundImageFix"/>
<feColorMatrix in="SourceAlpha" type="matrix" values="0 0 0 0 0 0 0 0 0 0 0 0 0 0 0 0 0 0 127 0" result="hardAlpha"/>
<feOffset dy="5.85643"/>
<feGaussianBlur stdDeviation="21.9616"/>
<feComposite in2="hardAlpha" operator="out"/>
<feColorMatrix type="matrix" values="0 0 0 0 0 0 0 0 0 0 0 0 0 0 0 0 0 0 0.15 0"/>
<feBlend mode="normal" in2="BackgroundImageFix" result="effect1_dropShadow_123:460"/>
<feBlend mode="normal" in="SourceGraphic" in2="effect1_dropShadow_123:460" result="shape"/>
</filter>
<linearGradient id="paint0_linear_123:460" x1="179.678" y1="121.398" x2="542.146" y2="214.321" gradientUnits="userSpaceOnUse">
<stop stop-color="#FF5B20"/>
<stop offset="1" stop-color="#FAE649"/>
</linearGradient>
</defs>
</svg>
