<svg width="571" height="251" viewBox="0 0 571 251" fill="none" xmlns="http://www.w3.org/2000/svg">
<rect x="28.4482" y="0.532227" width="560.023" height="114.248" rx="26.0757" transform="rotate(14.3788 28.4482 0.532227)" fill="white"/>
<path fill-rule="evenodd" clip-rule="evenodd" d="M100.642 49.3765C102.097 49.7494 102.974 51.2312 102.601 52.686L98.9546 66.9107L103.696 68.1263C105.151 68.4993 106.028 69.981 105.655 71.4358C105.282 72.8907 103.8 73.7677 102.346 73.3947L97.604 72.1792L95.1729 81.6624L99.9144 82.8779C101.369 83.2509 102.246 84.7326 101.873 86.1874C101.5 87.6423 100.019 88.5193 98.5638 88.1463L93.8222 86.9308L90.1755 101.156C89.8026 102.61 88.3208 103.487 86.866 103.114C85.4112 102.741 84.5341 101.26 84.9071 99.8049L88.5538 85.5801L78.0169 82.8789L74.3702 97.1037C73.9973 98.5585 72.5156 99.4355 71.0607 99.0626C69.6059 98.6896 68.7289 97.2079 69.1018 95.753L72.7485 81.5283L66.9532 80.0426C65.4984 79.6696 64.6214 78.1879 64.9943 76.733C65.3673 75.2782 66.849 74.4012 68.3039 74.7741L74.0991 76.2598L76.5303 66.7767L70.735 65.291C69.2802 64.918 68.4031 63.4363 68.7761 61.9814C69.1491 60.5266 70.6308 59.6496 72.0856 60.0225L77.8809 61.5082L81.5276 47.2835C81.9006 45.8286 83.3823 44.9516 84.8371 45.3246C86.292 45.6975 87.169 47.1793 86.796 48.6341L83.1493 62.8589L93.6862 65.5601L97.3329 51.3354C97.7059 49.8805 99.1876 49.0035 100.642 49.3765ZM81.7987 68.1273L79.3676 77.6105L89.9044 80.3117L92.3356 70.8286L81.7987 68.1273Z" fill="#FF5B20"/>
<path d="M176.141 77.562C170.486 76.1123 165.55 76.8646 161.334 79.8188C157.118 82.7731 154.166 87.5447 152.477 94.1338C150.8 100.674 150.97 106.246 152.986 110.85C155.064 115.418 159.127 118.477 165.175 120.028C167.486 120.62 169.725 120.984 171.891 121.12C174.057 121.257 176.199 121.282 178.317 121.196L176.842 126.949C174.686 127.182 172.507 127.2 170.305 127.002C168.151 126.817 165.624 126.352 162.723 125.609C157.363 124.235 153.172 121.981 150.15 118.848C147.127 115.715 145.23 111.875 144.457 107.327C143.733 102.792 144.077 97.771 145.488 92.2637C146.85 86.9531 149.006 82.5276 151.958 78.9871C154.971 75.4101 158.66 72.9759 163.027 71.6847C167.405 70.3442 172.299 70.3673 177.708 71.754C183.265 73.1784 187.843 75.4527 191.444 78.5768L187.352 83.5017C185.918 82.3482 184.269 81.2179 182.404 80.111C180.589 79.0167 178.501 78.167 176.141 77.562ZM188.498 114.766L194.19 92.5651C195.614 87.0086 198.08 83.3175 201.588 81.4917C205.157 79.6293 209.351 79.3158 214.17 80.5512C218.989 81.7866 222.515 84.0792 224.748 87.4291C226.993 90.7298 227.404 95.1583 225.98 100.715L220.288 122.916C218.864 128.472 216.367 132.182 212.797 134.044C209.241 135.857 205.053 136.146 200.234 134.911C195.415 133.675 191.883 131.407 189.637 128.107C187.454 124.77 187.074 120.323 188.498 114.766ZM194.694 116.355C192.904 123.337 195.23 127.654 201.671 129.305C204.769 130.099 207.375 129.85 209.488 128.558C211.662 127.229 213.197 124.819 214.092 121.328L219.784 99.1264C220.679 95.6352 220.487 92.8085 219.207 90.6463C217.989 88.4475 215.831 86.951 212.733 86.1568C206.291 84.5054 202.176 87.171 200.386 94.1534L194.694 116.355ZM225.72 138.615L238.427 89.0494C238.578 88.4593 238.901 88.018 239.395 87.7255C239.939 87.4456 240.536 87.3629 241.188 87.4777L254.686 90.938C259.603 92.1985 263.265 94.3689 265.672 97.4489C268.092 100.48 268.627 104.626 267.278 109.887C265.198 118.001 260.306 121.856 252.601 121.453L258.204 144.977C258.312 145.372 258.323 145.741 258.234 146.085C258.033 146.872 257.45 147.509 256.487 147.996C255.536 148.433 254.618 148.539 253.733 148.312C252.701 148.047 251.974 146.996 251.554 145.159L245.957 120.693L237.475 118.518L231.916 140.203C231.739 140.891 231.281 141.35 230.541 141.58C229.85 141.822 229.087 141.836 228.251 141.622C227.415 141.407 226.728 141.022 226.189 140.464C225.7 139.92 225.544 139.303 225.72 138.615ZM238.799 113.355L248.314 115.794C255.099 117.534 259.318 115.183 260.969 108.742C262.608 102.349 260.034 98.2832 253.249 96.5436L243.734 94.1043L238.799 113.355ZM260.827 147.222C260.852 147.123 260.951 146.939 261.125 146.669L288.746 101.478C289.554 100.165 291.016 99.7799 293.13 100.322C295.244 100.864 296.34 101.905 296.417 103.444L298.889 156.351C298.864 156.449 298.839 156.547 298.814 156.646C298.838 156.757 298.843 156.837 298.831 156.886C298.654 157.574 298.079 158.082 297.104 158.408C296.179 158.748 295.249 158.797 294.315 158.558C293.135 158.255 292.517 157.599 292.461 156.589L292.033 144.767L272.635 139.794L266.572 149.952C266.038 150.811 265.156 151.083 263.926 150.768C263.041 150.541 262.244 150.074 261.534 149.368C260.873 148.675 260.637 147.959 260.827 147.222ZM275.341 135.064L291.863 139.3L290.785 109.468L275.341 135.064ZM304.214 158.738L316.92 109.172C317.097 108.484 317.524 108.043 318.203 107.85C318.943 107.621 319.731 107.613 320.567 107.827C321.403 108.042 322.065 108.421 322.554 108.966C323.105 109.474 323.293 110.072 323.116 110.76L311.279 156.933L331.415 162.095C332.054 162.259 332.47 162.68 332.663 163.358C332.869 163.988 332.877 164.671 332.688 165.408C332.499 166.146 332.157 166.766 331.661 167.268C331.178 167.72 330.617 167.865 329.978 167.701L306.449 161.669C305.712 161.48 305.098 161.113 304.609 160.568C304.169 160.036 304.037 159.426 304.214 158.738ZM339.579 153.498L345.27 131.296C346.682 125.789 349.173 122.104 352.742 120.242C356.36 118.392 360.53 118.072 365.25 119.283C370.069 120.518 373.614 122.737 375.885 125.939C378.168 129.092 378.837 132.513 377.892 136.201C377.552 137.528 377.073 138.375 376.455 138.741C375.85 139.057 375.006 139.077 373.924 138.799C371.957 138.295 371.108 137.318 371.375 135.866C372.529 130.136 370.058 126.489 363.961 124.926C357.421 123.249 353.256 125.902 351.466 132.885L345.774 155.086C343.984 162.068 346.433 166.417 353.12 168.131C355.038 168.623 356.706 168.762 358.123 168.549C359.54 168.336 360.676 167.789 361.531 166.907C362.435 166.038 363.079 165.261 363.465 164.573C363.851 163.886 364.275 162.947 364.738 161.755C365.251 160.367 366.466 159.919 368.384 160.411C369.466 160.688 370.19 161.135 370.555 161.753C370.921 162.371 370.934 163.344 370.593 164.671C369.635 168.408 367.359 171.153 363.766 172.904C360.235 174.619 356.06 174.859 351.241 173.623C346.569 172.426 343.093 170.146 340.811 166.783C338.577 163.433 338.167 159.005 339.579 153.498ZM374.784 176.829L387.491 127.264C387.667 126.575 388.094 126.135 388.773 125.942C389.513 125.712 390.301 125.705 391.137 125.919C391.973 126.133 392.635 126.513 393.124 127.057C393.675 127.565 393.863 128.164 393.686 128.852L381.849 175.025L401.985 180.187C402.625 180.351 403.041 180.772 403.234 181.45C403.439 182.079 403.447 182.762 403.258 183.5C403.069 184.238 402.727 184.857 402.231 185.359C401.749 185.812 401.187 185.956 400.548 185.792L377.019 179.76C376.282 179.571 375.668 179.204 375.179 178.66C374.739 178.128 374.607 177.517 374.784 176.829ZM410.228 171.609L419.493 135.468C419.67 134.78 420.097 134.339 420.775 134.146C421.515 133.916 422.303 133.909 423.139 134.123C423.975 134.337 424.638 134.717 425.127 135.262C425.678 135.77 425.865 136.368 425.689 137.056L416.424 173.198C414.634 180.18 417.033 184.516 423.622 186.205C426.818 187.025 429.497 186.794 431.66 185.515C433.834 184.186 435.369 181.775 436.264 178.284L445.53 142.143C445.895 140.717 447.111 140.269 449.176 140.798C450.012 141.012 450.674 141.392 451.164 141.936C451.715 142.444 451.902 143.043 451.725 143.731L442.46 179.873C441.036 185.429 438.514 189.132 434.896 190.982C431.29 192.782 427.053 193.059 422.185 191.811C417.317 190.563 413.736 188.282 411.441 184.969C409.208 181.619 408.803 177.166 410.228 171.609ZM448.216 195.733L460.923 146.168C461.1 145.479 461.509 145.008 462.15 144.753C462.841 144.511 463.556 144.484 464.293 144.673L476.979 147.926C481.602 149.111 485.007 150.953 487.196 153.453C489.434 155.966 489.942 159.607 488.719 164.377C487.937 167.426 486.71 169.862 485.037 171.687C483.426 173.474 481.53 174.534 479.348 174.866C481.604 176.492 483.125 178.428 483.912 180.674C484.699 182.919 484.639 185.812 483.731 189.352L483.391 190.68C482.029 195.991 479.706 199.535 476.42 201.313C473.135 203.091 469.279 203.412 464.854 202.278L450.471 198.591C449.635 198.376 448.997 198.003 448.557 197.471C448.179 196.902 448.065 196.323 448.216 195.733ZM455.301 193.855L465.258 196.407C471.552 198.021 475.563 195.459 477.29 188.723L477.611 187.469C478.481 184.076 478.3 181.41 477.068 179.469C475.885 177.542 473.745 176.181 470.647 175.386L460.69 172.834L455.301 193.855ZM462.013 167.671L471.233 170.034C474.282 170.816 476.696 170.701 478.475 169.69C480.253 168.678 481.527 166.673 482.296 163.674C483.645 158.412 481.296 155.006 475.247 153.456L466.249 151.149L462.013 167.671Z" fill="url(#paint0_linear_123:460)"/>
<defs>
<linearGradient id="paint0_linear_123:460" x1="140.678" y1="89.3978" x2="503.146" y2="182.321" gradientUnits="userSpaceOnUse">
<stop stop-color="#FF5B20"/>
<stop offset="1" stop-color="#FAE649"/>
</linearGradient>
</defs>
</svg>
